<svg xmlns="http://www.w3.org/2000/svg" xmlns:xlink="http://www.w3.org/1999/xlink" contentStyleType="text/css" data-diagram-type="CLASS" height="778px" preserveAspectRatio="none" style="width:1845px;height:778px;background:#FFFFFF;" version="1.1" viewBox="0 0 1845 778" width="1845px" zoomAndPan="magnify"><title>RenovationApp - Entity Relationship Diagram</title><defs/><g><g class="title" data-source-line="12"><text fill="#FFFFFF" font-family="sans-serif" font-size="20" font-weight="bold" lengthAdjust="spacing" textLength="511.543" x="660.0362" y="28.5645">RenovationApp - Entity Relationship Diagram</text></g><!--class Project--><g class="entity" data-entity="Project" data-source-line="16" data-uid="ent0002" id="entity_Project"><rect fill="#313139" height="227.2656" rx="5" ry="5" style="stroke:#E7E7E7;stroke-width:0.5;" width="293.5518" x="783.84" y="51.2813"/><ellipse cx="902.1393" cy="67.2813" fill="#2E5233" rx="11" ry="11" style="stroke:#E7E7E7;stroke-width:1;"/><path d="M906.2487,73.2813 L898.5299,73.2813 L898.5299,60.8906 L906.2487,60.8906 L906.2487,63.0469 L900.9831,63.0469 L900.9831,65.7188 L905.7487,65.7188 L905.7487,67.875 L900.9831,67.875 L900.9831,71.125 L906.2487,71.125 L906.2487,73.2813 Z " fill="#FFFFFF"/><text fill="#FFFFFF" font-family="sans-serif" font-size="14" lengthAdjust="spacing" textLength="48.4531" x="922.6393" y="72.1279">Project</text><line style="stroke:#E7E7E7;stroke-width:0.5;" x1="784.84" x2="1076.3918" y1="83.2813" y2="83.2813"/><ellipse cx="794.84" cy="96.9297" fill="#000000" rx="3" ry="3" style="stroke:#000000;stroke-width:1;"/><text fill="#FFFFFF" font-family="sans-serif" font-size="14" lengthAdjust="spacing" textLength="83.8496" x="803.84" y="100.2764">id : int &#171;PK&#187;</text><line style="stroke:#E7E7E7;stroke-width:1;" x1="784.84" x2="1076.3918" y1="107.5781" y2="107.5781"/><text fill="#FFFFFF" font-family="sans-serif" font-size="14" lengthAdjust="spacing" textLength="213.9854" x="789.84" y="124.5732">createdTimestamp : DateTime</text><text fill="#FFFFFF" font-family="sans-serif" font-size="14" lengthAdjust="spacing" textLength="194.667" x="789.84" y="140.8701">createdByEmployee : string</text><text fill="#FFFFFF" font-family="sans-serif" font-size="14" lengthAdjust="spacing" textLength="105.2734" x="789.84" y="157.167">clientId : string</text><text fill="#FFFFFF" font-family="sans-serif" font-size="14" lengthAdjust="spacing" textLength="103.2705" x="789.84" y="173.4639">rfqId : int &#171;FK&#187;</text><text fill="#FFFFFF" font-family="sans-serif" font-size="14" lengthAdjust="spacing" textLength="149.7002" x="789.84" y="189.7607">status : ProjectStatus</text><text fill="#FFFFFF" font-family="sans-serif" font-size="14" lengthAdjust="spacing" textLength="237.2412" x="789.84" y="206.0576">renovationType : RenovationType</text><text fill="#FFFFFF" font-family="sans-serif" font-size="14" lengthAdjust="spacing" textLength="96.3867" x="789.84" y="222.3545">isPublic : bool</text><text fill="#FFFFFF" font-family="sans-serif" font-size="14" lengthAdjust="spacing" textLength="246.5518" x="789.84" y="238.6514">quotePriceOverride : decimal(10,2)</text><text fill="#FFFFFF" font-family="sans-serif" font-size="14" lengthAdjust="spacing" textLength="281.5518" x="789.84" y="254.9482">quoteScheduleStartOverride : DateTime</text><text fill="#FFFFFF" font-family="sans-serif" font-size="14" lengthAdjust="spacing" textLength="273.957" x="789.84" y="271.2451">quoteScheduleEndOverride : DateTime</text></g><!--class RFQ--><g class="entity" data-entity="RFQ" data-source-line="31" data-uid="ent0003" id="entity_RFQ"><rect fill="#313139" height="227.2656" rx="5" ry="5" style="stroke:#E7E7E7;stroke-width:0.5;" width="249.2412" x="7" y="346.6912"/><ellipse cx="112.9707" cy="362.6912" fill="#2E5233" rx="11" ry="11" style="stroke:#E7E7E7;stroke-width:1;"/><path d="M117.0801,368.6912 L109.3613,368.6912 L109.3613,356.3006 L117.0801,356.3006 L117.0801,358.4569 L111.8145,358.4569 L111.8145,361.1287 L116.5801,361.1287 L116.5801,363.285 L111.8145,363.285 L111.8145,366.535 L117.0801,366.535 L117.0801,368.6912 Z " fill="#FFFFFF"/><text fill="#FFFFFF" font-family="sans-serif" font-size="14" lengthAdjust="spacing" textLength="28.7998" x="133.4707" y="367.5379">RFQ</text><line style="stroke:#E7E7E7;stroke-width:0.5;" x1="8" x2="255.2412" y1="378.6912" y2="378.6912"/><ellipse cx="18" cy="392.3397" fill="#000000" rx="3" ry="3" style="stroke:#000000;stroke-width:1;"/><text fill="#FFFFFF" font-family="sans-serif" font-size="14" lengthAdjust="spacing" textLength="83.8496" x="27" y="395.6864">id : int &#171;PK&#187;</text><line style="stroke:#E7E7E7;stroke-width:1;" x1="8" x2="255.2412" y1="402.9881" y2="402.9881"/><text fill="#FFFFFF" font-family="sans-serif" font-size="14" lengthAdjust="spacing" textLength="213.9854" x="13" y="419.9832">createdTimestamp : DateTime</text><text fill="#FFFFFF" font-family="sans-serif" font-size="14" lengthAdjust="spacing" textLength="105.2734" x="13" y="436.2801">clientId : string</text><text fill="#FFFFFF" font-family="sans-serif" font-size="14" lengthAdjust="spacing" textLength="130.0469" x="13" y="452.577">status : RFQStatus</text><text fill="#FFFFFF" font-family="sans-serif" font-size="14" lengthAdjust="spacing" textLength="198.4746" x="13" y="468.8739">assignedEmployeeId : string</text><text fill="#FFFFFF" font-family="sans-serif" font-size="14" lengthAdjust="spacing" textLength="214.1357" x="13" y="485.1707">preferredMaterial : string(160)</text><text fill="#FFFFFF" font-family="sans-serif" font-size="14" lengthAdjust="spacing" textLength="178.1992" x="13" y="501.4676">description : string(1000)</text><text fill="#FFFFFF" font-family="sans-serif" font-size="14" lengthAdjust="spacing" textLength="237.2412" x="13" y="517.7645">renovationType : RenovationType</text><text fill="#FFFFFF" font-family="sans-serif" font-size="14" lengthAdjust="spacing" textLength="151.6348" x="13" y="534.0614">budget : decimal(9,2)</text><text fill="#FFFFFF" font-family="sans-serif" font-size="14" lengthAdjust="spacing" textLength="196.6563" x="13" y="550.3582">projectAddress : string(160)</text><text fill="#FFFFFF" font-family="sans-serif" font-size="14" lengthAdjust="spacing" textLength="148.1143" x="13" y="566.6551">roomSize : RoomSize</text></g><!--class RFQImage--><g class="entity" data-entity="RFQImage" data-source-line="46" data-uid="ent0004" id="entity_RFQImage"><rect fill="#313139" height="113.1875" rx="5" ry="5" style="stroke:#E7E7E7;stroke-width:0.5;" width="237.5313" x="12.85" y="650.2512"/><ellipse cx="91.0429" cy="666.2512" fill="#2E5233" rx="11" ry="11" style="stroke:#E7E7E7;stroke-width:1;"/><path d="M95.1522,672.2512 L87.4335,672.2512 L87.4335,659.8606 L95.1522,659.8606 L95.1522,662.0169 L89.8866,662.0169 L89.8866,664.6887 L94.6522,664.6887 L94.6522,666.845 L89.8866,666.845 L89.8866,670.095 L95.1522,670.095 L95.1522,672.2512 Z " fill="#FFFFFF"/><text fill="#FFFFFF" font-family="sans-serif" font-size="14" lengthAdjust="spacing" textLength="72.6455" x="111.5429" y="671.0979">RFQImage</text><line style="stroke:#E7E7E7;stroke-width:0.5;" x1="13.85" x2="249.3813" y1="682.2512" y2="682.2512"/><ellipse cx="23.85" cy="695.8997" fill="#000000" rx="3" ry="3" style="stroke:#000000;stroke-width:1;"/><text fill="#FFFFFF" font-family="sans-serif" font-size="14" lengthAdjust="spacing" textLength="83.8496" x="32.85" y="699.2464">id : int &#171;PK&#187;</text><line style="stroke:#E7E7E7;stroke-width:1;" x1="13.85" x2="249.3813" y1="706.5481" y2="706.5481"/><text fill="#FFFFFF" font-family="sans-serif" font-size="14" lengthAdjust="spacing" textLength="225.5313" x="18.85" y="723.5432">uploadedTimestamp : DateTime</text><text fill="#FFFFFF" font-family="sans-serif" font-size="14" lengthAdjust="spacing" textLength="117.3047" x="18.85" y="739.8401">imageUri : string</text><text fill="#FFFFFF" font-family="sans-serif" font-size="14" lengthAdjust="spacing" textLength="103.2705" x="18.85" y="756.137">rfqId : int &#171;FK&#187;</text></g><!--class ProjectService--><g class="entity" data-entity="ProjectService" data-source-line="54" data-uid="ent0005" id="entity_ProjectService"><rect fill="#313139" height="243.5625" rx="5" ry="5" style="stroke:#E7E7E7;stroke-width:0.5;" width="230.6748" x="291.28" y="338.5412"/><ellipse cx="352.2702" cy="354.5412" fill="#2E5233" rx="11" ry="11" style="stroke:#E7E7E7;stroke-width:1;"/><path d="M356.3796,360.5412 L348.6609,360.5412 L348.6609,348.1506 L356.3796,348.1506 L356.3796,350.3069 L351.114,350.3069 L351.114,352.9787 L355.8796,352.9787 L355.8796,355.135 L351.114,355.135 L351.114,358.385 L356.3796,358.385 L356.3796,360.5412 Z " fill="#FFFFFF"/><text fill="#FFFFFF" font-family="sans-serif" font-size="14" lengthAdjust="spacing" textLength="100.1943" x="372.7702" y="359.3879">ProjectService</text><line style="stroke:#E7E7E7;stroke-width:0.5;" x1="292.28" x2="520.9548" y1="370.5412" y2="370.5412"/><ellipse cx="302.28" cy="384.1897" fill="#000000" rx="3" ry="3" style="stroke:#000000;stroke-width:1;"/><text fill="#FFFFFF" font-family="sans-serif" font-size="14" lengthAdjust="spacing" textLength="83.8496" x="311.28" y="387.5364">id : int &#171;PK&#187;</text><line style="stroke:#E7E7E7;stroke-width:1;" x1="292.28" x2="520.9548" y1="394.8381" y2="394.8381"/><text fill="#FFFFFF" font-family="sans-serif" font-size="14" lengthAdjust="spacing" textLength="149.7002" x="297.28" y="411.8332">status : ProjectStatus</text><text fill="#FFFFFF" font-family="sans-serif" font-size="14" lengthAdjust="spacing" textLength="132.5967" x="297.28" y="428.1301">projectId : int &#171;FK&#187;</text><text fill="#FFFFFF" font-family="sans-serif" font-size="14" lengthAdjust="spacing" textLength="144.4912" x="297.28" y="444.427">name : varchar(255)</text><text fill="#FFFFFF" font-family="sans-serif" font-size="14" lengthAdjust="spacing" textLength="119.335" x="297.28" y="460.7239">description : text</text><text fill="#FFFFFF" font-family="sans-serif" font-size="14" lengthAdjust="spacing" textLength="218.6748" x="297.28" y="477.0207">projectServiceTypeId : int &#171;FK&#187;</text><text fill="#FFFFFF" font-family="sans-serif" font-size="14" lengthAdjust="spacing" textLength="185.7324" x="297.28" y="493.3176">quotePrice : decimal(10,2)</text><text fill="#FFFFFF" font-family="sans-serif" font-size="14" lengthAdjust="spacing" textLength="182.458" x="297.28" y="509.6145">quoteCost : decimal(10,2)</text><text fill="#FFFFFF" font-family="sans-serif" font-size="14" lengthAdjust="spacing" textLength="189.8613" x="297.28" y="525.9114">quoteStartDate : DateTime</text><text fill="#FFFFFF" font-family="sans-serif" font-size="14" lengthAdjust="spacing" textLength="182.2666" x="297.28" y="542.2082">quoteEndDate : DateTime</text><text fill="#FFFFFF" font-family="sans-serif" font-size="14" lengthAdjust="spacing" textLength="192.541" x="297.28" y="558.5051">actualStartDate : DateTime</text><text fill="#FFFFFF" font-family="sans-serif" font-size="14" lengthAdjust="spacing" textLength="184.9463" x="297.28" y="574.802">actualEndDate : DateTime</text></g><!--class ProjectServiceType--><g class="entity" data-entity="ProjectServiceType" data-source-line="70" data-uid="ent0006" id="entity_ProjectServiceType"><rect fill="#313139" height="96.8906" rx="5" ry="5" style="stroke:#E7E7E7;stroke-width:0.5;" width="166.5313" x="304.35" y="658.4012"/><ellipse cx="319.35" cy="674.4012" fill="#2E5233" rx="11" ry="11" style="stroke:#E7E7E7;stroke-width:1;"/><path d="M323.4594,680.4012 L315.7406,680.4012 L315.7406,668.0106 L323.4594,668.0106 L323.4594,670.1669 L318.1938,670.1669 L318.1938,672.8387 L322.9594,672.8387 L322.9594,674.995 L318.1938,674.995 L318.1938,678.245 L323.4594,678.245 L323.4594,680.4012 Z " fill="#FFFFFF"/><text fill="#FFFFFF" font-family="sans-serif" font-size="14" lengthAdjust="spacing" textLength="134.5313" x="333.35" y="679.2479">ProjectServiceType</text><line style="stroke:#E7E7E7;stroke-width:0.5;" x1="305.35" x2="469.8813" y1="690.4012" y2="690.4012"/><ellipse cx="315.35" cy="704.0497" fill="#000000" rx="3" ry="3" style="stroke:#000000;stroke-width:1;"/><text fill="#FFFFFF" font-family="sans-serif" font-size="14" lengthAdjust="spacing" textLength="83.8496" x="324.35" y="707.3964">id : int &#171;PK&#187;</text><line style="stroke:#E7E7E7;stroke-width:1;" x1="305.35" x2="469.8813" y1="714.6981" y2="714.6981"/><text fill="#FFFFFF" font-family="sans-serif" font-size="14" lengthAdjust="spacing" textLength="144.4912" x="310.35" y="731.6932">name : varchar(100)</text><text fill="#FFFFFF" font-family="sans-serif" font-size="14" lengthAdjust="spacing" textLength="119.335" x="310.35" y="747.9901">description : text</text></g><!--class ProjectServiceInvoice--><g class="entity" data-entity="ProjectServiceInvoice" data-source-line="77" data-uid="ent0007" id="entity_ProjectServiceInvoice"><rect fill="#313139" height="129.4844" rx="5" ry="5" style="stroke:#E7E7E7;stroke-width:0.5;" width="227.5781" x="505.83" y="642.1112"/><ellipse cx="541.229" cy="658.1112" fill="#2E5233" rx="11" ry="11" style="stroke:#E7E7E7;stroke-width:1;"/><path d="M545.3383,664.1112 L537.6196,664.1112 L537.6196,651.7206 L545.3383,651.7206 L545.3383,653.8769 L540.0727,653.8769 L540.0727,656.5487 L544.8383,656.5487 L544.8383,658.705 L540.0727,658.705 L540.0727,661.955 L545.3383,661.955 L545.3383,664.1112 Z " fill="#FFFFFF"/><text fill="#FFFFFF" font-family="sans-serif" font-size="14" lengthAdjust="spacing" textLength="150.2471" x="559.7621" y="662.9579">ProjectServiceInvoice</text><line style="stroke:#E7E7E7;stroke-width:0.5;" x1="506.83" x2="732.4081" y1="674.1112" y2="674.1112"/><ellipse cx="516.83" cy="687.7597" fill="#000000" rx="3" ry="3" style="stroke:#000000;stroke-width:1;"/><text fill="#FFFFFF" font-family="sans-serif" font-size="14" lengthAdjust="spacing" textLength="83.8496" x="525.83" y="691.1064">id : int &#171;PK&#187;</text><line style="stroke:#E7E7E7;stroke-width:1;" x1="506.83" x2="732.4081" y1="698.4081" y2="698.4081"/><text fill="#FFFFFF" font-family="sans-serif" font-size="14" lengthAdjust="spacing" textLength="215.5781" x="511.83" y="715.4032">createdTimeStamp : DateTime</text><text fill="#FFFFFF" font-family="sans-serif" font-size="14" lengthAdjust="spacing" textLength="184.3379" x="511.83" y="731.7001">projectServiceId : int &#171;FK&#187;</text><text fill="#FFFFFF" font-family="sans-serif" font-size="14" lengthAdjust="spacing" textLength="164.9238" x="511.83" y="747.997">amount : decimal(10,2)</text><text fill="#FFFFFF" font-family="sans-serif" font-size="14" lengthAdjust="spacing" textLength="112.0137" x="511.83" y="764.2939">paid : DateTime</text></g><!--class ProjectTask--><g class="entity" data-entity="ProjectTask" data-source-line="86" data-uid="ent0008" id="entity_ProjectTask"><rect fill="#313139" height="162.0781" rx="5" ry="5" style="stroke:#E7E7E7;stroke-width:0.5;" width="225.9854" x="556.63" y="379.2912"/><ellipse cx="624.88" cy="395.2912" fill="#2E5233" rx="11" ry="11" style="stroke:#E7E7E7;stroke-width:1;"/><path d="M628.9894,401.2912 L621.2706,401.2912 L621.2706,388.9006 L628.9894,388.9006 L628.9894,391.0569 L623.7238,391.0569 L623.7238,393.7287 L628.4894,393.7287 L628.4894,395.885 L623.7238,395.885 L623.7238,399.135 L628.9894,399.135 L628.9894,401.2912 Z " fill="#FFFFFF"/><text fill="#FFFFFF" font-family="sans-serif" font-size="14" lengthAdjust="spacing" textLength="80.9854" x="645.38" y="400.1379">ProjectTask</text><line style="stroke:#E7E7E7;stroke-width:0.5;" x1="557.63" x2="781.6154" y1="411.2912" y2="411.2912"/><ellipse cx="567.63" cy="424.9397" fill="#000000" rx="3" ry="3" style="stroke:#000000;stroke-width:1;"/><text fill="#FFFFFF" font-family="sans-serif" font-size="14" lengthAdjust="spacing" textLength="83.8496" x="576.63" y="428.2864">id : int &#171;PK&#187;</text><line style="stroke:#E7E7E7;stroke-width:1;" x1="557.63" x2="781.6154" y1="435.5881" y2="435.5881"/><text fill="#FFFFFF" font-family="sans-serif" font-size="14" lengthAdjust="spacing" textLength="213.9854" x="562.63" y="452.5832">createdTimestamp : DateTime</text><text fill="#FFFFFF" font-family="sans-serif" font-size="14" lengthAdjust="spacing" textLength="132.5967" x="562.63" y="468.8801">projectId : int &#171;FK&#187;</text><text fill="#FFFFFF" font-family="sans-serif" font-size="14" lengthAdjust="spacing" textLength="97.3574" x="562.63" y="485.177">userId : string</text><text fill="#FFFFFF" font-family="sans-serif" font-size="14" lengthAdjust="spacing" textLength="68.8652" x="562.63" y="501.4739">title : text</text><text fill="#FFFFFF" font-family="sans-serif" font-size="14" lengthAdjust="spacing" textLength="119.335" x="562.63" y="517.7707">description : text</text><text fill="#FFFFFF" font-family="sans-serif" font-size="14" lengthAdjust="spacing" textLength="84.5127" x="562.63" y="534.0676">status : text</text></g><!--class ProjectComment--><g class="entity" data-entity="ProjectComment" data-source-line="97" data-uid="ent0009" id="entity_ProjectComment"><rect fill="#313139" height="129.4844" rx="5" ry="5" style="stroke:#E7E7E7;stroke-width:0.5;" width="225.9854" x="817.63" y="395.5812"/><ellipse cx="867.8502" cy="411.5812" fill="#2E5233" rx="11" ry="11" style="stroke:#E7E7E7;stroke-width:1;"/><path d="M871.9596,417.5812 L864.2408,417.5812 L864.2408,405.1906 L871.9596,405.1906 L871.9596,407.3469 L866.694,407.3469 L866.694,410.0187 L871.4596,410.0187 L871.4596,412.175 L866.694,412.175 L866.694,415.425 L871.9596,415.425 L871.9596,417.5812 Z " fill="#FFFFFF"/><text fill="#FFFFFF" font-family="sans-serif" font-size="14" lengthAdjust="spacing" textLength="117.0449" x="888.3502" y="416.4279">ProjectComment</text><line style="stroke:#E7E7E7;stroke-width:0.5;" x1="818.63" x2="1042.6154" y1="427.5812" y2="427.5812"/><ellipse cx="828.63" cy="441.2297" fill="#000000" rx="3" ry="3" style="stroke:#000000;stroke-width:1;"/><text fill="#FFFFFF" font-family="sans-serif" font-size="14" lengthAdjust="spacing" textLength="83.8496" x="837.63" y="444.5764">id : int &#171;PK&#187;</text><line style="stroke:#E7E7E7;stroke-width:1;" x1="818.63" x2="1042.6154" y1="451.8781" y2="451.8781"/><text fill="#FFFFFF" font-family="sans-serif" font-size="14" lengthAdjust="spacing" textLength="108.0078" x="823.63" y="468.8732">comment : text</text><text fill="#FFFFFF" font-family="sans-serif" font-size="14" lengthAdjust="spacing" textLength="213.9854" x="823.63" y="485.1701">createdTimestamp : DateTime</text><text fill="#FFFFFF" font-family="sans-serif" font-size="14" lengthAdjust="spacing" textLength="194.667" x="823.63" y="501.467">createdByEmployee : string</text><text fill="#FFFFFF" font-family="sans-serif" font-size="14" lengthAdjust="spacing" textLength="132.5967" x="823.63" y="517.7639">projectId : int &#171;FK&#187;</text></g><!--class ProjectCommunication--><g class="entity" data-entity="ProjectCommunication" data-source-line="106" data-uid="ent0010" id="entity_ProjectCommunication"><rect fill="#313139" height="113.1875" rx="5" ry="5" style="stroke:#E7E7E7;stroke-width:0.5;" width="225.9854" x="1078.63" y="403.7312"/><ellipse cx="1109.4639" cy="419.7312" fill="#2E5233" rx="11" ry="11" style="stroke:#E7E7E7;stroke-width:1;"/><path d="M1113.5733,425.7312 L1105.8546,425.7312 L1105.8546,413.3406 L1113.5733,413.3406 L1113.5733,415.4969 L1108.3077,415.4969 L1108.3077,418.1687 L1113.0733,418.1687 L1113.0733,420.325 L1108.3077,420.325 L1108.3077,423.575 L1113.5733,423.575 L1113.5733,425.7312 Z " fill="#FFFFFF"/><text fill="#FFFFFF" font-family="sans-serif" font-size="14" lengthAdjust="spacing" textLength="158.7988" x="1126.9826" y="424.5779">ProjectCommunication</text><line style="stroke:#E7E7E7;stroke-width:0.5;" x1="1079.63" x2="1303.6154" y1="435.7312" y2="435.7312"/><ellipse cx="1089.63" cy="449.3797" fill="#000000" rx="3" ry="3" style="stroke:#000000;stroke-width:1;"/><text fill="#FFFFFF" font-family="sans-serif" font-size="14" lengthAdjust="spacing" textLength="83.8496" x="1098.63" y="452.7264">id : int &#171;PK&#187;</text><line style="stroke:#E7E7E7;stroke-width:1;" x1="1079.63" x2="1303.6154" y1="460.0281" y2="460.0281"/><text fill="#FFFFFF" font-family="sans-serif" font-size="14" lengthAdjust="spacing" textLength="213.9854" x="1084.63" y="477.0232">createdTimestamp : DateTime</text><text fill="#FFFFFF" font-family="sans-serif" font-size="14" lengthAdjust="spacing" textLength="104.4121" x="1084.63" y="493.3201">message : text</text><text fill="#FFFFFF" font-family="sans-serif" font-size="14" lengthAdjust="spacing" textLength="132.5967" x="1084.63" y="509.617">projectId : int &#171;FK&#187;</text></g><!--class ProjectFile--><g class="entity" data-entity="ProjectFile" data-source-line="114" data-uid="ent0011" id="entity_ProjectFile"><rect fill="#313139" height="145.7813" rx="5" ry="5" style="stroke:#E7E7E7;stroke-width:0.5;" width="237.5313" x="1339.85" y="387.4312"/><ellipse cx="1417.9164" cy="403.4312" fill="#2E5233" rx="11" ry="11" style="stroke:#E7E7E7;stroke-width:1;"/><path d="M1422.0258,409.4312 L1414.307,409.4312 L1414.307,397.0406 L1422.0258,397.0406 L1422.0258,399.1969 L1416.7602,399.1969 L1416.7602,401.8687 L1421.5258,401.8687 L1421.5258,404.025 L1416.7602,404.025 L1416.7602,407.275 L1422.0258,407.275 L1422.0258,409.4312 Z " fill="#FFFFFF"/><text fill="#FFFFFF" font-family="sans-serif" font-size="14" lengthAdjust="spacing" textLength="72.8984" x="1438.4164" y="408.2779">ProjectFile</text><line style="stroke:#E7E7E7;stroke-width:0.5;" x1="1340.85" x2="1576.3813" y1="419.4312" y2="419.4312"/><ellipse cx="1350.85" cy="433.0797" fill="#000000" rx="3" ry="3" style="stroke:#000000;stroke-width:1;"/><text fill="#FFFFFF" font-family="sans-serif" font-size="14" lengthAdjust="spacing" textLength="83.8496" x="1359.85" y="436.4264">id : int &#171;PK&#187;</text><line style="stroke:#E7E7E7;stroke-width:1;" x1="1340.85" x2="1576.3813" y1="443.7281" y2="443.7281"/><text fill="#FFFFFF" font-family="sans-serif" font-size="14" lengthAdjust="spacing" textLength="225.5313" x="1345.85" y="460.7232">uploadedTimestamp : DateTime</text><text fill="#FFFFFF" font-family="sans-serif" font-size="14" lengthAdjust="spacing" textLength="82.708" x="1345.85" y="477.0201">fileUri : text</text><text fill="#FFFFFF" font-family="sans-serif" font-size="14" lengthAdjust="spacing" textLength="104.1182" x="1345.85" y="493.317">fileName : text</text><text fill="#FFFFFF" font-family="sans-serif" font-size="14" lengthAdjust="spacing" textLength="103.6738" x="1345.85" y="509.6139">type : FileType</text><text fill="#FFFFFF" font-family="sans-serif" font-size="14" lengthAdjust="spacing" textLength="132.5967" x="1345.85" y="525.9107">projectId : int &#171;FK&#187;</text></g><!--class ClientInvoice--><g class="entity" data-entity="ClientInvoice" data-source-line="124" data-uid="ent0012" id="entity_ClientInvoice"><rect fill="#313139" height="162.0781" rx="5" ry="5" style="stroke:#E7E7E7;stroke-width:0.5;" width="225.9854" x="1612.63" y="379.2912"/><ellipse cx="1676.0812" cy="395.2912" fill="#2E5233" rx="11" ry="11" style="stroke:#E7E7E7;stroke-width:1;"/><path d="M1680.1905,401.2912 L1672.4718,401.2912 L1672.4718,388.9006 L1680.1905,388.9006 L1680.1905,391.0569 L1674.9249,391.0569 L1674.9249,393.7287 L1679.6905,393.7287 L1679.6905,395.885 L1674.9249,395.885 L1674.9249,399.135 L1680.1905,399.135 L1680.1905,401.2912 Z " fill="#FFFFFF"/><text fill="#FFFFFF" font-family="sans-serif" font-size="14" lengthAdjust="spacing" textLength="90.583" x="1696.5812" y="400.1379">ClientInvoice</text><line style="stroke:#E7E7E7;stroke-width:0.5;" x1="1613.63" x2="1837.6154" y1="411.2912" y2="411.2912"/><ellipse cx="1623.63" cy="424.9397" fill="#000000" rx="3" ry="3" style="stroke:#000000;stroke-width:1;"/><text fill="#FFFFFF" font-family="sans-serif" font-size="14" lengthAdjust="spacing" textLength="83.8496" x="1632.63" y="428.2864">id : int &#171;PK&#187;</text><line style="stroke:#E7E7E7;stroke-width:1;" x1="1613.63" x2="1837.6154" y1="435.5881" y2="435.5881"/><text fill="#FFFFFF" font-family="sans-serif" font-size="14" lengthAdjust="spacing" textLength="213.9854" x="1618.63" y="452.5832">createdTimestamp : DateTime</text><text fill="#FFFFFF" font-family="sans-serif" font-size="14" lengthAdjust="spacing" textLength="119.335" x="1618.63" y="468.8801">description : text</text><text fill="#FFFFFF" font-family="sans-serif" font-size="14" lengthAdjust="spacing" textLength="186.0811" x="1618.63" y="485.177">paymentInstructions : text</text><text fill="#FFFFFF" font-family="sans-serif" font-size="14" lengthAdjust="spacing" textLength="112.0137" x="1618.63" y="501.4739">paid : DateTime</text><text fill="#FFFFFF" font-family="sans-serif" font-size="14" lengthAdjust="spacing" textLength="122.8281" x="1618.63" y="517.7707">amount : decimal</text><text fill="#FFFFFF" font-family="sans-serif" font-size="14" lengthAdjust="spacing" textLength="132.5967" x="1618.63" y="534.0676">projectId : int &#171;FK&#187;</text></g><!--link Project to ProjectComment--><g class="link" data-entity-1="Project" data-entity-2="ProjectComment" data-source-line="138" data-uid="lnk13" id="link_Project_ProjectComment"><path codeLine="138" d="M930.62,286.7012 C930.62,326.2012 930.62,343.1212 930.62,377.3113" fill="none" id="Project-ProjectComment" style="stroke:#666666;stroke-width:1;"/><line style="stroke:#666666;stroke-width:1;" x1="926.62" x2="934.62" y1="282.7012" y2="282.7012"/><line style="stroke:#666666;stroke-width:1;" x1="926.62" x2="934.62" y1="285.7012" y2="285.7012"/><line style="stroke:#666666;stroke-width:1;" x1="930.62" x2="930.62" y1="286.7012" y2="278.7012"/><line style="stroke:#666666;stroke-width:1;" x1="930.62" x2="936.62" y1="387.3113" y2="395.3113"/><line style="stroke:#666666;stroke-width:1;" x1="930.62" x2="924.62" y1="387.3113" y2="395.3113"/><line style="stroke:#666666;stroke-width:1;" x1="930.62" x2="930.62" y1="387.3113" y2="395.3113"/><ellipse cx="930.62" cy="381.3113" fill="none" rx="4" ry="4" style="stroke:#666666;stroke-width:1;"/></g><!--link Project to ProjectFile--><g class="link" data-entity-1="Project" data-entity-2="ProjectFile" data-source-line="139" data-uid="lnk14" id="link_Project_ProjectFile"><path codeLine="139" d="M1060.5,286.9112 C1060.5,343.3612 1060.5,391.5912 1060.5,391.5912 C1060.5,391.5912 1204.15,391.5912 1321.44,391.5912" fill="none" id="Project-ProjectFile" style="stroke:#666666;stroke-width:1;"/><line style="stroke:#666666;stroke-width:1;" x1="1056.5" x2="1064.5" y1="282.9112" y2="282.9112"/><line style="stroke:#666666;stroke-width:1;" x1="1056.5" x2="1064.5" y1="285.9112" y2="285.9112"/><line style="stroke:#666666;stroke-width:1;" x1="1060.5" x2="1060.5" y1="286.9112" y2="278.9112"/><line style="stroke:#666666;stroke-width:1;" x1="1331.44" x2="1339.44" y1="391.5912" y2="385.5912"/><line style="stroke:#666666;stroke-width:1;" x1="1331.44" x2="1339.44" y1="391.5912" y2="397.5912"/><line style="stroke:#666666;stroke-width:1;" x1="1331.44" x2="1339.44" y1="391.5912" y2="391.5912"/><ellipse cx="1325.44" cy="391.5912" fill="none" rx="4" ry="4" style="stroke:#666666;stroke-width:1;"/></g><!--link Project to ProjectCommunication--><g class="link" data-entity-1="Project" data-entity-2="ProjectCommunication" data-source-line="140" data-uid="lnk15" id="link_Project_ProjectCommunication"><path codeLine="140" d="M1052.06,286.8012 C1052.06,370.1012 1052.06,460.5912 1052.06,460.5912 C1052.06,460.5912 1044.79,460.5912 1060.31,460.5912" fill="none" id="Project-ProjectCommunication" style="stroke:#666666;stroke-width:1;"/><line style="stroke:#666666;stroke-width:1;" x1="1048.06" x2="1056.06" y1="282.8012" y2="282.8012"/><line style="stroke:#666666;stroke-width:1;" x1="1048.06" x2="1056.06" y1="285.8012" y2="285.8012"/><line style="stroke:#666666;stroke-width:1;" x1="1052.06" x2="1052.06" y1="286.8012" y2="278.8012"/><line style="stroke:#666666;stroke-width:1;" x1="1070.31" x2="1078.31" y1="460.5912" y2="454.5912"/><line style="stroke:#666666;stroke-width:1;" x1="1070.31" x2="1078.31" y1="460.5912" y2="466.5912"/><line style="stroke:#666666;stroke-width:1;" x1="1070.31" x2="1078.31" y1="460.5912" y2="460.5912"/><ellipse cx="1064.31" cy="460.5912" fill="none" rx="4" ry="4" style="stroke:#666666;stroke-width:1;"/></g><!--link Project to ClientInvoice--><g class="link" data-entity-1="Project" data-entity-2="ClientInvoice" data-source-line="141" data-uid="lnk16" id="link_Project_ClientInvoice"><path codeLine="141" d="M1068.95,286.8512 C1068.95,339.5212 1068.95,382.5912 1068.95,382.5912 C1068.95,382.5912 1406.51,382.5912 1594.36,382.5912" fill="none" id="Project-ClientInvoice" style="stroke:#666666;stroke-width:1;"/><line style="stroke:#666666;stroke-width:1;" x1="1064.95" x2="1072.95" y1="282.8512" y2="282.8512"/><line style="stroke:#666666;stroke-width:1;" x1="1064.95" x2="1072.95" y1="285.8512" y2="285.8512"/><line style="stroke:#666666;stroke-width:1;" x1="1068.95" x2="1068.95" y1="286.8512" y2="278.8512"/><line style="stroke:#666666;stroke-width:1;" x1="1604.36" x2="1612.36" y1="382.5912" y2="376.5912"/><line style="stroke:#666666;stroke-width:1;" x1="1604.36" x2="1612.36" y1="382.5912" y2="388.5912"/><line style="stroke:#666666;stroke-width:1;" x1="1604.36" x2="1612.36" y1="382.5912" y2="382.5912"/><ellipse cx="1598.36" cy="382.5912" fill="none" rx="4" ry="4" style="stroke:#666666;stroke-width:1;"/></g><!--link Project to ProjectService--><g class="link" data-entity-1="Project" data-entity-2="ProjectService" data-source-line="142" data-uid="lnk17" id="link_Project_ProjectService"><path codeLine="142" d="M795.11,287.0012 C795.11,329.4912 795.11,359.5912 795.11,359.5912 C795.11,359.5912 654.88,359.5912 540.39,359.5912" fill="none" id="Project-ProjectService" style="stroke:#666666;stroke-width:1;"/><line style="stroke:#666666;stroke-width:1;" x1="791.11" x2="799.11" y1="283.0012" y2="283.0012"/><line style="stroke:#666666;stroke-width:1;" x1="791.11" x2="799.11" y1="286.0012" y2="286.0012"/><line style="stroke:#666666;stroke-width:1;" x1="795.11" x2="795.11" y1="287.0012" y2="279.0012"/><line style="stroke:#666666;stroke-width:1;" x1="530.39" x2="522.39" y1="359.5912" y2="365.5912"/><line style="stroke:#666666;stroke-width:1;" x1="530.39" x2="522.39" y1="359.5912" y2="353.5912"/><line style="stroke:#666666;stroke-width:1;" x1="530.39" x2="522.39" y1="359.5912" y2="359.5912"/><ellipse cx="536.39" cy="359.5912" fill="none" rx="4" ry="4" style="stroke:#666666;stroke-width:1;"/></g><!--link Project to ProjectTask--><g class="link" data-entity-1="Project" data-entity-2="ProjectTask" data-source-line="143" data-uid="lnk18" id="link_Project_ProjectTask"><path codeLine="143" d="M806.37,286.8113 C806.37,340.7712 806.37,385.5912 806.37,385.5912 C806.37,385.5912 814.86,385.5912 800.86,385.5912" fill="none" id="Project-ProjectTask" style="stroke:#666666;stroke-width:1;"/><line style="stroke:#666666;stroke-width:1;" x1="802.37" x2="810.37" y1="282.8113" y2="282.8113"/><line style="stroke:#666666;stroke-width:1;" x1="802.37" x2="810.37" y1="285.8113" y2="285.8113"/><line style="stroke:#666666;stroke-width:1;" x1="806.37" x2="806.37" y1="286.8113" y2="278.8113"/><line style="stroke:#666666;stroke-width:1;" x1="790.86" x2="782.86" y1="385.5912" y2="391.5912"/><line style="stroke:#666666;stroke-width:1;" x1="790.86" x2="782.86" y1="385.5912" y2="379.5912"/><line style="stroke:#666666;stroke-width:1;" x1="790.86" x2="782.86" y1="385.5912" y2="385.5912"/><ellipse cx="796.86" cy="385.5912" fill="none" rx="4" ry="4" style="stroke:#666666;stroke-width:1;"/></g><!--link Project to RFQ--><g class="link" data-entity-1="Project" data-entity-2="RFQ" data-source-line="144" data-uid="lnk19" id="link_Project_RFQ"><path codeLine="144" d="M775.61,165.5912 C544.84,165.5912 131.62,165.5912 131.62,165.5912 C131.62,165.5912 131.62,248.4312 131.62,331.3712" fill="none" id="Project-RFQ" style="stroke:#666666;stroke-width:1;"/><line style="stroke:#666666;stroke-width:1;" x1="779.61" x2="779.61" y1="161.5912" y2="169.5912"/><line style="stroke:#666666;stroke-width:1;" x1="776.61" x2="776.61" y1="161.5912" y2="169.5912"/><line style="stroke:#666666;stroke-width:1;" x1="775.61" x2="783.61" y1="165.5912" y2="165.5912"/><line style="stroke:#666666;stroke-width:1;" x1="131.62" x2="131.62" y1="335.3712" y2="346.3712"/><ellipse cx="131.62" cy="335.3712" fill="none" rx="4" ry="4" style="stroke:#666666;stroke-width:1;"/><line style="stroke:#666666;stroke-width:1;" x1="135.62" x2="127.62" y1="342.3712" y2="342.3712"/></g><!--link RFQ to RFQImage--><g class="link" data-entity-1="RFQ" data-entity-2="RFQImage" data-source-line="147" data-uid="lnk20" id="link_RFQ_RFQImage"><path codeLine="147" d="M131.62,582.2113 C131.62,608.4513 131.62,609.2612 131.62,631.8512" fill="none" id="RFQ-RFQImage" style="stroke:#666666;stroke-width:1;"/><line style="stroke:#666666;stroke-width:1;" x1="127.62" x2="135.62" y1="578.2113" y2="578.2113"/><line style="stroke:#666666;stroke-width:1;" x1="127.62" x2="135.62" y1="581.2113" y2="581.2113"/><line style="stroke:#666666;stroke-width:1;" x1="131.62" x2="131.62" y1="582.2113" y2="574.2113"/><line style="stroke:#666666;stroke-width:1;" x1="131.62" x2="137.62" y1="641.8512" y2="649.8512"/><line style="stroke:#666666;stroke-width:1;" x1="131.62" x2="125.62" y1="641.8512" y2="649.8512"/><line style="stroke:#666666;stroke-width:1;" x1="131.62" x2="131.62" y1="641.8512" y2="649.8512"/><ellipse cx="131.62" cy="635.8512" fill="none" rx="4" ry="4" style="stroke:#666666;stroke-width:1;"/></g><!--link ProjectService to ProjectServiceInvoice--><g class="link" data-entity-1="ProjectService" data-entity-2="ProjectServiceInvoice" data-source-line="150" data-uid="lnk21" id="link_ProjectService_ProjectServiceInvoice"><path codeLine="150" d="M513.89,590.5012 C513.89,610.9613 513.89,605.4712 513.89,623.7512" fill="none" id="ProjectService-ProjectServiceInvoice" style="stroke:#666666;stroke-width:1;"/><line style="stroke:#666666;stroke-width:1;" x1="509.89" x2="517.89" y1="586.5012" y2="586.5012"/><line style="stroke:#666666;stroke-width:1;" x1="509.89" x2="517.89" y1="589.5012" y2="589.5012"/><line style="stroke:#666666;stroke-width:1;" x1="513.89" x2="513.89" y1="590.5012" y2="582.5012"/><line style="stroke:#666666;stroke-width:1;" x1="513.89" x2="519.89" y1="633.7512" y2="641.7512"/><line style="stroke:#666666;stroke-width:1;" x1="513.89" x2="507.89" y1="633.7512" y2="641.7512"/><line style="stroke:#666666;stroke-width:1;" x1="513.89" x2="513.89" y1="633.7512" y2="641.7512"/><ellipse cx="513.89" cy="627.7512" fill="none" rx="4" ry="4" style="stroke:#666666;stroke-width:1;"/></g><!--link ProjectService to ProjectServiceType--><g class="link" data-entity-1="ProjectService" data-entity-2="ProjectServiceType" data-source-line="151" data-uid="lnk22" id="link_ProjectService_ProjectServiceType"><path codeLine="151" d="M387.62,600.5012 C387.62,627.2612 387.62,628.0913 387.62,649.9313" fill="none" id="ProjectService-ProjectServiceType" style="stroke:#666666;stroke-width:1;"/><line style="stroke:#666666;stroke-width:1;" x1="387.62" x2="381.62" y1="590.5012" y2="582.5012"/><line style="stroke:#666666;stroke-width:1;" x1="387.62" x2="393.62" y1="590.5012" y2="582.5012"/><line style="stroke:#666666;stroke-width:1;" x1="387.62" x2="387.62" y1="590.5012" y2="582.5012"/><ellipse cx="387.62" cy="596.5012" fill="none" rx="4" ry="4" style="stroke:#666666;stroke-width:1;"/><line style="stroke:#666666;stroke-width:1;" x1="391.62" x2="383.62" y1="653.9313" y2="653.9313"/><line style="stroke:#666666;stroke-width:1;" x1="391.62" x2="383.62" y1="650.9313" y2="650.9313"/><line style="stroke:#666666;stroke-width:1;" x1="387.62" x2="387.62" y1="649.9313" y2="657.9313"/></g><!--SRC=[fLPjRzem4FwUNs5r7zfDGmhLMcbLLQcZHKBJDbRO3p3n0LwTEBKTEbRuxpixBpWaWKdm0V0zvtjvVEVpEPcOjU398j3FF4cfeZ719PXr2aGgivGUCAFHyqB9B643AQGYhqjkmCCT54cLW2Bzq0FqaZBvYbx8d0hjRxbNIhxcrjvTkuy7He9gFPI9cV2_GFgVF2Z5KEW2sa73ZTX1bs4Gd9EfbGKE8K-Go1KrN2RtQKfwv351-Hh5mWdragVaWTC5sh9R7Sn11m7aYcTZ9Nz3PCu8rQJuJzu2GZuGpiWDuOaXjxVZhtTtAElry2jIG0smAOz16ngdgFI00hlUeL_MZt4gv1e0OMsKFHK41KUt8-RBrFnbj7Cqp1sXOPDfb1OHJTpQQbVfJksftdZvMm5gS3tEPe97YCsa52XvoQI1iU8H_5Y1KfpPVGmY7bDnqGy_NhulbIRH4bWc0Dqfuobx-TNq7XFMfhNTiViq_EcOnT-JM6qXhk88RLVyO97nHGAiPB- -9LKmnt21VKFJYbDHWHVzwz3Im417YgUMJmyBGmSU9t-MiGKOZzxFERjfVeptZ2dGkk5LIHcx-aQJnTyz4aSnTaZ9f5iSfZF3z2dhv9DR2xyKFrA8sqQRJ42ji93yRYb4X-FfBEY2cMOB93IsVAoeYfPKNLnUNJNFny0VixDH16AFecbkrmHTnJ-GsdGsXcq8orzBCs0JD14QcOoAZcqvsBAlas-RKmldhWmFyhx7OZyCErZiT3rALhBzn0lal_jwqgp3-iarJut6E8RQJYMbpjy1vgPKF_j1s_KfLr1deMOQLFsQoITJLPwjDLirH0Vx0nd7AF8pA4H7aYYKAaSdZAkEbDk3pH8UkQjmF-GAE8Lz56fxwUtt_F7OXbpKYjUkJxexvsWWlpgBKApWUzvdXSJauy6wAWR3yN07-OZpkgqcEOMyzakJhcDd7eyxYznRoGVhxTNin8CvsPTM-PPItajC1wLqi-drvDjUPNUWbiO36wlwsjUfyTTXeBXvEb1xPzIXZPs_DZtxeAcdPYN5zd96UpoKKxALZX9iZMqlWL9tAtkzpQPb8Fm3]--></g></svg>