<svg xmlns="http://www.w3.org/2000/svg" xmlns:xlink="http://www.w3.org/1999/xlink" contentStyleType="text/css" data-diagram-type="CLASS" height="1016px" preserveAspectRatio="none" style="width:1845px;height:1016px;background:#FFFFFF;" version="1.1" viewBox="0 0 1845 1016" width="1845px" zoomAndPan="magnify"><title>RenovationApp - Entity Relationship Diagram</title><defs/><g><g class="title" data-source-line="12"><text fill="#000000" font-family="sans-serif" font-size="20" font-weight="bold" lengthAdjust="spacing" textLength="511.543" x="660.0362" y="28.5645">RenovationApp - Entity Relationship Diagram</text></g><!--class User--><g class="entity" data-entity="User" data-source-line="16" data-uid="ent0002" id="entity_User"><rect fill="#F1F1F1" height="194.6719" rx="5" ry="5" style="stroke:#181818;stroke-width:0.5;" width="225.9854" x="451.63" y="51.2813"/><ellipse cx="544.4176" cy="67.2813" fill="#ADD1B2" rx="11" ry="11" style="stroke:#181818;stroke-width:1;"/><path d="M548.527,73.2813 L540.8082,73.2813 L540.8082,60.8906 L548.527,60.8906 L548.527,63.0469 L543.2613,63.0469 L543.2613,65.7188 L548.027,65.7188 L548.027,67.875 L543.2613,67.875 L543.2613,71.125 L548.527,71.125 L548.527,73.2813 Z " fill="#000000"/><text fill="#000000" font-family="sans-serif" font-size="14" lengthAdjust="spacing" textLength="31.9102" x="564.9176" y="72.1279">User</text><line style="stroke:#181818;stroke-width:0.5;" x1="452.63" x2="676.6154" y1="83.2813" y2="83.2813"/><ellipse cx="462.63" cy="96.9297" fill="#000000" rx="3" ry="3" style="stroke:#000000;stroke-width:1;"/><text fill="#000000" font-family="sans-serif" font-size="14" lengthAdjust="spacing" textLength="83.8496" x="471.63" y="100.2764">id : int &#171;PK&#187;</text><line style="stroke:#181818;stroke-width:1;" x1="452.63" x2="676.6154" y1="107.5781" y2="107.5781"/><text fill="#000000" font-family="sans-serif" font-size="14" lengthAdjust="spacing" textLength="171.6846" x="457.63" y="124.5732">authenticationOid : Guid</text><text fill="#000000" font-family="sans-serif" font-size="14" lengthAdjust="spacing" textLength="213.9854" x="457.63" y="140.8701">createdTimestamp : DateTime</text><text fill="#000000" font-family="sans-serif" font-size="14" lengthAdjust="spacing" textLength="144.4912" x="457.63" y="157.167">name : varchar(255)</text><text fill="#000000" font-family="sans-serif" font-size="14" lengthAdjust="spacing" textLength="160.0977" x="457.63" y="173.4639">address : varchar(255)</text><text fill="#000000" font-family="sans-serif" font-size="14" lengthAdjust="spacing" textLength="103.1475" x="457.63" y="189.7607">role : UserRole</text><text fill="#000000" font-family="sans-serif" font-size="14" lengthAdjust="spacing" textLength="92.415" x="457.63" y="206.0576">email : string</text><text fill="#000000" font-family="sans-serif" font-size="14" lengthAdjust="spacing" textLength="153.8564" x="457.63" y="222.3545">phoneNumber : string</text><text fill="#000000" font-family="sans-serif" font-size="14" lengthAdjust="spacing" textLength="125.6445" x="457.63" y="238.6514">userName : string</text></g><!--class Project--><g class="entity" data-entity="Project" data-source-line="29" data-uid="ent0003" id="entity_Project"><rect fill="#F1F1F1" height="210.9688" rx="5" ry="5" style="stroke:#181818;stroke-width:0.5;" width="293.5518" x="518.84" y="305.9513"/><ellipse cx="637.1393" cy="321.9513" fill="#ADD1B2" rx="11" ry="11" style="stroke:#181818;stroke-width:1;"/><path d="M641.2487,327.9513 L633.5299,327.9513 L633.5299,315.5606 L641.2487,315.5606 L641.2487,317.7169 L635.9831,317.7169 L635.9831,320.3888 L640.7487,320.3888 L640.7487,322.545 L635.9831,322.545 L635.9831,325.795 L641.2487,325.795 L641.2487,327.9513 Z " fill="#000000"/><text fill="#000000" font-family="sans-serif" font-size="14" lengthAdjust="spacing" textLength="48.4531" x="657.6393" y="326.7979">Project</text><line style="stroke:#181818;stroke-width:0.5;" x1="519.84" x2="811.3918" y1="337.9513" y2="337.9513"/><ellipse cx="529.84" cy="351.5997" fill="#000000" rx="3" ry="3" style="stroke:#000000;stroke-width:1;"/><text fill="#000000" font-family="sans-serif" font-size="14" lengthAdjust="spacing" textLength="83.8496" x="538.84" y="354.9464">id : int &#171;PK&#187;</text><line style="stroke:#181818;stroke-width:1;" x1="519.84" x2="811.3918" y1="362.2481" y2="362.2481"/><text fill="#000000" font-family="sans-serif" font-size="14" lengthAdjust="spacing" textLength="213.9854" x="524.84" y="379.2432">createdTimestamp : DateTime</text><text fill="#000000" font-family="sans-serif" font-size="14" lengthAdjust="spacing" textLength="211.5449" x="524.84" y="395.5401">createdByEmployee : int &#171;FK&#187;</text><text fill="#000000" font-family="sans-serif" font-size="14" lengthAdjust="spacing" textLength="122.1514" x="524.84" y="411.837">clientId : int &#171;FK&#187;</text><text fill="#000000" font-family="sans-serif" font-size="14" lengthAdjust="spacing" textLength="103.2705" x="524.84" y="428.1339">rfqId : int &#171;FK&#187;</text><text fill="#000000" font-family="sans-serif" font-size="14" lengthAdjust="spacing" textLength="149.7002" x="524.84" y="444.4307">status : ProjectStatus</text><text fill="#000000" font-family="sans-serif" font-size="14" lengthAdjust="spacing" textLength="96.3867" x="524.84" y="460.7276">isPublic : bool</text><text fill="#000000" font-family="sans-serif" font-size="14" lengthAdjust="spacing" textLength="246.5518" x="524.84" y="477.0245">quotePriceOverride : decimal(10,2)</text><text fill="#000000" font-family="sans-serif" font-size="14" lengthAdjust="spacing" textLength="281.5518" x="524.84" y="493.3214">quoteScheduleStartOverride : DateTime</text><text fill="#000000" font-family="sans-serif" font-size="14" lengthAdjust="spacing" textLength="273.957" x="524.84" y="509.6182">quoteScheduleEndOverride : DateTime</text></g><!--class RFQ--><g class="entity" data-entity="RFQ" data-source-line="43" data-uid="ent0004" id="entity_RFQ"><rect fill="#F1F1F1" height="227.2656" rx="5" ry="5" style="stroke:#181818;stroke-width:0.5;" width="249.2412" x="7" y="585.0713"/><ellipse cx="112.9707" cy="601.0713" fill="#ADD1B2" rx="11" ry="11" style="stroke:#181818;stroke-width:1;"/><path d="M117.0801,607.0713 L109.3613,607.0713 L109.3613,594.6806 L117.0801,594.6806 L117.0801,596.8369 L111.8145,596.8369 L111.8145,599.5088 L116.5801,599.5088 L116.5801,601.665 L111.8145,601.665 L111.8145,604.915 L117.0801,604.915 L117.0801,607.0713 Z " fill="#000000"/><text fill="#000000" font-family="sans-serif" font-size="14" lengthAdjust="spacing" textLength="28.7998" x="133.4707" y="605.9179">RFQ</text><line style="stroke:#181818;stroke-width:0.5;" x1="8" x2="255.2412" y1="617.0713" y2="617.0713"/><ellipse cx="18" cy="630.7197" fill="#000000" rx="3" ry="3" style="stroke:#000000;stroke-width:1;"/><text fill="#000000" font-family="sans-serif" font-size="14" lengthAdjust="spacing" textLength="83.8496" x="27" y="634.0664">id : int &#171;PK&#187;</text><line style="stroke:#181818;stroke-width:1;" x1="8" x2="255.2412" y1="641.3681" y2="641.3681"/><text fill="#000000" font-family="sans-serif" font-size="14" lengthAdjust="spacing" textLength="213.9854" x="13" y="658.3632">createdTimestamp : DateTime</text><text fill="#000000" font-family="sans-serif" font-size="14" lengthAdjust="spacing" textLength="122.1514" x="13" y="674.6601">clientId : int &#171;FK&#187;</text><text fill="#000000" font-family="sans-serif" font-size="14" lengthAdjust="spacing" textLength="130.0469" x="13" y="690.957">status : RFQStatus</text><text fill="#000000" font-family="sans-serif" font-size="14" lengthAdjust="spacing" textLength="215.3525" x="13" y="707.2539">assignedEmployeeId : int &#171;FK&#187;</text><text fill="#000000" font-family="sans-serif" font-size="14" lengthAdjust="spacing" textLength="214.1357" x="13" y="723.5507">preferredMaterial : string(160)</text><text fill="#000000" font-family="sans-serif" font-size="14" lengthAdjust="spacing" textLength="178.1992" x="13" y="739.8476">description : string(1000)</text><text fill="#000000" font-family="sans-serif" font-size="14" lengthAdjust="spacing" textLength="237.2412" x="13" y="756.1445">renovationType : RenovationType</text><text fill="#000000" font-family="sans-serif" font-size="14" lengthAdjust="spacing" textLength="151.6348" x="13" y="772.4414">budget : decimal(9,2)</text><text fill="#000000" font-family="sans-serif" font-size="14" lengthAdjust="spacing" textLength="196.6563" x="13" y="788.7382">projectAddress : string(160)</text><text fill="#000000" font-family="sans-serif" font-size="14" lengthAdjust="spacing" textLength="148.1143" x="13" y="805.0351">roomSize : RoomSize</text></g><!--class RFQImage--><g class="entity" data-entity="RFQImage" data-source-line="58" data-uid="ent0005" id="entity_RFQImage"><rect fill="#F1F1F1" height="113.1875" rx="5" ry="5" style="stroke:#181818;stroke-width:0.5;" width="237.5313" x="12.85" y="888.6313"/><ellipse cx="91.0429" cy="904.6313" fill="#ADD1B2" rx="11" ry="11" style="stroke:#181818;stroke-width:1;"/><path d="M95.1522,910.6313 L87.4335,910.6313 L87.4335,898.2406 L95.1522,898.2406 L95.1522,900.3969 L89.8866,900.3969 L89.8866,903.0688 L94.6522,903.0688 L94.6522,905.225 L89.8866,905.225 L89.8866,908.475 L95.1522,908.475 L95.1522,910.6313 Z " fill="#000000"/><text fill="#000000" font-family="sans-serif" font-size="14" lengthAdjust="spacing" textLength="72.6455" x="111.5429" y="909.4779">RFQImage</text><line style="stroke:#181818;stroke-width:0.5;" x1="13.85" x2="249.3813" y1="920.6313" y2="920.6313"/><ellipse cx="23.85" cy="934.2797" fill="#000000" rx="3" ry="3" style="stroke:#000000;stroke-width:1;"/><text fill="#000000" font-family="sans-serif" font-size="14" lengthAdjust="spacing" textLength="83.8496" x="32.85" y="937.6264">id : int &#171;PK&#187;</text><line style="stroke:#181818;stroke-width:1;" x1="13.85" x2="249.3813" y1="944.9281" y2="944.9281"/><text fill="#000000" font-family="sans-serif" font-size="14" lengthAdjust="spacing" textLength="225.5313" x="18.85" y="961.9232">uploadedTimestamp : DateTime</text><text fill="#000000" font-family="sans-serif" font-size="14" lengthAdjust="spacing" textLength="117.3047" x="18.85" y="978.2201">imageUri : string</text><text fill="#000000" font-family="sans-serif" font-size="14" lengthAdjust="spacing" textLength="103.2705" x="18.85" y="994.517">rfqId : int &#171;FK&#187;</text></g><!--class ProjectService--><g class="entity" data-entity="ProjectService" data-source-line="66" data-uid="ent0006" id="entity_ProjectService"><rect fill="#F1F1F1" height="243.5625" rx="5" ry="5" style="stroke:#181818;stroke-width:0.5;" width="230.6748" x="1347.28" y="576.9213"/><ellipse cx="1408.2702" cy="592.9213" fill="#ADD1B2" rx="11" ry="11" style="stroke:#181818;stroke-width:1;"/><path d="M1412.3796,598.9213 L1404.6609,598.9213 L1404.6609,586.5306 L1412.3796,586.5306 L1412.3796,588.6869 L1407.114,588.6869 L1407.114,591.3588 L1411.8796,591.3588 L1411.8796,593.515 L1407.114,593.515 L1407.114,596.765 L1412.3796,596.765 L1412.3796,598.9213 Z " fill="#000000"/><text fill="#000000" font-family="sans-serif" font-size="14" lengthAdjust="spacing" textLength="100.1943" x="1428.7702" y="597.7679">ProjectService</text><line style="stroke:#181818;stroke-width:0.5;" x1="1348.28" x2="1576.9548" y1="608.9213" y2="608.9213"/><ellipse cx="1358.28" cy="622.5697" fill="#000000" rx="3" ry="3" style="stroke:#000000;stroke-width:1;"/><text fill="#000000" font-family="sans-serif" font-size="14" lengthAdjust="spacing" textLength="83.8496" x="1367.28" y="625.9164">id : int &#171;PK&#187;</text><line style="stroke:#181818;stroke-width:1;" x1="1348.28" x2="1576.9548" y1="633.2181" y2="633.2181"/><text fill="#000000" font-family="sans-serif" font-size="14" lengthAdjust="spacing" textLength="149.7002" x="1353.28" y="650.2132">status : ProjectStatus</text><text fill="#000000" font-family="sans-serif" font-size="14" lengthAdjust="spacing" textLength="132.5967" x="1353.28" y="666.5101">projectId : int &#171;FK&#187;</text><text fill="#000000" font-family="sans-serif" font-size="14" lengthAdjust="spacing" textLength="144.4912" x="1353.28" y="682.807">name : varchar(255)</text><text fill="#000000" font-family="sans-serif" font-size="14" lengthAdjust="spacing" textLength="119.335" x="1353.28" y="699.1039">description : text</text><text fill="#000000" font-family="sans-serif" font-size="14" lengthAdjust="spacing" textLength="218.6748" x="1353.28" y="715.4007">projectServiceTypeId : int &#171;FK&#187;</text><text fill="#000000" font-family="sans-serif" font-size="14" lengthAdjust="spacing" textLength="185.7324" x="1353.28" y="731.6976">quotePrice : decimal(10,2)</text><text fill="#000000" font-family="sans-serif" font-size="14" lengthAdjust="spacing" textLength="182.458" x="1353.28" y="747.9945">quoteCost : decimal(10,2)</text><text fill="#000000" font-family="sans-serif" font-size="14" lengthAdjust="spacing" textLength="189.8613" x="1353.28" y="764.2914">quoteStartDate : DateTime</text><text fill="#000000" font-family="sans-serif" font-size="14" lengthAdjust="spacing" textLength="182.2666" x="1353.28" y="780.5882">quoteEndDate : DateTime</text><text fill="#000000" font-family="sans-serif" font-size="14" lengthAdjust="spacing" textLength="192.541" x="1353.28" y="796.8851">actualStartDate : DateTime</text><text fill="#000000" font-family="sans-serif" font-size="14" lengthAdjust="spacing" textLength="184.9463" x="1353.28" y="813.182">actualEndDate : DateTime</text></g><!--class ProjectServiceType--><g class="entity" data-entity="ProjectServiceType" data-source-line="82" data-uid="ent0007" id="entity_ProjectServiceType"><rect fill="#F1F1F1" height="96.8906" rx="5" ry="5" style="stroke:#181818;stroke-width:0.5;" width="166.5313" x="1495.35" y="896.7813"/><ellipse cx="1510.35" cy="912.7813" fill="#ADD1B2" rx="11" ry="11" style="stroke:#181818;stroke-width:1;"/><path d="M1514.4594,918.7813 L1506.7406,918.7813 L1506.7406,906.3906 L1514.4594,906.3906 L1514.4594,908.5469 L1509.1938,908.5469 L1509.1938,911.2188 L1513.9594,911.2188 L1513.9594,913.375 L1509.1938,913.375 L1509.1938,916.625 L1514.4594,916.625 L1514.4594,918.7813 Z " fill="#000000"/><text fill="#000000" font-family="sans-serif" font-size="14" lengthAdjust="spacing" textLength="134.5313" x="1524.35" y="917.6279">ProjectServiceType</text><line style="stroke:#181818;stroke-width:0.5;" x1="1496.35" x2="1660.8813" y1="928.7813" y2="928.7813"/><ellipse cx="1506.35" cy="942.4297" fill="#000000" rx="3" ry="3" style="stroke:#000000;stroke-width:1;"/><text fill="#000000" font-family="sans-serif" font-size="14" lengthAdjust="spacing" textLength="83.8496" x="1515.35" y="945.7764">id : int &#171;PK&#187;</text><line style="stroke:#181818;stroke-width:1;" x1="1496.35" x2="1660.8813" y1="953.0781" y2="953.0781"/><text fill="#000000" font-family="sans-serif" font-size="14" lengthAdjust="spacing" textLength="144.4912" x="1501.35" y="970.0732">name : varchar(100)</text><text fill="#000000" font-family="sans-serif" font-size="14" lengthAdjust="spacing" textLength="119.335" x="1501.35" y="986.3701">description : text</text></g><!--class ProjectServiceInvoice--><g class="entity" data-entity="ProjectServiceInvoice" data-source-line="89" data-uid="ent0008" id="entity_ProjectServiceInvoice"><rect fill="#F1F1F1" height="129.4844" rx="5" ry="5" style="stroke:#181818;stroke-width:0.5;" width="227.5781" x="1232.83" y="880.4913"/><ellipse cx="1268.229" cy="896.4913" fill="#ADD1B2" rx="11" ry="11" style="stroke:#181818;stroke-width:1;"/><path d="M1272.3383,902.4913 L1264.6196,902.4913 L1264.6196,890.1006 L1272.3383,890.1006 L1272.3383,892.2569 L1267.0727,892.2569 L1267.0727,894.9288 L1271.8383,894.9288 L1271.8383,897.085 L1267.0727,897.085 L1267.0727,900.335 L1272.3383,900.335 L1272.3383,902.4913 Z " fill="#000000"/><text fill="#000000" font-family="sans-serif" font-size="14" lengthAdjust="spacing" textLength="150.2471" x="1286.7621" y="901.3379">ProjectServiceInvoice</text><line style="stroke:#181818;stroke-width:0.5;" x1="1233.83" x2="1459.4081" y1="912.4913" y2="912.4913"/><ellipse cx="1243.83" cy="926.1397" fill="#000000" rx="3" ry="3" style="stroke:#000000;stroke-width:1;"/><text fill="#000000" font-family="sans-serif" font-size="14" lengthAdjust="spacing" textLength="83.8496" x="1252.83" y="929.4864">id : int &#171;PK&#187;</text><line style="stroke:#181818;stroke-width:1;" x1="1233.83" x2="1459.4081" y1="936.7881" y2="936.7881"/><text fill="#000000" font-family="sans-serif" font-size="14" lengthAdjust="spacing" textLength="215.5781" x="1238.83" y="953.7832">createdTimeStamp : DateTime</text><text fill="#000000" font-family="sans-serif" font-size="14" lengthAdjust="spacing" textLength="184.3379" x="1238.83" y="970.0801">projectServiceId : int &#171;FK&#187;</text><text fill="#000000" font-family="sans-serif" font-size="14" lengthAdjust="spacing" textLength="164.9238" x="1238.83" y="986.377">amount : decimal(10,2)</text><text fill="#000000" font-family="sans-serif" font-size="14" lengthAdjust="spacing" textLength="112.0137" x="1238.83" y="1002.6739">paid : DateTime</text></g><!--class ProjectTask--><g class="entity" data-entity="ProjectTask" data-source-line="98" data-uid="ent0009" id="entity_ProjectTask"><rect fill="#F1F1F1" height="162.0781" rx="5" ry="5" style="stroke:#181818;stroke-width:0.5;" width="225.9854" x="291.63" y="617.6713"/><ellipse cx="359.88" cy="633.6713" fill="#ADD1B2" rx="11" ry="11" style="stroke:#181818;stroke-width:1;"/><path d="M363.9894,639.6713 L356.2706,639.6713 L356.2706,627.2806 L363.9894,627.2806 L363.9894,629.4369 L358.7238,629.4369 L358.7238,632.1088 L363.4894,632.1088 L363.4894,634.265 L358.7238,634.265 L358.7238,637.515 L363.9894,637.515 L363.9894,639.6713 Z " fill="#000000"/><text fill="#000000" font-family="sans-serif" font-size="14" lengthAdjust="spacing" textLength="80.9854" x="380.38" y="638.5179">ProjectTask</text><line style="stroke:#181818;stroke-width:0.5;" x1="292.63" x2="516.6154" y1="649.6713" y2="649.6713"/><ellipse cx="302.63" cy="663.3197" fill="#000000" rx="3" ry="3" style="stroke:#000000;stroke-width:1;"/><text fill="#000000" font-family="sans-serif" font-size="14" lengthAdjust="spacing" textLength="83.8496" x="311.63" y="666.6664">id : int &#171;PK&#187;</text><line style="stroke:#181818;stroke-width:1;" x1="292.63" x2="516.6154" y1="673.9681" y2="673.9681"/><text fill="#000000" font-family="sans-serif" font-size="14" lengthAdjust="spacing" textLength="213.9854" x="297.63" y="690.9632">createdTimestamp : DateTime</text><text fill="#000000" font-family="sans-serif" font-size="14" lengthAdjust="spacing" textLength="132.5967" x="297.63" y="707.2601">projectId : int &#171;FK&#187;</text><text fill="#000000" font-family="sans-serif" font-size="14" lengthAdjust="spacing" textLength="114.2354" x="297.63" y="723.557">userId : int &#171;FK&#187;</text><text fill="#000000" font-family="sans-serif" font-size="14" lengthAdjust="spacing" textLength="68.8652" x="297.63" y="739.8539">title : text</text><text fill="#000000" font-family="sans-serif" font-size="14" lengthAdjust="spacing" textLength="119.335" x="297.63" y="756.1507">description : text</text><text fill="#000000" font-family="sans-serif" font-size="14" lengthAdjust="spacing" textLength="84.5127" x="297.63" y="772.4476">status : text</text></g><!--class ProjectComment--><g class="entity" data-entity="ProjectComment" data-source-line="109" data-uid="ent0010" id="entity_ProjectComment"><rect fill="#F1F1F1" height="129.4844" rx="5" ry="5" style="stroke:#181818;stroke-width:0.5;" width="225.9854" x="1612.63" y="633.9613"/><ellipse cx="1662.8502" cy="649.9613" fill="#ADD1B2" rx="11" ry="11" style="stroke:#181818;stroke-width:1;"/><path d="M1666.9596,655.9613 L1659.2408,655.9613 L1659.2408,643.5706 L1666.9596,643.5706 L1666.9596,645.7269 L1661.694,645.7269 L1661.694,648.3988 L1666.4596,648.3988 L1666.4596,650.555 L1661.694,650.555 L1661.694,653.805 L1666.9596,653.805 L1666.9596,655.9613 Z " fill="#000000"/><text fill="#000000" font-family="sans-serif" font-size="14" lengthAdjust="spacing" textLength="117.0449" x="1683.3502" y="654.8079">ProjectComment</text><line style="stroke:#181818;stroke-width:0.5;" x1="1613.63" x2="1837.6154" y1="665.9613" y2="665.9613"/><ellipse cx="1623.63" cy="679.6097" fill="#000000" rx="3" ry="3" style="stroke:#000000;stroke-width:1;"/><text fill="#000000" font-family="sans-serif" font-size="14" lengthAdjust="spacing" textLength="83.8496" x="1632.63" y="682.9564">id : int &#171;PK&#187;</text><line style="stroke:#181818;stroke-width:1;" x1="1613.63" x2="1837.6154" y1="690.2581" y2="690.2581"/><text fill="#000000" font-family="sans-serif" font-size="14" lengthAdjust="spacing" textLength="108.0078" x="1618.63" y="707.2532">comment : text</text><text fill="#000000" font-family="sans-serif" font-size="14" lengthAdjust="spacing" textLength="213.9854" x="1618.63" y="723.5501">createdTimestamp : DateTime</text><text fill="#000000" font-family="sans-serif" font-size="14" lengthAdjust="spacing" textLength="211.5449" x="1618.63" y="739.847">createdByEmployee : int &#171;FK&#187;</text><text fill="#000000" font-family="sans-serif" font-size="14" lengthAdjust="spacing" textLength="132.5967" x="1618.63" y="756.1439">projectId : int &#171;FK&#187;</text></g><!--class ProjectCommunication--><g class="entity" data-entity="ProjectCommunication" data-source-line="118" data-uid="ent0011" id="entity_ProjectCommunication"><rect fill="#F1F1F1" height="113.1875" rx="5" ry="5" style="stroke:#181818;stroke-width:0.5;" width="225.9854" x="552.63" y="642.1113"/><ellipse cx="583.4639" cy="658.1113" fill="#ADD1B2" rx="11" ry="11" style="stroke:#181818;stroke-width:1;"/><path d="M587.5733,664.1113 L579.8546,664.1113 L579.8546,651.7206 L587.5733,651.7206 L587.5733,653.8769 L582.3077,653.8769 L582.3077,656.5488 L587.0733,656.5488 L587.0733,658.705 L582.3077,658.705 L582.3077,661.955 L587.5733,661.955 L587.5733,664.1113 Z " fill="#000000"/><text fill="#000000" font-family="sans-serif" font-size="14" lengthAdjust="spacing" textLength="158.7988" x="600.9826" y="662.9579">ProjectCommunication</text><line style="stroke:#181818;stroke-width:0.5;" x1="553.63" x2="777.6154" y1="674.1113" y2="674.1113"/><ellipse cx="563.63" cy="687.7597" fill="#000000" rx="3" ry="3" style="stroke:#000000;stroke-width:1;"/><text fill="#000000" font-family="sans-serif" font-size="14" lengthAdjust="spacing" textLength="83.8496" x="572.63" y="691.1064">id : int &#171;PK&#187;</text><line style="stroke:#181818;stroke-width:1;" x1="553.63" x2="777.6154" y1="698.4081" y2="698.4081"/><text fill="#000000" font-family="sans-serif" font-size="14" lengthAdjust="spacing" textLength="213.9854" x="558.63" y="715.4032">createdTimestamp : DateTime</text><text fill="#000000" font-family="sans-serif" font-size="14" lengthAdjust="spacing" textLength="104.4121" x="558.63" y="731.7001">message : text</text><text fill="#000000" font-family="sans-serif" font-size="14" lengthAdjust="spacing" textLength="132.5967" x="558.63" y="747.997">projectId : int &#171;FK&#187;</text></g><!--class ProjectFile--><g class="entity" data-entity="ProjectFile" data-source-line="126" data-uid="ent0012" id="entity_ProjectFile"><rect fill="#F1F1F1" height="145.7813" rx="5" ry="5" style="stroke:#181818;stroke-width:0.5;" width="237.5313" x="813.85" y="625.8113"/><ellipse cx="891.9164" cy="641.8113" fill="#ADD1B2" rx="11" ry="11" style="stroke:#181818;stroke-width:1;"/><path d="M896.0258,647.8113 L888.307,647.8113 L888.307,635.4206 L896.0258,635.4206 L896.0258,637.5769 L890.7602,637.5769 L890.7602,640.2488 L895.5258,640.2488 L895.5258,642.405 L890.7602,642.405 L890.7602,645.655 L896.0258,645.655 L896.0258,647.8113 Z " fill="#000000"/><text fill="#000000" font-family="sans-serif" font-size="14" lengthAdjust="spacing" textLength="72.8984" x="912.4164" y="646.6579">ProjectFile</text><line style="stroke:#181818;stroke-width:0.5;" x1="814.85" x2="1050.3813" y1="657.8113" y2="657.8113"/><ellipse cx="824.85" cy="671.4597" fill="#000000" rx="3" ry="3" style="stroke:#000000;stroke-width:1;"/><text fill="#000000" font-family="sans-serif" font-size="14" lengthAdjust="spacing" textLength="83.8496" x="833.85" y="674.8064">id : int &#171;PK&#187;</text><line style="stroke:#181818;stroke-width:1;" x1="814.85" x2="1050.3813" y1="682.1081" y2="682.1081"/><text fill="#000000" font-family="sans-serif" font-size="14" lengthAdjust="spacing" textLength="225.5313" x="819.85" y="699.1032">uploadedTimestamp : DateTime</text><text fill="#000000" font-family="sans-serif" font-size="14" lengthAdjust="spacing" textLength="82.708" x="819.85" y="715.4001">fileUri : text</text><text fill="#000000" font-family="sans-serif" font-size="14" lengthAdjust="spacing" textLength="104.1182" x="819.85" y="731.697">fileName : text</text><text fill="#000000" font-family="sans-serif" font-size="14" lengthAdjust="spacing" textLength="103.6738" x="819.85" y="747.9939">type : FileType</text><text fill="#000000" font-family="sans-serif" font-size="14" lengthAdjust="spacing" textLength="132.5967" x="819.85" y="764.2907">projectId : int &#171;FK&#187;</text></g><!--class ClientInvoice--><g class="entity" data-entity="ClientInvoice" data-source-line="136" data-uid="ent0013" id="entity_ClientInvoice"><rect fill="#F1F1F1" height="162.0781" rx="5" ry="5" style="stroke:#181818;stroke-width:0.5;" width="225.9854" x="1086.63" y="617.6713"/><ellipse cx="1150.0812" cy="633.6713" fill="#ADD1B2" rx="11" ry="11" style="stroke:#181818;stroke-width:1;"/><path d="M1154.1905,639.6713 L1146.4718,639.6713 L1146.4718,627.2806 L1154.1905,627.2806 L1154.1905,629.4369 L1148.9249,629.4369 L1148.9249,632.1088 L1153.6905,632.1088 L1153.6905,634.265 L1148.9249,634.265 L1148.9249,637.515 L1154.1905,637.515 L1154.1905,639.6713 Z " fill="#000000"/><text fill="#000000" font-family="sans-serif" font-size="14" lengthAdjust="spacing" textLength="90.583" x="1170.5812" y="638.5179">ClientInvoice</text><line style="stroke:#181818;stroke-width:0.5;" x1="1087.63" x2="1311.6154" y1="649.6713" y2="649.6713"/><ellipse cx="1097.63" cy="663.3197" fill="#000000" rx="3" ry="3" style="stroke:#000000;stroke-width:1;"/><text fill="#000000" font-family="sans-serif" font-size="14" lengthAdjust="spacing" textLength="83.8496" x="1106.63" y="666.6664">id : int &#171;PK&#187;</text><line style="stroke:#181818;stroke-width:1;" x1="1087.63" x2="1311.6154" y1="673.9681" y2="673.9681"/><text fill="#000000" font-family="sans-serif" font-size="14" lengthAdjust="spacing" textLength="213.9854" x="1092.63" y="690.9632">createdTimestamp : DateTime</text><text fill="#000000" font-family="sans-serif" font-size="14" lengthAdjust="spacing" textLength="119.335" x="1092.63" y="707.2601">description : text</text><text fill="#000000" font-family="sans-serif" font-size="14" lengthAdjust="spacing" textLength="186.0811" x="1092.63" y="723.557">paymentInstructions : text</text><text fill="#000000" font-family="sans-serif" font-size="14" lengthAdjust="spacing" textLength="112.0137" x="1092.63" y="739.8539">paid : DateTime</text><text fill="#000000" font-family="sans-serif" font-size="14" lengthAdjust="spacing" textLength="122.8281" x="1092.63" y="756.1507">amount : decimal</text><text fill="#000000" font-family="sans-serif" font-size="14" lengthAdjust="spacing" textLength="132.5967" x="1092.63" y="772.4476">projectId : int &#171;FK&#187;</text></g><!--link User to Project--><g class="link" data-entity-1="User" data-entity-2="Project" data-source-line="150" data-uid="lnk14" id="link_User_Project"><path codeLine="150" d="M571.77,254.1113 C571.77,273.5413 571.77,268.0313 571.77,287.7213" fill="none" id="User-Project" style="stroke:#666666;stroke-width:1;"/><line style="stroke:#666666;stroke-width:1;" x1="567.77" x2="575.77" y1="250.1113" y2="250.1113"/><line style="stroke:#666666;stroke-width:1;" x1="567.77" x2="575.77" y1="253.1113" y2="253.1113"/><line style="stroke:#666666;stroke-width:1;" x1="571.77" x2="571.77" y1="254.1113" y2="246.1113"/><line style="stroke:#666666;stroke-width:1;" x1="571.77" x2="577.77" y1="297.7213" y2="305.7213"/><line style="stroke:#666666;stroke-width:1;" x1="571.77" x2="565.77" y1="297.7213" y2="305.7213"/><line style="stroke:#666666;stroke-width:1;" x1="571.77" x2="571.77" y1="297.7213" y2="305.7213"/><ellipse cx="571.77" cy="291.7213" fill="none" rx="4" ry="4" style="stroke:#666666;stroke-width:1;"/></g><!--link User to Project--><g class="link" data-entity-1="User" data-entity-2="Project" data-source-line="156" data-uid="lnk18" id="link_User_Project"><path codeLine="156" d="M624.69,254.1113 C624.69,273.5413 624.69,268.0313 624.69,287.7213" fill="none" id="User-Project-1" style="stroke:#666666;stroke-width:1;"/><line style="stroke:#666666;stroke-width:1;" x1="620.69" x2="628.69" y1="250.1113" y2="250.1113"/><line style="stroke:#666666;stroke-width:1;" x1="620.69" x2="628.69" y1="253.1113" y2="253.1113"/><line style="stroke:#666666;stroke-width:1;" x1="624.69" x2="624.69" y1="254.1113" y2="246.1113"/><line style="stroke:#666666;stroke-width:1;" x1="624.69" x2="630.69" y1="297.7213" y2="305.7213"/><line style="stroke:#666666;stroke-width:1;" x1="624.69" x2="618.69" y1="297.7213" y2="305.7213"/><line style="stroke:#666666;stroke-width:1;" x1="624.69" x2="624.69" y1="297.7213" y2="305.7213"/><ellipse cx="624.69" cy="291.7213" fill="none" rx="4" ry="4" style="stroke:#666666;stroke-width:1;"/></g><!--link User to ProjectComment--><g class="link" data-entity-1="User" data-entity-2="ProjectComment" data-source-line="151" data-uid="lnk15" id="link_User_ProjectComment"><path codeLine="151" d="M685.93,148.9713 C984.73,148.9713 1763.28,148.9713 1763.28,148.9713 C1763.28,148.9713 1763.28,469.8613 1763.28,615.4813" fill="none" id="User-ProjectComment" style="stroke:#666666;stroke-width:1;"/><line style="stroke:#666666;stroke-width:1;" x1="681.93" x2="681.93" y1="152.9713" y2="144.9713"/><line style="stroke:#666666;stroke-width:1;" x1="684.93" x2="684.93" y1="152.9713" y2="144.9713"/><line style="stroke:#666666;stroke-width:1;" x1="685.93" x2="677.93" y1="148.9713" y2="148.9713"/><line style="stroke:#666666;stroke-width:1;" x1="1763.28" x2="1769.28" y1="625.4813" y2="633.4813"/><line style="stroke:#666666;stroke-width:1;" x1="1763.28" x2="1757.28" y1="625.4813" y2="633.4813"/><line style="stroke:#666666;stroke-width:1;" x1="1763.28" x2="1763.28" y1="625.4813" y2="633.4813"/><ellipse cx="1763.28" cy="619.4813" fill="none" rx="4" ry="4" style="stroke:#666666;stroke-width:1;"/></g><!--link User to ProjectTask--><g class="link" data-entity-1="User" data-entity-2="ProjectTask" data-source-line="152" data-uid="lnk16" id="link_User_ProjectTask"><path codeLine="152" d="M501.12,254.3313 C501.12,360.0713 501.12,500.7713 501.12,599.5613" fill="none" id="User-ProjectTask" style="stroke:#666666;stroke-width:1;"/><line style="stroke:#666666;stroke-width:1;" x1="497.12" x2="505.12" y1="250.3313" y2="250.3313"/><line style="stroke:#666666;stroke-width:1;" x1="497.12" x2="505.12" y1="253.3313" y2="253.3313"/><line style="stroke:#666666;stroke-width:1;" x1="501.12" x2="501.12" y1="254.3313" y2="246.3313"/><line style="stroke:#666666;stroke-width:1;" x1="501.12" x2="507.12" y1="609.5613" y2="617.5613"/><line style="stroke:#666666;stroke-width:1;" x1="501.12" x2="495.12" y1="609.5613" y2="617.5613"/><line style="stroke:#666666;stroke-width:1;" x1="501.12" x2="501.12" y1="609.5613" y2="617.5613"/><ellipse cx="501.12" cy="603.5613" fill="none" rx="4" ry="4" style="stroke:#666666;stroke-width:1;"/></g><!--link User to RFQ--><g class="link" data-entity-1="User" data-entity-2="RFQ" data-source-line="153" data-uid="lnk17" id="link_User_RFQ"><path codeLine="153" d="M468.12,254.3513 C468.12,385.4513 468.12,593.9713 468.12,593.9713 C468.12,593.9713 370.21,593.9713 274.44,593.9713" fill="none" id="User-RFQ" style="stroke:#666666;stroke-width:1;"/><line style="stroke:#666666;stroke-width:1;" x1="464.12" x2="472.12" y1="250.3513" y2="250.3513"/><line style="stroke:#666666;stroke-width:1;" x1="464.12" x2="472.12" y1="253.3513" y2="253.3513"/><line style="stroke:#666666;stroke-width:1;" x1="468.12" x2="468.12" y1="254.3513" y2="246.3513"/><line style="stroke:#666666;stroke-width:1;" x1="264.44" x2="256.44" y1="593.9713" y2="599.9713"/><line style="stroke:#666666;stroke-width:1;" x1="264.44" x2="256.44" y1="593.9713" y2="587.9713"/><line style="stroke:#666666;stroke-width:1;" x1="264.44" x2="256.44" y1="593.9713" y2="593.9713"/><ellipse cx="270.44" cy="593.9713" fill="none" rx="4" ry="4" style="stroke:#666666;stroke-width:1;"/></g><!--link User to RFQ--><g class="link" data-entity-1="User" data-entity-2="RFQ" data-source-line="157" data-uid="lnk19" id="link_User_RFQ"><path codeLine="157" d="M484.62,254.4313 C484.62,387.7013 484.62,601.9713 484.62,601.9713 C484.62,601.9713 376.12,601.9713 274.57,601.9713" fill="none" id="User-RFQ-1" style="stroke:#666666;stroke-width:1;"/><line style="stroke:#666666;stroke-width:1;" x1="480.62" x2="488.62" y1="250.4313" y2="250.4313"/><line style="stroke:#666666;stroke-width:1;" x1="480.62" x2="488.62" y1="253.4313" y2="253.4313"/><line style="stroke:#666666;stroke-width:1;" x1="484.62" x2="484.62" y1="254.4313" y2="246.4313"/><line style="stroke:#666666;stroke-width:1;" x1="264.57" x2="256.57" y1="601.9713" y2="607.9713"/><line style="stroke:#666666;stroke-width:1;" x1="264.57" x2="256.57" y1="601.9713" y2="595.9713"/><line style="stroke:#666666;stroke-width:1;" x1="264.57" x2="256.57" y1="601.9713" y2="601.9713"/><ellipse cx="270.57" cy="601.9713" fill="none" rx="4" ry="4" style="stroke:#666666;stroke-width:1;"/></g><!--link Project to ProjectComment--><g class="link" data-entity-1="Project" data-entity-2="ProjectComment" data-source-line="160" data-uid="lnk20" id="link_Project_ProjectComment"><path codeLine="160" d="M820.64,411.9713 C1103.54,411.9713 1687.96,411.9713 1687.96,411.9713 C1687.96,411.9713 1687.96,531.0413 1687.96,615.6413" fill="none" id="Project-ProjectComment" style="stroke:#666666;stroke-width:1;"/><line style="stroke:#666666;stroke-width:1;" x1="816.64" x2="816.64" y1="415.9713" y2="407.9713"/><line style="stroke:#666666;stroke-width:1;" x1="819.64" x2="819.64" y1="415.9713" y2="407.9713"/><line style="stroke:#666666;stroke-width:1;" x1="820.64" x2="812.64" y1="411.9713" y2="411.9713"/><line style="stroke:#666666;stroke-width:1;" x1="1687.96" x2="1693.96" y1="625.6413" y2="633.6413"/><line style="stroke:#666666;stroke-width:1;" x1="1687.96" x2="1681.96" y1="625.6413" y2="633.6413"/><line style="stroke:#666666;stroke-width:1;" x1="1687.96" x2="1687.96" y1="625.6413" y2="633.6413"/><ellipse cx="1687.96" cy="619.6413" fill="none" rx="4" ry="4" style="stroke:#666666;stroke-width:1;"/></g><!--link Project to ProjectFile--><g class="link" data-entity-1="Project" data-entity-2="ProjectFile" data-source-line="161" data-uid="lnk21" id="link_Project_ProjectFile"><path codeLine="161" d="M787.06,525.1613 C787.06,582.5813 787.06,633.9713 787.06,633.9713 C787.06,633.9713 779.79,633.9713 795.42,633.9713" fill="none" id="Project-ProjectFile" style="stroke:#666666;stroke-width:1;"/><line style="stroke:#666666;stroke-width:1;" x1="783.06" x2="791.06" y1="521.1613" y2="521.1613"/><line style="stroke:#666666;stroke-width:1;" x1="783.06" x2="791.06" y1="524.1613" y2="524.1613"/><line style="stroke:#666666;stroke-width:1;" x1="787.06" x2="787.06" y1="525.1613" y2="517.1613"/><line style="stroke:#666666;stroke-width:1;" x1="805.42" x2="813.42" y1="633.9713" y2="627.9713"/><line style="stroke:#666666;stroke-width:1;" x1="805.42" x2="813.42" y1="633.9713" y2="639.9713"/><line style="stroke:#666666;stroke-width:1;" x1="805.42" x2="813.42" y1="633.9713" y2="633.9713"/><ellipse cx="799.42" cy="633.9713" fill="none" rx="4" ry="4" style="stroke:#666666;stroke-width:1;"/></g><!--link Project to ProjectCommunication--><g class="link" data-entity-1="Project" data-entity-2="ProjectCommunication" data-source-line="162" data-uid="lnk22" id="link_Project_ProjectCommunication"><path codeLine="162" d="M665.62,525.1813 C665.62,567.4213 665.62,588.3613 665.62,623.9213" fill="none" id="Project-ProjectCommunication" style="stroke:#666666;stroke-width:1;"/><line style="stroke:#666666;stroke-width:1;" x1="661.62" x2="669.62" y1="521.1813" y2="521.1813"/><line style="stroke:#666666;stroke-width:1;" x1="661.62" x2="669.62" y1="524.1813" y2="524.1813"/><line style="stroke:#666666;stroke-width:1;" x1="665.62" x2="665.62" y1="525.1813" y2="517.1813"/><line style="stroke:#666666;stroke-width:1;" x1="665.62" x2="671.62" y1="633.9213" y2="641.9213"/><line style="stroke:#666666;stroke-width:1;" x1="665.62" x2="659.62" y1="633.9213" y2="641.9213"/><line style="stroke:#666666;stroke-width:1;" x1="665.62" x2="665.62" y1="633.9213" y2="641.9213"/><ellipse cx="665.62" cy="627.9213" fill="none" rx="4" ry="4" style="stroke:#666666;stroke-width:1;"/></g><!--link Project to ClientInvoice--><g class="link" data-entity-1="Project" data-entity-2="ClientInvoice" data-source-line="163" data-uid="lnk23" id="link_Project_ClientInvoice"><path codeLine="163" d="M795.5,525.1313 C795.5,577.2013 795.5,620.9713 795.5,620.9713 C795.5,620.9713 948.71,620.9713 1068.25,620.9713" fill="none" id="Project-ClientInvoice" style="stroke:#666666;stroke-width:1;"/><line style="stroke:#666666;stroke-width:1;" x1="791.5" x2="799.5" y1="521.1313" y2="521.1313"/><line style="stroke:#666666;stroke-width:1;" x1="791.5" x2="799.5" y1="524.1313" y2="524.1313"/><line style="stroke:#666666;stroke-width:1;" x1="795.5" x2="795.5" y1="525.1313" y2="517.1313"/><line style="stroke:#666666;stroke-width:1;" x1="1078.25" x2="1086.25" y1="620.9713" y2="614.9713"/><line style="stroke:#666666;stroke-width:1;" x1="1078.25" x2="1086.25" y1="620.9713" y2="626.9713"/><line style="stroke:#666666;stroke-width:1;" x1="1078.25" x2="1086.25" y1="620.9713" y2="620.9713"/><ellipse cx="1072.25" cy="620.9713" fill="none" rx="4" ry="4" style="stroke:#666666;stroke-width:1;"/></g><!--link Project to ProjectService--><g class="link" data-entity-1="Project" data-entity-2="ProjectService" data-source-line="164" data-uid="lnk24" id="link_Project_ProjectService"><path codeLine="164" d="M803.95,525.0113 C803.95,559.9013 803.95,581.9713 803.95,581.9713 C803.95,581.9713 1140.23,581.9713 1329.14,581.9713" fill="none" id="Project-ProjectService" style="stroke:#666666;stroke-width:1;"/><line style="stroke:#666666;stroke-width:1;" x1="799.95" x2="807.95" y1="521.0113" y2="521.0113"/><line style="stroke:#666666;stroke-width:1;" x1="799.95" x2="807.95" y1="524.0113" y2="524.0113"/><line style="stroke:#666666;stroke-width:1;" x1="803.95" x2="803.95" y1="525.0113" y2="517.0113"/><line style="stroke:#666666;stroke-width:1;" x1="1339.14" x2="1347.14" y1="581.9713" y2="575.9713"/><line style="stroke:#666666;stroke-width:1;" x1="1339.14" x2="1347.14" y1="581.9713" y2="587.9713"/><line style="stroke:#666666;stroke-width:1;" x1="1339.14" x2="1347.14" y1="581.9713" y2="581.9713"/><ellipse cx="1333.14" cy="581.9713" fill="none" rx="4" ry="4" style="stroke:#666666;stroke-width:1;"/></g><!--link Project to ProjectTask--><g class="link" data-entity-1="Project" data-entity-2="ProjectTask" data-source-line="165" data-uid="lnk25" id="link_Project_ProjectTask"><path codeLine="165" d="M541.37,525.3913 C541.37,578.6313 541.37,623.9713 541.37,623.9713 C541.37,623.9713 549.86,623.9713 535.86,623.9713" fill="none" id="Project-ProjectTask" style="stroke:#666666;stroke-width:1;"/><line style="stroke:#666666;stroke-width:1;" x1="537.37" x2="545.37" y1="521.3913" y2="521.3913"/><line style="stroke:#666666;stroke-width:1;" x1="537.37" x2="545.37" y1="524.3913" y2="524.3913"/><line style="stroke:#666666;stroke-width:1;" x1="541.37" x2="541.37" y1="525.3913" y2="517.3913"/><line style="stroke:#666666;stroke-width:1;" x1="525.86" x2="517.86" y1="623.9713" y2="629.9713"/><line style="stroke:#666666;stroke-width:1;" x1="525.86" x2="517.86" y1="623.9713" y2="617.9713"/><line style="stroke:#666666;stroke-width:1;" x1="525.86" x2="517.86" y1="623.9713" y2="623.9713"/><ellipse cx="531.86" cy="623.9713" fill="none" rx="4" ry="4" style="stroke:#666666;stroke-width:1;"/></g><!--link Project to RFQ--><g class="link" data-entity-1="Project" data-entity-2="RFQ" data-source-line="166" data-uid="lnk26" id="link_Project_RFQ"><path codeLine="166" d="M530.11,525.3913 C530.11,572.7013 530.11,609.9713 530.11,609.9713 C530.11,609.9713 388.47,609.9713 271.61,609.9713" fill="none" id="Project-RFQ" style="stroke:#666666;stroke-width:1;"/><line style="stroke:#666666;stroke-width:1;" x1="526.11" x2="534.11" y1="521.3913" y2="521.3913"/><line style="stroke:#666666;stroke-width:1;" x1="526.11" x2="534.11" y1="524.3913" y2="524.3913"/><line style="stroke:#666666;stroke-width:1;" x1="530.11" x2="530.11" y1="525.3913" y2="517.3913"/><line style="stroke:#666666;stroke-width:1;" x1="267.61" x2="256.61" y1="609.9713" y2="609.9713"/><ellipse cx="267.61" cy="609.9713" fill="none" rx="4" ry="4" style="stroke:#666666;stroke-width:1;"/><line style="stroke:#666666;stroke-width:1;" x1="260.61" x2="260.61" y1="613.9713" y2="605.9713"/></g><!--link RFQ to RFQImage--><g class="link" data-entity-1="RFQ" data-entity-2="RFQImage" data-source-line="169" data-uid="lnk27" id="link_RFQ_RFQImage"><path codeLine="169" d="M131.62,820.5913 C131.62,846.8313 131.62,847.6413 131.62,870.2313" fill="none" id="RFQ-RFQImage" style="stroke:#666666;stroke-width:1;"/><line style="stroke:#666666;stroke-width:1;" x1="127.62" x2="135.62" y1="816.5913" y2="816.5913"/><line style="stroke:#666666;stroke-width:1;" x1="127.62" x2="135.62" y1="819.5913" y2="819.5913"/><line style="stroke:#666666;stroke-width:1;" x1="131.62" x2="131.62" y1="820.5913" y2="812.5913"/><line style="stroke:#666666;stroke-width:1;" x1="131.62" x2="137.62" y1="880.2313" y2="888.2313"/><line style="stroke:#666666;stroke-width:1;" x1="131.62" x2="125.62" y1="880.2313" y2="888.2313"/><line style="stroke:#666666;stroke-width:1;" x1="131.62" x2="131.62" y1="880.2313" y2="888.2313"/><ellipse cx="131.62" cy="874.2313" fill="none" rx="4" ry="4" style="stroke:#666666;stroke-width:1;"/></g><!--link ProjectService to ProjectServiceInvoice--><g class="link" data-entity-1="ProjectService" data-entity-2="ProjectServiceInvoice" data-source-line="172" data-uid="lnk28" id="link_ProjectService_ProjectServiceInvoice"><path codeLine="172" d="M1403.85,828.8813 C1403.85,849.3413 1403.85,843.8513 1403.85,862.1313" fill="none" id="ProjectService-ProjectServiceInvoice" style="stroke:#666666;stroke-width:1;"/><line style="stroke:#666666;stroke-width:1;" x1="1399.85" x2="1407.85" y1="824.8813" y2="824.8813"/><line style="stroke:#666666;stroke-width:1;" x1="1399.85" x2="1407.85" y1="827.8813" y2="827.8813"/><line style="stroke:#666666;stroke-width:1;" x1="1403.85" x2="1403.85" y1="828.8813" y2="820.8813"/><line style="stroke:#666666;stroke-width:1;" x1="1403.85" x2="1409.85" y1="872.1313" y2="880.1313"/><line style="stroke:#666666;stroke-width:1;" x1="1403.85" x2="1397.85" y1="872.1313" y2="880.1313"/><line style="stroke:#666666;stroke-width:1;" x1="1403.85" x2="1403.85" y1="872.1313" y2="880.1313"/><ellipse cx="1403.85" cy="866.1313" fill="none" rx="4" ry="4" style="stroke:#666666;stroke-width:1;"/></g><!--link ProjectService to ProjectServiceType--><g class="link" data-entity-1="ProjectService" data-entity-2="ProjectServiceType" data-source-line="173" data-uid="lnk29" id="link_ProjectService_ProjectServiceType"><path codeLine="173" d="M1536.66,838.8813 C1536.66,865.6413 1536.66,866.4713 1536.66,888.3113" fill="none" id="ProjectService-ProjectServiceType" style="stroke:#666666;stroke-width:1;"/><line style="stroke:#666666;stroke-width:1;" x1="1536.66" x2="1530.66" y1="828.8813" y2="820.8813"/><line style="stroke:#666666;stroke-width:1;" x1="1536.66" x2="1542.66" y1="828.8813" y2="820.8813"/><line style="stroke:#666666;stroke-width:1;" x1="1536.66" x2="1536.66" y1="828.8813" y2="820.8813"/><ellipse cx="1536.66" cy="834.8813" fill="none" rx="4" ry="4" style="stroke:#666666;stroke-width:1;"/><line style="stroke:#666666;stroke-width:1;" x1="1540.66" x2="1532.66" y1="892.3113" y2="892.3113"/><line style="stroke:#666666;stroke-width:1;" x1="1540.66" x2="1532.66" y1="889.3113" y2="889.3113"/><line style="stroke:#666666;stroke-width:1;" x1="1536.66" x2="1536.66" y1="888.3113" y2="896.3113"/></g><!--SRC=[fLPTJzim57tFhx2s1s1QfHODf264nFYOq3JeQFa1RdnfFP8us4vPH_dlktQSr6cSCAaybFWS-tuStsjxZqpqAk7PF59FFCkff2d18UXL3aH8lH0UCQFnqroA8cCN8X6Il2ou1e-tL2na1fACXXwX5fI95_H27ccY_2NdKegNqjh7O_ldaN52bReMcPxmlq16Npmgnr3e7CAavZhPK8V3ADeZKuD5bY7ta8abrLnavtbE1kGgGto5S691jU0vkUHqZhRCKajpK544vSGF3mha1q8LCH_aDIBa4-6Cd12UQN9wElvnTeROO80_jD0Bioosfk_ihEy5PqZ54gW6DkKfA4tJ79bB1CmOsOocWCYIodX1vVxXqT61CSUO1ANQX1I9cMu2kiTFH22bF458QMdsbv1y8JAuBT8Pnkp11IwvBPqvx6sJwLYAtn1hcwpxxi-tFod7VbjTfNaYLW2rZUlIHfnmT7t3jd7v-Dm6qO4kZ1OkieaT8y7Lk9WbF4Pg9aI2o7CXD8mbZ-5k2L9oPZmpY7bAa_tHyFFXGJLf4Y-05GcWCQczoLuMZNbN6GlDyZIyl_vbzSF_EsdN8Ksj0jgl5S36uVCCMALpUrakuH731lOJNKXEDwMoFpeU6ZaOg5ZotDIjnms7bfHr3qtDKN7YDPK1SCQiO7FGdinVIvNpShFEwqfkUfL2fBPlqQJxt1Bp9iNEhnIrWtvP2vI0iavTkR7m8BdV4u5oQpV51EGI2yhl3GVrnzDPjawPzbw5puBc_cZuepSsN21cAzhcDitGrGGNGkdE1Z6DOVGBD0KsGvkXiIveqh6i90FhElKsEGKqjsNOg_kMYgFXi4F5JjStsLA4Tzmn_ztVatOTDdUklMiqnUirj2ivjVvwb9jIzUG7RSQx74MTXMhkaZPQthfrYGRhjcwAZXsu46cAa9-5Wzv9n4sg7UruGNMa7WwuoDozlnrsJUoo2mWgS_Xjz_xxiLtpf574PhpJ6Vg81ieZr8LY0FUeS8WkhmdZobqGxuTxKLvvNjSra5t42n-UT9LQytWH5B5z2_faiytQ7TcRqrxZVQaCO5-FqaVDOzGLNcJPzNem4A_LFeKmrmKXohHv0yVxijDlgUoxNfs9wYtOi19LQ3Z2C6iAecTXtIdRSngLq670dQKTh9MdGQshzCnJhPcQGJOIs5U7fqDrxmVbgCXWR5i9L7FVn62mNWUkk7y0]--></g></svg>