<svg xmlns="http://www.w3.org/2000/svg" xmlns:xlink="http://www.w3.org/1999/xlink" contentStyleType="text/css" data-diagram-type="ACTIVITY" height="1554px" preserveAspectRatio="none" style="width:2842px;height:1554px;background:#1B1B1B;" version="1.1" viewBox="0 0 2842 1554" width="2842px" zoomAndPan="magnify"><defs/><g><rect fill="#1B1B1B" height="1554" style="stroke:none;stroke-width:1;" width="2842" x="0" y="0"/><rect fill="none" height="20.9531" style="stroke:none;stroke-width:1;" width="2809.3406" x="15" y="12.7451"/><ellipse cx="374.8071" cy="48.6982" fill="#DDDDDD" rx="10" ry="10" style="stroke:#DDDDDD;stroke-width:1;"/><rect fill="#313139" height="33.9688" rx="12.5" ry="12.5" style="stroke:#E7E7E7;stroke-width:0.5;" width="155.0938" x="297.2603" y="78.6982"/><text fill="#FFFFFF" font-family="sans-serif" font-size="12" lengthAdjust="spacing" textLength="135.0938" x="307.2603" y="99.8369">Navigate to public site</text><rect fill="#313139" height="33.9688" rx="12.5" ry="12.5" style="stroke:#E7E7E7;stroke-width:0.5;" width="60.9277" x="344.3433" y="132.667"/><text fill="#FFFFFF" font-family="sans-serif" font-size="12" lengthAdjust="spacing" textLength="40.9277" x="354.3433" y="153.8057">Sign in</text><rect fill="#313139" height="33.9688" rx="12.5" ry="12.5" style="stroke:#E7E7E7;stroke-width:0.5;" width="151.9707" x="298.8218" y="186.6357"/><text fill="#FFFFFF" font-family="sans-serif" font-size="12" lengthAdjust="spacing" textLength="131.9707" x="308.8218" y="207.7744">Navigate to RFQ page</text><rect fill="#313139" height="47.9375" rx="12.5" ry="12.5" style="stroke:#E7E7E7;stroke-width:0.5;" width="207.043" x="271.2856" y="240.6045"/><text fill="#FFFFFF" font-family="sans-serif" font-size="12" lengthAdjust="spacing" textLength="187.043" x="281.2856" y="261.7432">Complete form, attach images,</text><text fill="#FFFFFF" font-family="sans-serif" font-size="12" lengthAdjust="spacing" textLength="77.0215" x="281.2856" y="275.7119">submit form.</text><rect fill="#313139" height="33.9688" rx="12.5" ry="12.5" style="stroke:#E7E7E7;stroke-width:0.5;" width="101.2402" x="21" y="531.7075"/><text fill="#FFFFFF" font-family="sans-serif" font-size="12" lengthAdjust="spacing" textLength="81.2402" x="31" y="552.8462">RFQ Rejected</text><ellipse cx="71.6201" cy="609.645" fill="none" rx="10" ry="10" style="stroke:#DDDDDD;stroke-width:1.5;"/><line style="stroke:#DDDDDD;stroke-width:2.5;" x1="65.4329" x2="77.8073" y1="603.4578" y2="615.8322"/><line style="stroke:#DDDDDD;stroke-width:2.5;" x1="77.8073" x2="65.4329" y1="603.4578" y2="615.8322"/><rect fill="#313139" height="33.9688" rx="12.5" ry="12.5" style="stroke:#E7E7E7;stroke-width:0.5;" width="181.2266" x="627.751" y="1004.7788"/><text fill="#FFFFFF" font-family="sans-serif" font-size="12" lengthAdjust="spacing" textLength="161.2266" x="637.751" y="1025.9175">Review Quote details page</text><polygon fill="#313139" points="676.4805,1058.7476,760.248,1058.7476,772.248,1070.7476,760.248,1082.7476,676.4805,1082.7476,664.4805,1070.7476,676.4805,1058.7476" style="stroke:#E7E7E7;stroke-width:0.5;"/><text fill="#FFFFFF" font-family="sans-serif" font-size="11" lengthAdjust="spacing" textLength="83.7676" x="676.4805" y="1074.5557">Quote Decision</text><text fill="#FFFFFF" font-family="sans-serif" font-size="11" lengthAdjust="spacing" textLength="96.4863" x="567.9941" y="1068.1533">Status = rejected</text><text fill="#FFFFFF" font-family="sans-serif" font-size="11" lengthAdjust="spacing" textLength="44.4512" x="772.248" y="1068.1533">Proceed</text><rect fill="#313139" height="33.9688" rx="12.5" ry="12.5" style="stroke:#E7E7E7;stroke-width:0.5;" width="113.0352" x="132.2402" y="1102.7476"/><text fill="#FFFFFF" font-family="sans-serif" font-size="12" lengthAdjust="spacing" textLength="93.0352" x="142.2402" y="1123.8862">Quote Rejected</text><ellipse cx="188.7578" cy="1166.7163" fill="none" rx="10" ry="10" style="stroke:#DDDDDD;stroke-width:1.5;"/><line style="stroke:#DDDDDD;stroke-width:2.5;" x1="182.5706" x2="194.945" y1="1160.5291" y2="1172.9035"/><line style="stroke:#DDDDDD;stroke-width:2.5;" x1="194.945" x2="182.5706" y1="1160.5291" y2="1172.9035"/><line style="stroke:#E7E7E7;stroke-width:1.5;" x1="367.9756" x2="742.6045" y1="1257.8726" y2="1257.8726"/><rect fill="#313139" height="57.9375" rx="12.5" ry="12.5" style="stroke:#E7E7E7;stroke-width:0.5;" width="225.4004" x="255.2754" y="1286.3569"/><text fill="#FFFFFF" font-family="sans-serif" font-size="12" lengthAdjust="spacing" textLength="3.8145" x="265.2754" y="1307.4956">&#160;</text><text fill="#FFFFFF" font-family="sans-serif" font-size="12" font-weight="bold" lengthAdjust="spacing" textLength="84.0176" x="269.0898" y="1307.4956">Projects List</text><line style="stroke:#E7E7E7;stroke-width:1;" x1="255.2754" x2="480.6758" y1="1315.3257" y2="1315.3257"/><ellipse cx="270.7754" cy="1326.7944" fill="#FFFFFF" rx="2.5" ry="2.5"/><text fill="#FFFFFF" font-family="sans-serif" font-size="12" lengthAdjust="spacing" textLength="193.4004" x="277.2754" y="1331.4644">All active and complete projects</text><rect fill="#313139" height="71.9063" rx="12.5" ry="12.5" style="stroke:#E7E7E7;stroke-width:0.5;" width="148.3965" x="491.0459" y="1279.3726"/><text fill="#FFFFFF" font-family="sans-serif" font-size="12" lengthAdjust="spacing" textLength="3.8145" x="501.0459" y="1300.5112">&#160;</text><text fill="#FFFFFF" font-family="sans-serif" font-size="12" font-weight="bold" lengthAdjust="spacing" textLength="124.582" x="504.8604" y="1300.5112">Project Homepage</text><line style="stroke:#E7E7E7;stroke-width:1;" x1="491.0459" x2="639.4424" y1="1308.3413" y2="1308.3413"/><ellipse cx="506.5459" cy="1319.8101" fill="#FFFFFF" rx="2.5" ry="2.5"/><text fill="#FFFFFF" font-family="sans-serif" font-size="12" lengthAdjust="spacing" textLength="99.7383" x="513.0459" y="1324.48">Project overview</text><ellipse cx="506.5459" cy="1333.7788" fill="#FFFFFF" rx="2.5" ry="2.5"/><text fill="#FFFFFF" font-family="sans-serif" font-size="12" lengthAdjust="spacing" textLength="55.1426" x="513.0459" y="1338.4487">Schedule</text><rect fill="#313139" height="71.9063" rx="12.5" ry="12.5" style="stroke:#E7E7E7;stroke-width:0.5;" width="150.3242" x="667.4424" y="1279.3726"/><text fill="#FFFFFF" font-family="sans-serif" font-size="12" font-weight="bold" lengthAdjust="spacing" textLength="93.3809" x="677.4424" y="1300.5112">Invoices Page</text><line style="stroke:#E7E7E7;stroke-width:1;" x1="667.4424" x2="817.7666" y1="1308.3413" y2="1308.3413"/><ellipse cx="682.9424" cy="1319.8101" fill="#FFFFFF" rx="2.5" ry="2.5"/><text fill="#FFFFFF" font-family="sans-serif" font-size="12" lengthAdjust="spacing" textLength="118.3242" x="689.4424" y="1324.48">View list of invoices</text><ellipse cx="682.9424" cy="1333.7788" fill="#FFFFFF" rx="2.5" ry="2.5"/><text fill="#FFFFFF" font-family="sans-serif" font-size="12" lengthAdjust="spacing" textLength="75.252" x="689.4424" y="1338.4487">View invoice</text><line style="stroke:#FFFFFF;stroke-width:1.5;" x1="15" x2="15" y1="12.7451" y2="1542.9351"/><rect fill="#313139" height="33.9688" rx="12.5" ry="12.5" style="stroke:#E7E7E7;stroke-width:0.5;" width="201.0547" x="840.4871" y="325.8013"/><text fill="#FFFFFF" font-family="sans-serif" font-size="12" lengthAdjust="spacing" textLength="181.0547" x="850.4871" y="346.9399">Find new RFQ in RFQ list page</text><rect fill="#313139" height="33.9688" rx="12.5" ry="12.5" style="stroke:#E7E7E7;stroke-width:0.5;" width="128.6387" x="876.6951" y="379.77"/><text fill="#FFFFFF" font-family="sans-serif" font-size="12" lengthAdjust="spacing" textLength="108.6387" x="886.6951" y="400.9087">Assign RFQ to self</text><rect fill="#313139" height="33.9688" rx="12.5" ry="12.5" style="stroke:#E7E7E7;stroke-width:0.5;" width="169.4316" x="856.2986" y="433.7388"/><text fill="#FFFFFF" font-family="sans-serif" font-size="12" lengthAdjust="spacing" textLength="149.4316" x="866.2986" y="454.8774">Review RFQ details page</text><polygon fill="#313139" points="904.5366,487.7075,977.4922,487.7075,989.4922,499.7075,977.4922,511.7075,904.5366,511.7075,892.5366,499.7075,904.5366,487.7075" style="stroke:#E7E7E7;stroke-width:0.5;"/><text fill="#FFFFFF" font-family="sans-serif" font-size="11" lengthAdjust="spacing" textLength="72.9556" x="904.5366" y="503.5156">RFQ Decision</text><text fill="#FFFFFF" font-family="sans-serif" font-size="11" lengthAdjust="spacing" textLength="64.77" x="827.7666" y="497.1133">Don't quote</text><text fill="#FFFFFF" font-family="sans-serif" font-size="11" lengthAdjust="spacing" textLength="33.4404" x="989.4922" y="497.1133">Quote</text><line style="stroke:#FFFFFF;stroke-width:1.5;" x1="822.7666" x2="822.7666" y1="12.7451" y2="1542.9351"/><rect fill="#313139" height="47.9375" rx="12.5" ry="12.5" style="stroke:#E7E7E7;stroke-width:0.5;" width="173.8965" x="1106.0398" y="531.7075"/><text fill="#FFFFFF" font-family="sans-serif" font-size="12" lengthAdjust="spacing" textLength="150.082" x="1119.8542" y="552.8462">Open Create Quote page</text><text fill="#FFFFFF" font-family="sans-serif" font-size="12" lengthAdjust="spacing" textLength="128.0156" x="1116.0398" y="566.8149">from RFQ detail page</text><rect fill="#313139" height="127.7813" rx="12.5" ry="12.5" style="stroke:#E7E7E7;stroke-width:0.5;" width="252.4355" x="1066.7703" y="626.4185"/><text fill="#FFFFFF" font-family="sans-serif" font-size="12" lengthAdjust="spacing" textLength="3.8145" x="1076.7703" y="647.5571">&#160;</text><text fill="#FFFFFF" font-family="sans-serif" font-size="12" font-weight="bold" lengthAdjust="spacing" textLength="119.3027" x="1080.5847" y="647.5571">New Project Page</text><line style="stroke:#E7E7E7;stroke-width:1;" x1="1066.7703" x2="1319.2058" y1="655.3872" y2="655.3872"/><ellipse cx="1082.2703" cy="666.856" fill="#FFFFFF" rx="2.5" ry="2.5"/><text fill="#FFFFFF" font-family="sans-serif" font-size="12" lengthAdjust="spacing" textLength="125.4844" x="1088.7703" y="671.5259">Assign Project to self</text><ellipse cx="1082.2703" cy="680.8247" fill="#FFFFFF" rx="2.5" ry="2.5"/><text fill="#FFFFFF" font-family="sans-serif" font-size="12" lengthAdjust="spacing" textLength="220.4355" x="1088.7703" y="685.4946">Complete remaining metadata fields</text><ellipse cx="1082.2703" cy="694.7935" fill="#FFFFFF" rx="2.5" ry="2.5"/><text fill="#FFFFFF" font-family="sans-serif" font-size="12" lengthAdjust="spacing" textLength="127.5176" x="1088.7703" y="699.4634">View project services</text><ellipse cx="1082.2703" cy="708.7622" fill="#FFFFFF" rx="2.5" ry="2.5"/><text fill="#FFFFFF" font-family="sans-serif" font-size="12" lengthAdjust="spacing" textLength="194.2617" x="1088.7703" y="713.4321">Add project services as required</text><ellipse cx="1082.2703" cy="722.731" fill="#FFFFFF" rx="2.5" ry="2.5"/><text fill="#FFFFFF" font-family="sans-serif" font-size="12" lengthAdjust="spacing" textLength="155.5313" x="1088.7703" y="727.4009">Override total quote price</text><ellipse cx="1082.2703" cy="736.6997" fill="#FFFFFF" rx="2.5" ry="2.5"/><text fill="#FFFFFF" font-family="sans-serif" font-size="12" lengthAdjust="spacing" textLength="148.1895" x="1088.7703" y="741.3696">Override quote schedule</text><rect fill="#313139" height="99.8438" rx="12.5" ry="12.5" style="stroke:#E7E7E7;stroke-width:0.5;" width="282.8926" x="1051.5417" y="795.5986"/><text fill="#FFFFFF" font-family="sans-serif" font-size="12" lengthAdjust="spacing" textLength="3.8145" x="1061.5417" y="816.7373">&#160;</text><text fill="#FFFFFF" font-family="sans-serif" font-size="12" font-weight="bold" lengthAdjust="spacing" textLength="141.1641" x="1065.3562" y="816.7373">Project Service Form</text><line style="stroke:#E7E7E7;stroke-width:1;" x1="1051.5417" x2="1334.4343" y1="824.5674" y2="824.5674"/><ellipse cx="1067.0417" cy="836.0361" fill="#FFFFFF" rx="2.5" ry="2.5"/><text fill="#FFFFFF" font-family="sans-serif" font-size="12" lengthAdjust="spacing" textLength="250.8926" x="1073.5417" y="840.7061">Input name, description, and service type</text><ellipse cx="1067.0417" cy="850.0049" fill="#FFFFFF" rx="2.5" ry="2.5"/><text fill="#FFFFFF" font-family="sans-serif" font-size="12" lengthAdjust="spacing" textLength="108.4863" x="1073.5417" y="854.6748">Set cost and price</text><ellipse cx="1067.0417" cy="863.9736" fill="#FFFFFF" rx="2.5" ry="2.5"/><text fill="#FFFFFF" font-family="sans-serif" font-size="12" lengthAdjust="spacing" textLength="141.4043" x="1073.5417" y="868.6436">Set start and end dates</text><ellipse cx="1067.0417" cy="877.9424" fill="#FFFFFF" rx="2.5" ry="2.5"/><text fill="#FFFFFF" font-family="sans-serif" font-size="12" lengthAdjust="spacing" textLength="76.0078" x="1073.5417" y="882.6123">Pick supplier</text><rect fill="#313139" height="47.9375" rx="12.5" ry="12.5" style="stroke:#E7E7E7;stroke-width:0.5;" width="204.6113" x="1090.6824" y="936.8413"/><text fill="#FFFFFF" font-family="sans-serif" font-size="12" lengthAdjust="spacing" textLength="184.6113" x="1100.6824" y="957.98">Set status to 'Quoted', forward</text><text fill="#FFFFFF" font-family="sans-serif" font-size="12" lengthAdjust="spacing" textLength="139.6523" x="1100.6824" y="971.9487">generated link to client</text><line style="stroke:#FFFFFF;stroke-width:1.5;" x1="1045.5417" x2="1045.5417" y1="12.7451" y2="1542.9351"/><rect fill="#313139" height="33.9688" rx="12.5" ry="12.5" style="stroke:#E7E7E7;stroke-width:0.5;" width="108.9688" x="1722.0403" y="1102.7476"/><text fill="#FFFFFF" font-family="sans-serif" font-size="12" lengthAdjust="spacing" textLength="85.1543" x="1735.8547" y="1123.8862">Project begins</text><rect fill="#AAAAAA" height="6" rx="2.5" ry="2.5" style="stroke:#AAAAAA;stroke-width:1;" width="1465.7891" x="1352.6907" y="1156.7163"/><rect fill="#313139" height="85.875" rx="12.5" ry="12.5" style="stroke:#E7E7E7;stroke-width:0.5;" width="165.7813" x="2011.6946" y="1182.7163"/><text fill="#FFFFFF" font-family="sans-serif" font-size="12" lengthAdjust="spacing" textLength="3.8145" x="2021.6946" y="1203.855">&#160;</text><text fill="#FFFFFF" font-family="sans-serif" font-size="12" font-weight="bold" lengthAdjust="spacing" textLength="124.582" x="2025.509" y="1203.855">Project Homepage</text><line style="stroke:#E7E7E7;stroke-width:1;" x1="2011.6946" x2="2177.4758" y1="1211.6851" y2="1211.6851"/><ellipse cx="2027.1946" cy="1223.1538" fill="#FFFFFF" rx="2.5" ry="2.5"/><text fill="#FFFFFF" font-family="sans-serif" font-size="12" lengthAdjust="spacing" textLength="133.7813" x="2033.6946" y="1227.8237">List project comments</text><ellipse cx="2027.1946" cy="1237.1226" fill="#FFFFFF" rx="2.5" ry="2.5"/><text fill="#FFFFFF" font-family="sans-serif" font-size="12" lengthAdjust="spacing" textLength="84.2695" x="2033.6946" y="1241.7925">Add comment</text><ellipse cx="2027.1946" cy="1251.0913" fill="#FFFFFF" rx="2.5" ry="2.5"/><text fill="#FFFFFF" font-family="sans-serif" font-size="12" lengthAdjust="spacing" textLength="86.6309" x="2033.6946" y="1255.7612">Change status</text><line style="stroke:#E7E7E7;stroke-width:1.5;" x1="1458.2395" x2="2692.7102" y1="1303.5913" y2="1303.5913"/><rect fill="#313139" height="85.875" rx="12.5" ry="12.5" style="stroke:#E7E7E7;stroke-width:0.5;" width="187.0977" x="1364.6907" y="1332.0757"/><text fill="#FFFFFF" font-family="sans-serif" font-size="12" lengthAdjust="spacing" textLength="3.8145" x="1374.6907" y="1353.2144">&#160;</text><text fill="#FFFFFF" font-family="sans-serif" font-size="12" font-weight="bold" lengthAdjust="spacing" textLength="129.8672" x="1378.5051" y="1353.2144">Client Invoice Page</text><line style="stroke:#E7E7E7;stroke-width:1;" x1="1364.6907" x2="1551.7883" y1="1361.0444" y2="1361.0444"/><ellipse cx="1380.1907" cy="1372.5132" fill="#FFFFFF" rx="2.5" ry="2.5"/><text fill="#FFFFFF" font-family="sans-serif" font-size="12" lengthAdjust="spacing" textLength="155.0977" x="1386.6907" y="1377.1831">View list of client invoices</text><ellipse cx="1380.1907" cy="1386.4819" fill="#FFFFFF" rx="2.5" ry="2.5"/><text fill="#FFFFFF" font-family="sans-serif" font-size="12" lengthAdjust="spacing" textLength="150.498" x="1386.6907" y="1391.1519">Generate a client invoice</text><ellipse cx="1380.1907" cy="1400.4507" fill="#FFFFFF" rx="2.5" ry="2.5"/><text fill="#FFFFFF" font-family="sans-serif" font-size="12" lengthAdjust="spacing" textLength="142.0313" x="1386.6907" y="1405.1206">Mark an invoice as paid</text><rect fill="#313139" height="85.875" rx="12.5" ry="12.5" style="stroke:#E7E7E7;stroke-width:0.5;" width="215.2109" x="1561.7883" y="1332.0757"/><text fill="#FFFFFF" font-family="sans-serif" font-size="12" font-weight="bold" lengthAdjust="spacing" textLength="76.1426" x="1571.7883" y="1353.2144">Tasks page</text><line style="stroke:#E7E7E7;stroke-width:1;" x1="1561.7883" x2="1776.9993" y1="1361.0444" y2="1361.0444"/><ellipse cx="1577.2883" cy="1372.5132" fill="#FFFFFF" rx="2.5" ry="2.5"/><text fill="#FFFFFF" font-family="sans-serif" font-size="12" lengthAdjust="spacing" textLength="183.2109" x="1583.7883" y="1377.1831">View list of all tasks on project</text><ellipse cx="1577.2883" cy="1386.4819" fill="#FFFFFF" rx="2.5" ry="2.5"/><text fill="#FFFFFF" font-family="sans-serif" font-size="12" lengthAdjust="spacing" textLength="132.3047" x="1583.7883" y="1391.1519">Add and assign a task</text><ellipse cx="1577.2883" cy="1400.4507" fill="#FFFFFF" rx="2.5" ry="2.5"/><text fill="#FFFFFF" font-family="sans-serif" font-size="12" lengthAdjust="spacing" textLength="122.2266" x="1583.7883" y="1405.1206">View and edit a task</text><rect fill="#313139" height="85.875" rx="12.5" ry="12.5" style="stroke:#E7E7E7;stroke-width:0.5;" width="263.9902" x="1804.9993" y="1332.0757"/><text fill="#FFFFFF" font-family="sans-serif" font-size="12" font-weight="bold" lengthAdjust="spacing" textLength="142.9043" x="1814.9993" y="1353.2144">Communication Page</text><line style="stroke:#E7E7E7;stroke-width:1;" x1="1804.9993" x2="2068.9895" y1="1361.0444" y2="1361.0444"/><ellipse cx="1820.4993" cy="1372.5132" fill="#FFFFFF" rx="2.5" ry="2.5"/><text fill="#FFFFFF" font-family="sans-serif" font-size="12" lengthAdjust="spacing" textLength="231.9902" x="1826.9993" y="1377.1831">View list of all project communications</text><ellipse cx="1820.4993" cy="1386.4819" fill="#FFFFFF" rx="2.5" ry="2.5"/><text fill="#FFFFFF" font-family="sans-serif" font-size="12" lengthAdjust="spacing" textLength="131.2266" x="1826.9993" y="1391.1519">Add a communication</text><ellipse cx="1820.4993" cy="1400.4507" fill="#FFFFFF" rx="2.5" ry="2.5"/><text fill="#FFFFFF" font-family="sans-serif" font-size="12" lengthAdjust="spacing" textLength="189.7676" x="1826.9993" y="1405.1206">View and edit a communication</text><rect fill="#313139" height="99.8438" rx="12.5" ry="12.5" style="stroke:#E7E7E7;stroke-width:0.5;" width="247.7773" x="2096.9895" y="1325.0913"/><text fill="#FFFFFF" font-family="sans-serif" font-size="12" lengthAdjust="spacing" textLength="3.8145" x="2106.9895" y="1346.23">&#160;</text><text fill="#FFFFFF" font-family="sans-serif" font-size="12" font-weight="bold" lengthAdjust="spacing" textLength="69.5039" x="2110.804" y="1346.23">Files Page</text><line style="stroke:#E7E7E7;stroke-width:1;" x1="2096.9895" x2="2344.7668" y1="1354.0601" y2="1354.0601"/><ellipse cx="2112.4895" cy="1365.5288" fill="#FFFFFF" rx="2.5" ry="2.5"/><text fill="#FFFFFF" font-family="sans-serif" font-size="12" lengthAdjust="spacing" textLength="205.1367" x="2118.9895" y="1370.1987">View list of all project files/images</text><ellipse cx="2112.4895" cy="1379.4976" fill="#FFFFFF" rx="2.5" ry="2.5"/><text fill="#FFFFFF" font-family="sans-serif" font-size="12" lengthAdjust="spacing" textLength="56.7012" x="2118.9895" y="1384.1675">Add a file</text><ellipse cx="2112.4895" cy="1393.4663" fill="#FFFFFF" rx="2.5" ry="2.5"/><text fill="#FFFFFF" font-family="sans-serif" font-size="12" lengthAdjust="spacing" textLength="215.7773" x="2118.9895" y="1398.1362">View and edit a file (metadata only)</text><ellipse cx="2112.4895" cy="1407.4351" fill="#FFFFFF" rx="2.5" ry="2.5"/><text fill="#FFFFFF" font-family="sans-serif" font-size="12" lengthAdjust="spacing" textLength="72.6855" x="2118.9895" y="1412.105">Delete a file</text><rect fill="#313139" height="99.8438" rx="12.5" ry="12.5" style="stroke:#E7E7E7;stroke-width:0.5;" width="214.1738" x="2354.7668" y="1325.0913"/><text fill="#FFFFFF" font-family="sans-serif" font-size="12" lengthAdjust="spacing" textLength="3.8145" x="2364.7668" y="1346.23">&#160;</text><text fill="#FFFFFF" font-family="sans-serif" font-size="12" font-weight="bold" lengthAdjust="spacing" textLength="94.8281" x="2368.5813" y="1346.23">Services Page</text><line style="stroke:#E7E7E7;stroke-width:1;" x1="2354.7668" x2="2568.9407" y1="1354.0601" y2="1354.0601"/><ellipse cx="2370.2668" cy="1365.5288" fill="#FFFFFF" rx="2.5" ry="2.5"/><text fill="#FFFFFF" font-family="sans-serif" font-size="12" lengthAdjust="spacing" textLength="182.1738" x="2376.7668" y="1370.1987">View list of all project services</text><ellipse cx="2370.2668" cy="1379.4976" fill="#FFFFFF" rx="2.5" ry="2.5"/><text fill="#FFFFFF" font-family="sans-serif" font-size="12" lengthAdjust="spacing" textLength="81.4102" x="2376.7668" y="1384.1675">Add a service</text><ellipse cx="2370.2668" cy="1393.4663" fill="#FFFFFF" rx="2.5" ry="2.5"/><text fill="#FFFFFF" font-family="sans-serif" font-size="12" lengthAdjust="spacing" textLength="139.9512" x="2376.7668" y="1398.1362">View and edit a service</text><ellipse cx="2370.2668" cy="1407.4351" fill="#FFFFFF" rx="2.5" ry="2.5"/><text fill="#FFFFFF" font-family="sans-serif" font-size="12" lengthAdjust="spacing" textLength="127.9219" x="2376.7668" y="1412.105">Add a service invoice</text><rect fill="#313139" height="47.9375" rx="12.5" ry="12.5" style="stroke:#E7E7E7;stroke-width:0.5;" width="227.5391" x="2578.9407" y="1351.0444"/><text fill="#FFFFFF" font-family="sans-serif" font-size="12" lengthAdjust="spacing" textLength="103.1777" x="2592.7551" y="1372.1831">Complete Project</text><text fill="#FFFFFF" font-family="sans-serif" font-size="12" lengthAdjust="spacing" textLength="207.5391" x="2588.9407" y="1386.1519">Set "Public" to show on homepage</text><line style="stroke:#E7E7E7;stroke-width:1.5;" x1="2094.5852" x2="2692.7102" y1="1444.9351" y2="1444.9351"/><rect fill="#AAAAAA" height="6" rx="2.5" ry="2.5" style="stroke:#AAAAAA;stroke-width:1;" width="1465.7891" x="1352.6907" y="1464.9351"/><ellipse cx="1776.5247" cy="1500.9351" fill="none" rx="10" ry="10" style="stroke:#DDDDDD;stroke-width:1.5;"/><line style="stroke:#DDDDDD;stroke-width:2.5;" x1="1770.3375" x2="1782.7118" y1="1494.7479" y2="1507.1222"/><line style="stroke:#DDDDDD;stroke-width:2.5;" x1="1782.7118" x2="1770.3375" y1="1494.7479" y2="1507.1222"/><line style="stroke:#FFFFFF;stroke-width:1.5;" x1="1346.6907" x2="1346.6907" y1="12.7451" y2="1542.9351"/><line style="stroke:#FFFFFF;stroke-width:1.5;" x1="2822.4797" x2="2822.4797" y1="12.7451" y2="1542.9351"/><line style="stroke:#E7E7E7;stroke-width:1;" x1="374.8071" x2="374.8071" y1="58.6982" y2="78.6982"/><polygon fill="#E7E7E7" points="370.8071,68.6982,374.8071,78.6982,378.8071,68.6982,374.8071,72.6982" style="stroke:#E7E7E7;stroke-width:1;"/><line style="stroke:#E7E7E7;stroke-width:1;" x1="374.8071" x2="374.8071" y1="112.667" y2="132.667"/><polygon fill="#E7E7E7" points="370.8071,122.667,374.8071,132.667,378.8071,122.667,374.8071,126.667" style="stroke:#E7E7E7;stroke-width:1;"/><line style="stroke:#E7E7E7;stroke-width:1;" x1="374.8071" x2="374.8071" y1="166.6357" y2="186.6357"/><polygon fill="#E7E7E7" points="370.8071,176.6357,374.8071,186.6357,378.8071,176.6357,374.8071,180.6357" style="stroke:#E7E7E7;stroke-width:1;"/><line style="stroke:#E7E7E7;stroke-width:1;" x1="374.8071" x2="374.8071" y1="220.6045" y2="240.6045"/><polygon fill="#E7E7E7" points="370.8071,230.6045,374.8071,240.6045,378.8071,230.6045,374.8071,234.6045" style="stroke:#E7E7E7;stroke-width:1;"/><line style="stroke:#E7E7E7;stroke-width:1;" x1="71.6201" x2="71.6201" y1="565.6763" y2="599.645"/><polygon fill="#E7E7E7" points="67.6201,589.645,71.6201,599.645,75.6201,589.645,71.6201,593.645" style="stroke:#E7E7E7;stroke-width:1;"/><line style="stroke:#E7E7E7;stroke-width:1;" x1="188.7578" x2="188.7578" y1="1136.7163" y2="1156.7163"/><polygon fill="#E7E7E7" points="184.7578,1146.7163,188.7578,1156.7163,192.7578,1146.7163,188.7578,1150.7163" style="stroke:#E7E7E7;stroke-width:1;"/><line style="stroke:#E7E7E7;stroke-width:1;" x1="367.9756" x2="367.9756" y1="1259.3726" y2="1286.3569"/><polygon fill="#E7E7E7" points="363.9756,1276.3569,367.9756,1286.3569,371.9756,1276.3569,367.9756,1280.3569" style="stroke:#E7E7E7;stroke-width:1;"/><line style="stroke:#E7E7E7;stroke-width:1;" x1="565.2441" x2="565.2441" y1="1259.3726" y2="1279.3726"/><polygon fill="#E7E7E7" points="561.2441,1269.3726,565.2441,1279.3726,569.2441,1269.3726,565.2441,1273.3726" style="stroke:#E7E7E7;stroke-width:1;"/><line style="stroke:#E7E7E7;stroke-width:1;" x1="742.6045" x2="742.6045" y1="1259.3726" y2="1279.3726"/><polygon fill="#E7E7E7" points="738.6045,1269.3726,742.6045,1279.3726,746.6045,1269.3726,742.6045,1273.3726" style="stroke:#E7E7E7;stroke-width:1;"/><line style="stroke:#E7E7E7;stroke-width:1;" x1="664.4805" x2="188.7578" y1="1070.7476" y2="1070.7476"/><line style="stroke:#E7E7E7;stroke-width:1;" x1="188.7578" x2="188.7578" y1="1070.7476" y2="1102.7476"/><polygon fill="#E7E7E7" points="184.7578,1092.7476,188.7578,1102.7476,192.7578,1092.7476,188.7578,1096.7476" style="stroke:#E7E7E7;stroke-width:1;"/><line style="stroke:#E7E7E7;stroke-width:1;" x1="718.3643" x2="718.3643" y1="1038.7476" y2="1058.7476"/><polygon fill="#E7E7E7" points="714.3643,1048.7476,718.3643,1058.7476,722.3643,1048.7476,718.3643,1052.7476" style="stroke:#E7E7E7;stroke-width:1;"/><line style="stroke:#E7E7E7;stroke-width:1;" x1="941.0144" x2="941.0144" y1="359.77" y2="379.77"/><polygon fill="#E7E7E7" points="937.0144,369.77,941.0144,379.77,945.0144,369.77,941.0144,373.77" style="stroke:#E7E7E7;stroke-width:1;"/><line style="stroke:#E7E7E7;stroke-width:1;" x1="941.0144" x2="941.0144" y1="413.7388" y2="433.7388"/><polygon fill="#E7E7E7" points="937.0144,423.7388,941.0144,433.7388,945.0144,423.7388,941.0144,427.7388" style="stroke:#E7E7E7;stroke-width:1;"/><line style="stroke:#E7E7E7;stroke-width:1;" x1="941.0144" x2="941.0144" y1="467.7075" y2="487.7075"/><polygon fill="#E7E7E7" points="937.0144,477.7075,941.0144,487.7075,945.0144,477.7075,941.0144,481.7075" style="stroke:#E7E7E7;stroke-width:1;"/><line style="stroke:#E7E7E7;stroke-width:1;" x1="1192.988" x2="1192.988" y1="579.645" y2="626.4185"/><polygon fill="#E7E7E7" points="1188.988,616.4185,1192.988,626.4185,1196.988,616.4185,1192.988,620.4185" style="stroke:#E7E7E7;stroke-width:1;"/><text fill="#FFFFFF" font-family="sans-serif" font-size="11" lengthAdjust="spacing" textLength="115.7524" x="1196.988" y="606.3242">Create Project object</text><line style="stroke:#E7E7E7;stroke-width:1;" x1="1192.988" x2="1192.988" y1="754.1997" y2="795.5986"/><polygon fill="#E7E7E7" points="1188.988,785.5986,1192.988,795.5986,1196.988,785.5986,1192.988,789.5986" style="stroke:#E7E7E7;stroke-width:1;"/><text fill="#FFFFFF" font-family="sans-serif" font-size="11" lengthAdjust="spacing" textLength="144.7026" x="1196.988" y="775.5044">Create Project Service Obj</text><line style="stroke:#E7E7E7;stroke-width:1;" x1="1192.988" x2="1192.988" y1="895.4424" y2="936.8413"/><polygon fill="#E7E7E7" points="1188.988,926.8413,1192.988,936.8413,1196.988,926.8413,1192.988,930.8413" style="stroke:#E7E7E7;stroke-width:1;"/><text fill="#FFFFFF" font-family="sans-serif" font-size="11" lengthAdjust="spacing" textLength="83.5313" x="1196.988" y="916.7471">Lines complete</text><line style="stroke:#E7E7E7;stroke-width:1;" x1="1458.2395" x2="1458.2395" y1="1305.0913" y2="1332.0757"/><polygon fill="#E7E7E7" points="1454.2395,1322.0757,1458.2395,1332.0757,1462.2395,1322.0757,1458.2395,1326.0757" style="stroke:#E7E7E7;stroke-width:1;"/><line style="stroke:#E7E7E7;stroke-width:1;" x1="1669.3938" x2="1669.3938" y1="1305.0913" y2="1332.0757"/><polygon fill="#E7E7E7" points="1665.3938,1322.0757,1669.3938,1332.0757,1673.3938,1322.0757,1669.3938,1326.0757" style="stroke:#E7E7E7;stroke-width:1;"/><line style="stroke:#E7E7E7;stroke-width:1;" x1="1936.9944" x2="1936.9944" y1="1305.0913" y2="1332.0757"/><polygon fill="#E7E7E7" points="1932.9944,1322.0757,1936.9944,1332.0757,1940.9944,1322.0757,1936.9944,1326.0757" style="stroke:#E7E7E7;stroke-width:1;"/><line style="stroke:#E7E7E7;stroke-width:1;" x1="2220.8782" x2="2220.8782" y1="1305.0913" y2="1325.0913"/><polygon fill="#E7E7E7" points="2216.8782,1315.0913,2220.8782,1325.0913,2224.8782,1315.0913,2220.8782,1319.0913" style="stroke:#E7E7E7;stroke-width:1;"/><line style="stroke:#E7E7E7;stroke-width:1;" x1="2461.8538" x2="2461.8538" y1="1305.0913" y2="1325.0913"/><polygon fill="#E7E7E7" points="2457.8538,1315.0913,2461.8538,1325.0913,2465.8538,1315.0913,2461.8538,1319.0913" style="stroke:#E7E7E7;stroke-width:1;"/><line style="stroke:#E7E7E7;stroke-width:1;" x1="2692.7102" x2="2692.7102" y1="1305.0913" y2="1351.0444"/><polygon fill="#E7E7E7" points="2688.7102,1341.0444,2692.7102,1351.0444,2696.7102,1341.0444,2692.7102,1345.0444" style="stroke:#E7E7E7;stroke-width:1;"/><line style="stroke:#E7E7E7;stroke-width:1;" x1="2692.7102" x2="2692.7102" y1="1398.9819" y2="1444.9351"/><polygon fill="#E7E7E7" points="2688.7102,1434.9351,2692.7102,1444.9351,2696.7102,1434.9351,2692.7102,1438.9351" style="stroke:#E7E7E7;stroke-width:1;"/><line style="stroke:#E7E7E7;stroke-width:1;" x1="2094.5852" x2="2094.5852" y1="1268.5913" y2="1303.5913"/><polygon fill="#E7E7E7" points="2090.5852,1293.5913,2094.5852,1303.5913,2098.5852,1293.5913,2094.5852,1297.5913" style="stroke:#E7E7E7;stroke-width:1;"/><line style="stroke:#E7E7E7;stroke-width:1;" x1="2094.5852" x2="2094.5852" y1="1162.7163" y2="1182.7163"/><polygon fill="#E7E7E7" points="2090.5852,1172.7163,2094.5852,1182.7163,2098.5852,1172.7163,2094.5852,1176.7163" style="stroke:#E7E7E7;stroke-width:1;"/><line style="stroke:#E7E7E7;stroke-width:1;" x1="2094.5852" x2="2094.5852" y1="1446.4351" y2="1464.9351"/><polygon fill="#E7E7E7" points="2090.5852,1454.9351,2094.5852,1464.9351,2098.5852,1454.9351,2094.5852,1458.9351" style="stroke:#E7E7E7;stroke-width:1;"/><line style="stroke:#E7E7E7;stroke-width:1;" x1="1776.5247" x2="1776.5247" y1="1136.7163" y2="1156.7163"/><polygon fill="#E7E7E7" points="1772.5247,1146.7163,1776.5247,1156.7163,1780.5247,1146.7163,1776.5247,1150.7163" style="stroke:#E7E7E7;stroke-width:1;"/><line style="stroke:#E7E7E7;stroke-width:1;" x1="1776.5247" x2="1776.5247" y1="1470.9351" y2="1490.9351"/><polygon fill="#E7E7E7" points="1772.5247,1480.9351,1776.5247,1490.9351,1780.5247,1480.9351,1776.5247,1484.9351" style="stroke:#E7E7E7;stroke-width:1;"/><line style="stroke:#E7E7E7;stroke-width:1;" x1="374.8071" x2="374.8071" y1="288.542" y2="310.8013"/><line style="stroke:#E7E7E7;stroke-width:1;" x1="374.8071" x2="941.0144" y1="310.8013" y2="310.8013"/><line style="stroke:#E7E7E7;stroke-width:1;" x1="941.0144" x2="941.0144" y1="310.8013" y2="325.8013"/><polygon fill="#E7E7E7" points="937.0144,315.8013,941.0144,325.8013,945.0144,315.8013,941.0144,319.8013" style="stroke:#E7E7E7;stroke-width:1;"/><text fill="#FFFFFF" font-family="sans-serif" font-size="11" lengthAdjust="spacing" textLength="102.2388" x="378.8071" y="304.3013">Create RFQ Object</text><line style="stroke:#E7E7E7;stroke-width:1;" x1="1192.988" x2="1192.988" y1="984.7788" y2="989.7788"/><line style="stroke:#E7E7E7;stroke-width:1;" x1="1192.988" x2="718.3643" y1="989.7788" y2="989.7788"/><line style="stroke:#E7E7E7;stroke-width:1;" x1="718.3643" x2="718.3643" y1="989.7788" y2="1004.7788"/><polygon fill="#E7E7E7" points="714.3643,994.7788,718.3643,1004.7788,722.3643,994.7788,718.3643,998.7788" style="stroke:#E7E7E7;stroke-width:1;"/><line style="stroke:#E7E7E7;stroke-width:1;" x1="1359.6907" x2="1359.6907" y1="1162.7163" y2="1166.7163"/><line style="stroke:#E7E7E7;stroke-width:1;" x1="1359.6907" x2="527.7061" y1="1166.7163" y2="1166.7163"/><line style="stroke:#E7E7E7;stroke-width:1;" x1="527.7061" x2="527.7061" y1="1166.7163" y2="1257.8726"/><polygon fill="#E7E7E7" points="523.7061,1247.8726,527.7061,1257.8726,531.7061,1247.8726,527.7061,1251.8726" style="stroke:#E7E7E7;stroke-width:1;"/><line style="stroke:#E7E7E7;stroke-width:1;" x1="772.248" x2="1776.5247" y1="1070.7476" y2="1070.7476"/><line style="stroke:#E7E7E7;stroke-width:1;" x1="1776.5247" x2="1776.5247" y1="1070.7476" y2="1102.7476"/><polygon fill="#E7E7E7" points="1772.5247,1092.7476,1776.5247,1102.7476,1780.5247,1092.7476,1776.5247,1096.7476" style="stroke:#E7E7E7;stroke-width:1;"/><line style="stroke:#E7E7E7;stroke-width:1;" x1="892.5366" x2="71.6201" y1="499.7075" y2="499.7075"/><line style="stroke:#E7E7E7;stroke-width:1;" x1="71.6201" x2="71.6201" y1="499.7075" y2="531.7075"/><polygon fill="#E7E7E7" points="67.6201,521.7075,71.6201,531.7075,75.6201,521.7075,71.6201,525.7075" style="stroke:#E7E7E7;stroke-width:1;"/><line style="stroke:#E7E7E7;stroke-width:1;" x1="989.4922" x2="1192.988" y1="499.7075" y2="499.7075"/><line style="stroke:#E7E7E7;stroke-width:1;" x1="1192.988" x2="1192.988" y1="499.7075" y2="531.7075"/><polygon fill="#E7E7E7" points="1188.988,521.7075,1192.988,531.7075,1196.988,521.7075,1192.988,525.7075" style="stroke:#E7E7E7;stroke-width:1;"/><text fill="#FFFFFF" font-family="sans-serif" font-size="18" lengthAdjust="spacing" textLength="52.1104" x="392.8281" y="29.4531">Client</text><text fill="#FFFFFF" font-family="sans-serif" font-size="18" lengthAdjust="spacing" textLength="152.1035" x="858.1024" y="29.4531">PM - Review RFQ</text><text fill="#FFFFFF" font-family="sans-serif" font-size="18" lengthAdjust="spacing" textLength="115.8047" x="1138.2139" y="29.4531">PM - Quoting</text><text fill="#FFFFFF" font-family="sans-serif" font-size="18" lengthAdjust="spacing" textLength="168.3369" x="2000.4167" y="29.4531">PM - Active Project</text><!--SRC=[dLPDRzim3BtxLn2xD0tIxUvW0ueKsGgiRTeCkoiMasYnPTUI4nJ8Zn-f3yVvN3jV4fEK-FZuA7axoXLgkqqIOqLjaoHz56kr41R1bb0rirnbO9J5OP9ErKA3qiFzc9VnCrHYmG6ZigXo9FEyh8i126j5jWHLaDSC4jFC2cMTx_CmkVa6enfv3zxWQVO7CpjCjfC7k84NN2lSi6ERf6Eb9MZ_IjdTJwwCZKblZM5SR2Oq1lCv6NSxW4GhL6v2k9f3Zwrtc2cZIdqDoa3lhjHN5bwRqk8rs2NgP1jvIJdw1HaUoc62MYQO6uJUiuiEYFb5wGM5mrE5EfRcObpcP5wNHGTFWBDZOLANd0FAm4GA_VuZbH3j4uhlzvCRUf8-XAAZCnHEZhO5DHP2QS841IMKmWgOAyobeQ3Vp4qLrXgirof3jjzAUMG6OMYlrqRLA2daQOrrhIHttehSKqPhABBhz6QJBL4sEPLveiwftvyxxuizT8n99xk2xtNLMD2Ym04nQB9QLPRQHo8ZTGIiODygXZ552rb92c5VnCP69t5dfJO2SUAgdgXi1QQfAkfuxR4oyT7Ym0Nmqs0x0EVsZYwbMU62qVdDVYfDD6QXCMHB0nRR6ExSbLE9l1hmQ6n4BI5PeCQQ4afIkbvnKERaEEpgqalSI-nOvDv-IkRKuGnH1g4JmAc7yfNw76MU-kMdT3y9ouFoRpEhrcrRUG1Y8sUuKDfGlLJMQWSSw354bNN_-Ebqtn1RnXApqUSOZY-aq3m7uJDo6oEfKRMKBSOo8zbobmt4WkQXTPzA3Z_A0Yi_PsVojrEwPidXfkEQjcf_9uIqtx_Nwz8DsUHILZUkxiWhvoGll-J07SmdaxFOFUFSYGwAqnriwRb0JGkmxnhMdXhKa8AwR8AF3vHW2fRHKkW51lKFTxcE5U7r0e6Yomp17aL-Laum1T_3N84u2Eh4F0ZcI4SFdt-LKF8ai-S9FDFmNyAi_9I-inP1WhTkKQaZozrv889v48I_3uIBFTpB7NYIuJZtHmHArqdHQ9Mvu-mZFM3SNL6qcvX3zFlk2zZtujvV14bfhF9_pTXvz7DU_CL_n1nXP-S5oEo6Ndi1bpf_k-w4tw4xl7pSXogQnjlvFujgB_t3WeBZGat74NihBvv4X-Mak- -LIKVRV3z-chXlpq_kssPPRbZ_ot08TSwDtTd6_znDGt_-0W00]--></g></svg>