<svg version="1.1" id="Layer_1" xmlns="http://www.w3.org/2000/svg" xmlns:xlink="http://www.w3.org/1999/xlink" x="0px" y="0px"
	 width="100%" viewBox="0 0 1024 1024" enable-background="new 0 0 1024 1024" xml:space="preserve">
<path fill="#000000" opacity="1.000000" stroke="none" 
	d="
M516.810303,217.873291 
	C528.902649,226.806946 539.550537,236.895264 550.634888,246.460510 
	C576.356628,268.656952 601.876648,291.086884 627.509155,313.386902 
	C630.101013,315.641785 632.311462,317.951202 632.336487,321.695953 
	C632.361084,325.377869 630.878479,328.141724 627.709290,329.947327 
	C624.485596,331.783997 621.386658,331.524994 618.378418,329.295044 
	C615.623962,327.253235 613.464355,324.403595 609.324402,322.468201 
	C609.324402,325.392914 609.324707,327.646118 609.324341,329.899323 
	C609.319397,360.551849 609.313354,391.204376 609.309570,421.856903 
	C609.308105,433.585938 607.291382,435.813293 595.335266,435.883392 
	C570.014526,436.031860 544.692505,435.965088 519.370972,435.971863 
	C491.050873,435.979462 462.730774,435.976105 434.410675,435.960541 
	C431.747437,435.959076 429.071289,435.980255 426.423553,435.741791 
	C418.883636,435.062775 416.679260,432.570221 416.677032,424.857574 
	C416.667938,393.205505 416.676941,361.553406 416.679230,329.901337 
	C416.679382,327.759216 416.679260,325.617096 416.679260,322.239166 
	C413.679138,324.450073 411.478577,326.024872 409.328491,327.665863 
	C404.634521,331.248291 399.581421,331.216217 396.368713,327.542572 
	C392.789307,323.449615 393.264160,317.796722 397.830475,313.838715 
	C415.826935,298.239471 433.919434,282.751068 451.932068,267.170380 
	C469.563507,251.919403 487.173615,236.643326 504.714691,221.288727 
	C508.181488,218.254089 511.761475,216.347717 516.810303,217.873291 
M476.500000,417.962524 
	C512.643311,417.952271 548.786621,417.947174 584.929932,417.927002 
	C591.629456,417.923279 591.645996,417.895203 591.647034,411.418427 
	C591.652344,378.606384 591.562866,345.793884 591.744751,312.982880 
	C591.770386,308.354248 590.265747,305.178436 586.859009,302.222900 
	C563.466125,281.928223 540.145813,261.549377 516.908691,241.076736 
	C514.258240,238.741608 512.548157,238.568741 509.809265,240.977768 
	C485.803436,262.092255 461.692902,283.087891 437.558197,304.055237 
	C435.214752,306.091095 434.293091,308.348999 434.300140,311.438416 
	C434.377289,345.249634 434.402222,379.061279 434.277496,412.872223 
	C434.262756,416.870880 435.702576,418.084869 439.524170,418.033356 
	C451.514252,417.871826 463.507812,417.966156 476.500000,417.962524 
z"/>
<path fill="#000000" opacity="1.000000" stroke="none" 
	d="
M838.180237,528.665100 
	C838.157715,548.905334 838.169006,568.732117 837.456421,588.556702 
	C837.309814,592.635986 836.086365,594.393433 831.990601,594.188293 
	C828.831970,594.030212 825.658691,594.189148 822.492554,594.152954 
	C815.979614,594.078430 815.660156,593.785156 815.657349,587.372986 
	C815.642639,553.540222 815.648621,519.707458 815.649231,485.874695 
	C815.649292,482.541473 815.737915,479.206116 815.645813,475.875610 
	C815.562744,472.871307 816.971069,471.684021 819.879639,471.717865 
	C825.545288,471.783783 831.218994,471.892578 836.876526,471.665192 
	C840.457397,471.521240 842.260193,472.991241 843.549255,476.257324 
	C851.130493,495.466003 858.875488,514.610168 866.586853,533.767334 
	C867.611267,536.312317 868.757751,538.808105 870.663391,541.186218 
	C870.663391,530.922302 870.664368,520.658325 870.663086,510.394379 
	C870.661743,499.227905 870.772583,488.059601 870.594177,476.895935 
	C870.531555,472.976959 871.966553,471.440186 875.851501,471.671844 
	C879.339172,471.879761 882.848877,471.707062 886.348755,471.721039 
	C893.322754,471.748871 893.343750,471.754181 893.345642,478.572418 
	C893.353821,508.571930 893.349304,538.571411 893.348328,568.570923 
	C893.348083,575.404114 893.211792,582.240906 893.394043,589.069153 
	C893.492249,592.748718 891.970276,594.241943 888.410583,594.183411 
	C883.578613,594.103943 878.742126,594.064331 873.912109,594.186035 
	C870.438904,594.273560 868.410706,592.775208 867.064209,589.580200 
	C858.981567,570.400513 850.787842,551.267578 842.607727,532.129150 
	C841.531982,529.612549 840.320862,527.153870 838.346497,524.919922 
	C838.294922,526.031311 838.243347,527.142700 838.180237,528.665100 
z"/>
<path fill="#000000" opacity="1.000000" stroke="none" 
	d="
M308.952087,471.752106 
	C319.130981,471.639282 328.444275,473.138855 336.316162,479.246735 
	C349.636353,489.582153 351.983002,512.823059 341.225769,526.117371 
	C340.090302,527.520752 338.914459,528.891479 337.472931,530.618042 
	C342.933228,535.632996 347.953674,540.830566 349.391327,548.197327 
	C354.127228,572.464722 343.473663,592.761108 315.378143,593.347595 
	C305.224762,593.559570 295.063293,593.396362 284.905548,593.379272 
	C278.221466,593.368042 277.985199,593.181824 277.977570,586.263550 
	C277.953094,564.116394 277.985657,541.969299 278.002258,519.822144 
	C278.012634,506.001007 278.020660,492.179840 278.056458,478.358765 
	C278.072540,472.152496 278.453003,471.763580 284.481354,471.745605 
	C292.474365,471.721832 300.467499,471.747009 308.952087,471.752106 
M326.001617,548.675049 
	C323.967133,544.230957 320.655853,541.539734 315.647888,541.363342 
	C312.329681,541.246460 309.002136,541.390259 305.684357,541.267090 
	C302.437286,541.146667 301.288177,542.649231 301.351044,545.793091 
	C301.477173,552.102051 301.388580,558.415527 301.372009,564.727112 
	C301.353577,571.748169 301.459930,571.863708 308.612793,571.920715 
	C309.775360,571.929993 310.938110,571.916016 312.100769,571.910217 
	C321.620819,571.862671 325.759674,568.448730 327.475952,559.166931 
	C328.098633,555.799255 327.308746,552.571594 326.001617,548.675049 
M324.749023,509.180084 
	C325.114349,503.961700 324.370300,499.223724 319.472748,496.090698 
	C314.682129,493.026154 309.355530,493.260651 304.041748,493.451599 
	C302.227295,493.516846 301.449463,494.821045 301.439545,496.508972 
	C301.396545,503.821014 301.409149,511.133362 301.377625,518.445496 
	C301.368134,520.649780 302.584595,521.693481 304.571655,522.268555 
	C314.034821,525.007324 322.632965,519.798157 324.749023,509.180084 
z"/>
<path fill="#000000" opacity="1.000000" stroke="none" 
	d="
M131.000000,593.372925 
	C125.171669,593.373535 119.837425,593.221497 114.516907,593.426147 
	C110.792343,593.569519 109.616875,592.041382 109.624573,588.435852 
	C109.704208,551.137268 109.674965,513.838501 109.657234,476.539764 
	C109.656021,473.991333 109.949120,471.730835 113.255692,471.799652 
	C125.387146,472.052094 137.558563,470.815674 149.647369,472.558228 
	C161.899490,474.324371 172.079987,479.404846 176.444717,491.860443 
	C181.095215,505.131470 180.063416,517.710999 170.015930,528.560852 
	C169.575806,529.036133 169.229111,529.597900 168.668442,530.347107 
	C171.151581,533.272461 173.850204,535.957764 175.972641,539.039856 
	C184.019424,550.725037 183.542709,563.267456 178.133530,575.566956 
	C172.695541,587.931946 161.527054,592.203247 148.976410,593.273315 
	C143.190170,593.766602 137.327805,593.367249 131.000000,593.372925 
M158.404160,554.103821 
	C156.491776,545.832397 153.051743,541.806335 147.144135,541.394043 
	C143.502396,541.139832 139.829529,541.364075 136.172607,541.283936 
	C133.444748,541.224182 132.275696,542.402649 132.325699,545.176453 
	C132.427597,550.829224 132.331848,556.485229 132.353745,562.139832 
	C132.393097,572.306519 131.129364,571.978271 141.928635,571.950256 
	C153.638824,571.919861 158.751205,566.728455 158.404160,554.103821 
M155.656097,504.147095 
	C153.013580,495.596710 143.252838,490.728973 134.580505,493.548065 
	C132.782440,494.132568 132.367691,495.342926 132.367035,496.949493 
	C132.364166,504.085052 132.371414,511.220581 132.363754,518.356140 
	C132.361008,520.921021 133.459579,522.579773 136.168716,522.519775 
	C147.340775,522.272705 156.993805,521.218445 155.656097,504.147095 
z"/>
<path fill="#000000" opacity="1.000000" stroke="none" 
	d="
M265.351135,547.998779 
	C265.299896,556.135559 265.738953,563.779968 263.561462,571.285889 
	C259.402771,585.621216 250.068329,593.112366 235.221741,594.491760 
	C229.170090,595.054016 223.304779,594.782166 217.420502,593.574158 
	C205.630219,591.153748 198.459076,583.734985 195.108673,572.474487 
	C193.547348,567.226929 192.591461,561.844727 192.626968,556.281982 
	C192.734314,539.466919 192.717636,522.650513 192.634995,505.835205 
	C192.615143,501.795654 193.243347,497.863129 194.206512,494.016968 
	C197.827850,479.556030 207.941864,471.805115 224.619247,470.786743 
	C229.080887,470.514282 233.638336,470.553925 238.062088,471.134125 
	C257.562042,473.691650 264.227081,487.720886 265.181610,505.052155 
	C265.958649,519.161438 265.346863,533.347290 265.351135,547.998779 
M215.352478,515.522522 
	C215.352585,529.321838 215.338409,543.121094 215.357864,556.920410 
	C215.370544,565.913696 220.214600,572.598877 227.312637,573.500916 
	C233.766998,574.321228 240.299362,568.464783 242.285538,560.027466 
	C242.511063,559.069397 242.598175,558.057861 242.599411,557.070923 
	C242.618973,541.442810 242.677811,525.814148 242.558273,510.186951 
	C242.535660,507.228394 242.020462,504.217346 241.316452,501.332031 
	C239.891754,495.493011 234.892593,491.595276 229.048004,491.411621 
	C222.922272,491.219116 218.579376,494.501221 216.444672,500.697784 
	C214.879349,505.241547 215.504074,509.906830 215.352478,515.522522 
z"/>
<path fill="#000000" opacity="1.000000" stroke="none" 
	d="
M792.111328,594.150269 
	C783.531433,594.100098 783.485779,594.053406 781.815002,586.242126 
	C780.808167,581.535034 779.631531,576.859436 778.788879,572.123840 
	C778.276245,569.243103 776.790649,568.252502 774.005554,568.292236 
	C767.181458,568.389587 760.354736,568.375000 753.529907,568.308960 
	C750.570007,568.280334 748.944763,569.486023 748.309814,572.466797 
	C747.099365,578.148987 745.520386,583.753845 744.357239,589.444519 
	C743.711121,592.605469 742.010986,594.089050 738.914917,594.122864 
	C734.587341,594.170105 730.258057,594.231689 725.931641,594.159241 
	C720.781860,594.072998 720.045044,593.119263 721.228149,588.176208 
	C725.361206,570.908081 729.528381,553.648071 733.680115,536.384399 
	C738.376648,516.855164 743.169373,497.348206 747.690002,477.778351 
	C748.714233,473.344391 750.465698,471.216125 755.374146,471.595978 
	C761.166687,472.044250 767.020752,471.796143 772.845276,471.691833 
	C775.928223,471.636627 777.640015,472.560150 778.435425,475.894257 
	C787.405945,513.499817 796.457825,551.086487 805.690125,588.628540 
	C806.843750,593.319336 805.071106,594.306274 801.079102,594.173035 
	C798.252075,594.078674 795.419495,594.151794 792.111328,594.150269 
M766.549255,515.876221 
	C765.467712,513.387146 766.189819,510.225983 763.889343,508.199249 
	C762.334167,508.590942 762.010071,509.837311 761.774658,510.887421 
	C759.315308,521.856995 756.910461,532.839050 754.553345,543.831055 
	C754.011108,546.359985 755.278931,547.580933 757.798950,547.590637 
	C761.446472,547.604614 765.095337,547.557373 768.741150,547.642029 
	C772.256348,547.723694 773.017273,545.915527 772.343750,542.857422 
	C770.423950,534.140198 768.549500,525.413025 766.549255,515.876221 
z"/>
<path fill="#000000" opacity="1.000000" stroke="none" 
	d="
M587.363770,514.000122 
	C587.361694,527.832214 587.376587,541.164429 587.343323,554.496399 
	C587.336670,557.176086 587.560913,559.795959 588.187622,562.414429 
	C589.861084,569.406494 594.895569,573.186523 601.981750,572.635925 
	C608.343689,572.141602 612.285828,567.701538 612.618103,560.352966 
	C612.806152,556.194763 612.681091,552.021973 612.681702,547.855774 
	C612.684875,524.691223 612.672852,501.526642 612.690796,478.362061 
	C612.695618,472.164642 613.094910,471.783173 619.132751,471.733826 
	C622.465515,471.706573 625.819153,471.959076 629.126892,471.669189 
	C633.878235,471.252838 635.491455,473.029114 635.457031,477.883636 
	C635.261108,505.546387 635.335327,533.211182 635.370728,560.875305 
	C635.375488,564.584961 634.736877,568.192017 633.773499,571.705078 
	C628.674866,590.297302 616.967468,594.980225 600.073425,594.782715 
	C595.966919,594.734619 591.770874,593.956055 587.792236,592.868469 
	C573.809692,589.046265 564.790894,577.309692 564.714905,562.568298 
	C564.567993,534.071655 564.730225,505.573395 564.603882,477.076538 
	C564.585266,472.888763 566.106201,471.398438 570.191040,471.659851 
	C574.174622,471.914795 578.192932,471.861389 582.184753,471.686798 
	C586.071350,471.516846 587.464966,473.122467 587.413269,477.004211 
	C587.251343,489.167542 587.359985,501.334503 587.363770,514.000122 
z"/>
<path fill="#000000" opacity="1.000000" stroke="none" 
	d="
M484.697418,499.338837 
	C487.995728,481.771698 495.707550,473.385223 512.120667,471.067749 
	C527.120422,468.949921 541.581970,472.507996 549.731201,486.687836 
	C552.016235,490.663788 552.972351,495.027252 554.069824,499.368408 
	C554.721802,501.946930 553.504272,503.514313 551.092041,504.289307 
	C546.027832,505.916473 540.961060,507.535767 535.894531,509.155609 
	C532.297546,510.305634 530.473328,509.174286 530.651245,505.214783 
	C530.766541,502.651001 529.786804,500.313477 528.719910,498.049438 
	C526.174194,492.647034 520.169739,490.046631 515.073120,492.083954 
	C509.716705,494.225220 506.951599,500.426849 508.904907,506.193909 
	C510.401489,510.612335 513.341980,514.053345 517.140930,516.588989 
	C523.505127,520.836731 530.091553,524.750000 536.501953,528.930420 
	C552.057068,539.074402 557.778625,553.698914 553.167969,571.637756 
	C550.928650,580.350342 545.754089,587.140259 537.647156,590.822693 
	C523.929382,597.053955 510.162262,596.751526 497.167755,588.548096 
	C488.739990,583.227661 485.062347,574.690918 482.815552,565.422852 
	C482.127106,562.583008 483.237213,560.706116 486.145111,559.700134 
	C490.702240,558.123657 495.190491,556.340393 499.670898,554.552002 
	C503.383362,553.070251 505.137634,553.835876 505.452576,558.221069 
	C505.881897,564.198853 507.636353,569.691833 513.878052,572.428589 
	C518.913696,574.636597 525.090454,573.627380 528.647888,569.850830 
	C532.096252,566.190186 532.492859,561.276306 529.894287,555.933960 
	C527.006592,549.997192 521.349487,547.256653 516.193909,543.957153 
	C512.270325,541.446106 508.195251,539.172424 504.257843,536.682129 
	C490.723328,528.122131 482.596619,516.661438 484.697418,499.338837 
z"/>
<path fill="#000000" opacity="1.000000" stroke="none" 
	d="
M660.578186,555.363647 
	C667.442139,552.957275 667.327637,552.977356 668.458801,559.437073 
	C669.365051,564.612061 670.944702,569.546448 676.104187,572.207520 
	C681.328369,574.902039 688.683838,573.555664 692.150757,569.356750 
	C695.574524,565.210083 695.326599,558.799866 691.427002,553.647278 
	C688.140869,549.305298 683.619263,546.431152 679.031860,543.702759 
	C671.871033,539.443787 664.898987,534.958008 658.446533,529.630859 
	C647.064819,520.234192 644.917114,503.784546 649.963928,489.756683 
	C654.353943,477.554321 665.578918,470.692413 680.391235,470.670624 
	C700.277344,470.641388 712.413574,479.845856 716.803101,497.980774 
	C717.708496,501.721344 716.730347,503.598663 713.092163,504.640106 
	C708.299988,506.011841 703.593628,507.684021 698.853638,509.237091 
	C695.752869,510.253082 694.032410,509.252258 693.927673,505.887573 
	C693.838379,503.021271 693.294922,500.273224 691.903259,497.731171 
	C688.850708,492.154816 682.716736,489.875946 677.521851,492.392456 
	C672.198242,494.971283 669.918091,501.594757 672.321228,507.343079 
	C674.844482,513.378662 679.850220,516.949219 685.091125,520.271667 
	C691.971802,524.633667 699.158386,528.472168 705.534058,533.668152 
	C720.176025,545.600952 719.866577,566.009277 713.201660,578.758667 
	C707.222778,590.195679 696.646606,593.754578 684.607849,594.897522 
	C666.954651,596.573547 650.543396,585.616821 646.310608,568.945312 
	C644.601379,562.213257 645.170654,561.163269 651.807861,558.700806 
	C654.615295,557.659241 657.410950,556.585632 660.578186,555.363647 
z"/>
<path fill="#000000" opacity="1.000000" stroke="none" 
	d="
M425.677002,537.592163 
	C428.288574,541.008667 430.702789,544.156189 432.899658,547.020203 
	C434.195129,547.171204 434.543121,546.655579 434.873322,546.044983 
	C436.334686,543.342651 436.030426,538.862793 439.332245,538.177429 
	C443.799347,537.250244 448.617950,537.609131 453.239960,537.982788 
	C456.196869,538.221985 455.340546,540.872375 454.928558,542.742920 
	C453.563812,548.939453 451.779755,555.056396 448.416870,560.459412 
	C446.094543,564.190613 446.620758,566.988586 449.181732,570.324158 
	C452.720947,574.933899 455.753632,579.933777 458.964050,584.792542 
	C459.207703,585.161316 459.139313,585.736206 459.359772,587.113708 
	C452.343719,587.113708 445.502960,587.119019 438.662323,587.095459 
	C438.364929,587.094421 437.929779,586.908386 437.791870,586.672302 
	C433.856689,579.936646 429.771515,583.980469 425.438171,586.280518 
	C412.751862,593.014038 393.274017,588.556641 386.285889,577.505615 
	C377.987488,564.382507 381.468079,544.826294 393.727112,535.640442 
	C394.904785,534.758057 396.034271,533.811279 397.117798,532.948792 
	C396.841949,530.314941 394.901489,529.006714 393.753540,527.249268 
	C389.520966,520.769409 387.202118,513.824097 388.546509,506.035553 
	C390.322052,495.749390 397.271484,488.846283 407.576050,487.841675 
	C413.639679,487.250519 419.868591,486.781891 425.693634,489.775146 
	C441.599060,497.948273 442.664093,519.224365 427.675751,530.884644 
	C425.481384,532.591797 422.345734,533.853027 425.677002,537.592163 
M421.648804,563.855225 
	C417.432129,558.173584 413.925934,551.948486 408.833099,546.502136 
	C403.624176,550.104309 401.298859,554.967224 401.487244,560.645874 
	C401.786194,569.656128 409.958649,574.983093 417.914520,571.546570 
	C420.719177,570.335083 423.945251,568.726562 421.648804,563.855225 
M412.638458,503.455811 
	C405.251831,506.872894 404.139618,515.767517 410.456726,520.721802 
	C411.480225,521.524536 412.552277,522.003540 413.562347,521.015198 
	C416.505066,518.135742 419.951843,515.454468 419.743805,510.740356 
	C419.565918,506.708618 417.012421,504.548767 412.638458,503.455811 
z"/>
<path fill="#000000" opacity="1.000000" stroke="none" 
	d="
M753.968628,659.005188 
	C752.233093,656.757141 750.715515,654.788147 748.260498,651.602905 
	C748.260498,659.881409 748.260315,666.860413 748.260498,673.839355 
	C748.260559,675.503601 748.382507,677.178894 748.232117,678.829346 
	C748.033875,681.004883 749.279419,684.033020 746.348389,684.933594 
	C743.366516,685.849854 740.018372,685.887390 737.015076,684.810608 
	C735.152588,684.142944 735.686829,681.956238 735.676575,680.358154 
	C735.626343,672.536499 735.519531,664.711609 735.685059,656.893250 
	C735.829651,650.063904 735.153564,643.291565 734.855469,636.493042 
	C734.742859,633.924622 733.351501,629.905762 737.106812,629.237000 
	C741.268494,628.495911 746.094055,627.264282 749.526611,631.757751 
	C756.090759,640.350769 762.745361,648.874634 769.363342,657.426453 
	C770.455566,658.837769 771.552734,660.245361 772.910583,661.993225 
	C772.910583,652.597168 773.159180,643.680237 772.821655,634.785583 
	C772.602966,629.023010 775.832520,628.933105 780.095764,628.838928 
	C784.488403,628.741943 786.431885,629.985107 786.358337,634.739258 
	C786.134399,649.214844 786.334961,663.696472 786.202148,678.174194 
	C786.180054,680.584290 787.673584,684.444275 784.077515,684.961121 
	C780.115540,685.530518 775.489990,687.081848 772.144897,682.616577 
	C766.261047,674.762451 760.183105,667.053772 753.968628,659.005188 
z"/>
<path fill="#000000" opacity="1.000000" stroke="none" 
	d="
M296.664429,665.999390 
	C296.663849,655.833008 296.548004,646.164185 296.740692,636.501526 
	C296.791840,633.937866 295.170349,630.550903 298.770172,628.987061 
	C302.395630,627.412109 309.284790,629.057434 311.556274,631.958313 
	C317.821533,639.959778 324.004364,648.025635 330.239227,656.050964 
	C331.337158,657.464172 332.201752,659.148682 334.045044,659.856567 
	C336.331635,658.702148 335.584778,656.636597 335.605194,654.968201 
	C335.692871,647.802795 335.826874,640.629028 335.574127,633.471375 
	C335.400696,628.559021 338.409546,628.689331 341.770203,628.756836 
	C345.185303,628.825562 348.459106,628.419556 348.390259,633.675842 
	C348.185150,649.339600 348.250702,665.007996 348.349518,680.673706 
	C348.371124,684.100098 347.072815,685.193176 343.671967,685.456604 
	C338.518677,685.855957 334.961456,684.327759 331.848663,680.008362 
	C325.038330,670.558044 317.718079,661.475098 310.081177,651.560608 
	C308.858734,658.333435 309.523834,664.362000 309.360413,670.341919 
	C309.292145,672.840027 309.351410,675.341553 309.348267,677.841492 
	C309.339081,685.125793 306.436523,687.165894 299.147614,685.231506 
	C296.714447,684.585754 296.683075,682.868713 296.677002,680.999207 
	C296.661255,676.165894 296.667358,671.332642 296.664429,665.999390 
z"/>
<path fill="#000000" opacity="1.000000" stroke="none" 
	d="
M673.203064,630.905396 
	C681.182739,627.405945 689.094482,627.163208 696.964539,629.296997 
	C711.540833,633.249146 719.260742,645.924438 717.273926,662.025818 
	C715.653381,675.159485 704.149475,685.446289 690.195496,686.239502 
	C671.770874,687.286865 659.620483,677.552246 657.165649,659.776978 
	C655.578857,648.287903 661.919189,636.676941 673.203064,630.905396 
M672.476990,650.208740 
	C672.161682,651.330322 671.747498,652.434570 671.546692,653.576294 
	C670.018799,662.268738 674.343811,670.567505 681.708496,673.155212 
	C689.113647,675.757141 697.119690,673.034607 700.968506,666.605469 
	C705.943909,658.294678 703.452271,647.007263 695.612000,642.340149 
	C687.325867,637.407715 678.154968,640.276917 672.476990,650.208740 
z"/>
<path fill="#000000" opacity="1.000000" stroke="none" 
	d="
M370.338867,672.456604 
	C363.064667,658.535583 366.444702,641.645386 377.856354,633.546204 
	C390.154083,624.817932 409.861450,626.287415 419.525726,637.350586 
	C427.551392,646.537964 428.525604,657.576660 424.349304,668.724304 
	C419.917084,680.555298 410.172516,685.519714 398.189178,686.171326 
	C386.676727,686.797363 376.899170,683.137146 370.338867,672.456604 
M395.646576,640.272949 
	C386.052216,641.008240 379.869995,648.228516 380.342773,658.146301 
	C380.761017,666.920715 388.276703,673.996338 397.045197,673.870667 
	C405.947876,673.742981 412.546539,666.701111 412.645233,657.222839 
	C412.749817,647.178101 406.531342,640.652039 395.646576,640.272949 
z"/>
<path fill="#000000" opacity="1.000000" stroke="none" 
	d="
M197.045654,675.891968 
	C194.108322,672.531006 192.915680,667.653564 187.193192,668.237427 
	C184.536179,668.508484 183.178604,669.222473 183.285461,672.061462 
	C183.398071,675.053406 183.212509,678.056396 183.321106,681.048584 
	C183.425293,683.918884 182.387756,685.192261 179.320480,685.349609 
	C170.888504,685.781982 170.656036,685.686707 170.653656,677.193237 
	C170.649673,663.043701 170.798477,648.891907 170.569183,634.746094 
	C170.498276,630.371277 171.988083,628.726807 176.290039,628.944397 
	C184.256226,629.347351 192.272705,628.177490 200.209885,629.428589 
	C210.305664,631.019836 215.504990,635.340820 217.132385,643.152893 
	C219.040726,652.313599 216.031311,659.468750 207.928329,665.057495 
	C207.528229,665.333435 207.167938,665.667053 206.273575,666.391296 
	C209.575500,670.900879 212.900253,675.380798 216.147766,679.916016 
	C217.062119,681.192993 218.779099,682.411316 217.628723,684.268555 
	C216.699692,685.768311 214.900970,685.025452 213.498749,685.341248 
	C205.294006,687.189270 200.923111,682.333069 197.045654,675.891968 
M191.457916,655.909058 
	C193.115524,655.852966 194.780991,655.880310 196.429199,655.724670 
	C200.821091,655.309937 203.499878,653.051086 203.707291,648.467773 
	C203.896484,644.287415 201.402191,641.700012 196.593414,641.258179 
	C193.463013,640.970581 190.300705,640.999023 187.151779,640.960388 
	C186.004013,640.946350 184.451996,640.887451 184.049393,642.073853 
	C182.690842,646.077271 182.733047,650.385803 183.861740,654.261658 
	C184.699066,657.136963 188.214783,655.519897 191.457916,655.909058 
z"/>
<path fill="#000000" opacity="1.000000" stroke="none" 
	d="
M266.925079,651.642334 
	C274.954865,651.670227 275.547699,652.325806 275.175232,658.806458 
	C274.979950,662.204346 273.493408,663.480835 270.160767,663.397522 
	C264.502228,663.256042 258.834930,663.470764 253.176025,663.336670 
	C249.781647,663.256226 248.837479,664.934326 248.959763,667.966492 
	C249.080078,670.950012 249.059753,673.725830 253.309799,673.651245 
	C260.135437,673.531433 266.974060,673.854248 273.789856,673.571594 
	C278.363556,673.381897 278.398163,675.986511 278.380432,679.264282 
	C278.362091,682.655579 278.487518,685.501465 273.601044,685.391418 
	C262.615143,685.143982 251.618881,685.219604 240.629181,685.354919 
	C236.978439,685.399902 235.617279,684.033081 235.641510,680.376038 
	C235.744064,664.888916 235.741592,649.399841 235.585297,633.913391 
	C235.547760,630.192627 236.967041,628.895325 240.568069,628.936768 
	C251.391449,629.061340 262.219177,629.121887 273.040680,628.939026 
	C277.329285,628.866516 278.485840,630.722290 278.377899,634.672363 
	C278.271942,638.549561 278.111755,641.598816 272.885010,641.377686 
	C266.235657,641.096375 259.563232,641.412354 252.904373,641.283447 
	C249.409637,641.215820 248.211624,642.698486 248.322525,646.097900 
	C248.428329,649.341431 249.001968,651.701538 252.949310,651.632690 
	C257.444275,651.554260 261.941956,651.632324 266.925079,651.642334 
z"/>
<path fill="#000000" opacity="1.000000" stroke="none" 
	d="
M535.450684,673.396362 
	C530.353516,673.389404 525.691956,673.526428 521.043640,673.337036 
	C517.879456,673.208069 516.272705,674.596375 515.031250,677.394165 
	C511.178741,686.076416 509.158020,686.909973 499.303406,684.579102 
	C498.369110,682.812927 499.479797,681.341431 500.097290,679.871338 
	C506.596161,664.399536 513.290222,649.007507 519.592163,633.456482 
	C521.456787,628.855347 524.677612,628.652527 528.708984,628.593018 
	C532.556152,628.536194 535.229980,629.216003 536.903809,633.270264 
	C543.496094,649.237793 550.401794,665.075684 557.157410,680.976074 
	C557.594238,682.004150 558.271179,683.069519 557.562866,684.655090 
	C553.956726,686.078308 549.954041,685.467957 546.109436,685.133484 
	C542.849731,684.849731 542.817200,681.361450 541.683350,679.075867 
	C540.403381,676.495972 540.080322,672.993896 535.450684,673.396362 
M527.289612,648.558594 
	C526.202271,652.402710 523.325806,655.718750 523.602966,660.301025 
	C526.929993,660.623352 529.959167,661.068420 533.364319,660.015259 
	C532.589294,657.700439 531.968445,655.678894 531.237549,653.697937 
	C529.705688,649.545715 529.519897,649.312134 527.289612,648.558594 
z"/>
<path fill="#000000" opacity="1.000000" stroke="none" 
	d="
M818.691101,644.027588 
	C819.434631,647.125732 821.692566,648.212097 824.098328,649.017151 
	C827.251099,650.072266 830.455322,650.972412 833.629944,651.963257 
	C843.898682,655.168518 848.898010,661.181396 848.252502,669.530151 
	C847.560547,678.481323 841.398438,684.648193 831.030273,686.011353 
	C822.002625,687.198303 813.448853,685.296692 805.750122,680.303101 
	C803.739746,678.999084 800.815002,677.237122 803.492859,674.488586 
	C805.968506,671.947449 807.590637,666.613281 812.878967,669.557373 
	C816.541931,671.596558 820.143311,673.522522 824.347900,674.235107 
	C826.253845,674.558228 827.961304,674.347168 829.724365,673.764954 
	C831.913940,673.041931 833.743469,671.977417 833.780273,669.349182 
	C833.816895,666.731262 831.959961,665.438599 829.876526,664.713989 
	C825.327209,663.131531 820.582520,662.069885 816.118591,660.291199 
	C805.305115,655.982666 801.360901,645.849731 806.753723,636.533142 
	C810.542297,629.988220 817.064758,628.407654 823.881042,628.074463 
	C830.842346,627.734131 837.370544,629.650818 843.406311,633.199158 
	C846.165466,634.821289 846.541199,636.559448 844.530884,639.233154 
	C840.024414,645.226746 840.007568,645.328979 832.946106,642.051758 
	C826.416382,639.021240 821.973145,639.532959 818.691101,644.027588 
z"/>
<path fill="#000000" opacity="1.000000" stroke="none" 
	d="
M458.269867,645.887878 
	C460.864471,652.374634 463.332489,658.499390 466.381165,666.065247 
	C469.241638,658.837158 471.601013,652.928589 473.918060,647.003418 
	C475.733490,642.360962 477.496582,637.698059 479.282623,633.044128 
	C480.636627,629.515930 491.828400,626.997498 494.438690,629.643616 
	C495.638611,630.860046 494.928284,632.140930 494.430664,633.340698 
	C487.682190,649.612183 480.945068,665.888489 474.128845,682.131592 
	C471.731171,687.845215 466.582489,684.574951 462.694550,685.364746 
	C459.725006,685.968018 458.714203,683.795227 457.764343,681.511963 
	C451.190460,665.709961 444.554016,649.933960 437.961761,634.139587 
	C436.059113,629.581116 436.540314,628.867004 441.316498,628.862976 
	C451.661377,628.854187 451.652954,628.857422 455.363007,638.588318 
	C456.250458,640.915833 457.214478,643.214111 458.269867,645.887878 
z"/>
<path fill="#000000" opacity="1.000000" stroke="none" 
	d="
M579.643066,647.292969 
	C580.134033,642.851196 578.661682,640.811523 574.380005,641.287964 
	C572.735596,641.470886 571.053528,641.317200 569.388611,641.313232 
	C562.732117,641.297424 562.833618,641.188599 562.601624,634.704285 
	C562.449219,630.444275 563.791992,628.756958 568.264709,628.847595 
	C580.080627,629.087158 591.909302,629.119446 603.723267,628.833862 
	C608.637451,628.715027 609.521973,630.873657 609.450073,635.133240 
	C609.381348,639.203918 608.949280,641.566406 603.813843,641.452209 
	C592.351196,641.197571 592.340759,641.474854 592.334595,653.086487 
	C592.329956,661.910583 592.063477,670.746460 592.443054,679.554260 
	C592.671448,684.853943 590.163574,685.462830 585.816284,685.424194 
	C581.640442,685.387146 579.366760,684.762390 579.536011,679.718933 
	C579.893066,669.075378 579.643799,658.411499 579.643066,647.292969 
z"/>
<path fill="#000000" opacity="1.000000" stroke="none" 
	d="
M632.961609,685.344055 
	C625.684448,685.237671 625.672424,685.237671 625.668823,678.366333 
	C625.661255,663.917114 625.643372,649.467896 625.679993,635.018738 
	C625.695068,629.094666 626.165649,629.010559 632.973083,628.672729 
	C637.815369,628.432495 639.387146,630.214966 639.316223,634.966492 
	C639.093262,649.910706 639.068726,664.862000 639.285522,679.805969 
	C639.350952,684.312988 637.635315,685.870972 632.961609,685.344055 
z"/>
<path fill="#000000" opacity="1.000000" stroke="none" 
	d="
M748.648315,726.317505 
	C750.340576,728.803772 751.830078,730.983154 753.524414,733.462158 
	C756.781860,730.716614 758.362610,727.214478 760.289795,724.053162 
	C762.050720,721.164551 764.396301,720.245056 767.433838,720.914001 
	C770.606384,721.612610 770.059875,724.395142 770.084900,726.610413 
	C770.169739,734.096313 770.084656,741.583923 770.118469,749.070618 
	C770.130920,751.820618 769.312378,753.448853 766.121399,753.399658 
	C763.006226,753.351562 762.660889,751.543518 762.679688,749.146790 
	C762.714722,744.674011 762.689758,740.200806 762.689758,735.033264 
	C758.071167,737.416138 757.577698,742.528870 753.760925,745.040100 
	C749.939697,742.208313 748.670227,737.395630 745.019775,734.238098 
	C745.019775,739.369141 745.008362,744.308960 745.024597,749.248596 
	C745.032776,751.723206 744.371948,753.384888 741.380371,753.385864 
	C738.439148,753.386841 737.695007,751.857117 737.703674,749.314087 
	C737.730469,741.494507 737.658936,733.674561 737.705872,725.855164 
	C737.717163,723.962952 737.135010,721.553528 739.893921,720.966187 
	C742.418518,720.428772 744.900330,720.499390 746.491699,723.116760 
	C747.095703,724.110107 747.791626,725.047607 748.648315,726.317505 
z"/>
<path fill="#000000" opacity="1.000000" stroke="none" 
	d="
M311.628510,782.143921 
	C311.910645,779.838806 310.943146,777.387329 313.864075,776.852478 
	C316.279480,776.410156 318.491730,776.678589 320.019745,779.001404 
	C322.202240,782.319031 324.460327,785.586975 327.008484,789.352417 
	C329.916931,786.436829 331.638611,783.271301 333.511383,780.243591 
	C334.915070,777.974304 336.545044,776.520874 339.505554,776.634094 
	C342.263580,776.739624 343.377380,777.773865 343.351654,780.521423 
	C343.273682,788.843445 343.304108,797.166565 343.325073,805.489197 
	C343.330902,807.802124 342.686371,809.260498 339.961975,809.326538 
	C337.087067,809.396179 336.076630,807.988770 336.073975,805.407288 
	C336.069031,800.597473 336.072571,795.787720 336.072571,790.224548 
	C331.879211,793.210876 330.911530,797.920227 327.224670,800.532837 
	C323.651520,797.780884 322.268188,793.403870 318.324341,789.807983 
	C318.324341,794.989258 318.410980,799.396301 318.288727,803.797607 
	C318.225067,806.089966 319.186371,809.168945 315.135590,809.267456 
	C310.697906,809.375427 311.730194,806.030334 311.689087,803.598450 
	C311.571014,796.609192 311.634155,789.616882 311.628510,782.143921 
z"/>
<path fill="#000000" opacity="1.000000" stroke="none" 
	d="
M385.604553,807.820557 
	C385.361511,799.788330 385.145142,792.144531 385.181396,784.501953 
	C385.193848,781.870789 383.888580,778.321716 387.230804,776.997192 
	C391.099182,775.464111 393.219971,778.557800 395.274963,781.290649 
	C398.328033,785.350891 401.049866,789.708618 405.156647,793.490601 
	C407.724640,789.511658 406.223206,785.625854 406.642334,782.004272 
	C406.915070,779.647400 406.009979,776.764221 410.049042,776.714294 
	C414.106079,776.664246 414.049713,779.447021 414.072601,782.153564 
	C414.134460,789.478210 414.152435,796.804077 414.084045,804.128479 
	C414.066193,806.039429 414.426117,808.390137 411.882355,809.135681 
	C409.330872,809.883545 407.423615,808.726196 405.872406,806.667053 
	C401.776947,801.230286 397.611084,795.846558 392.979126,789.796326 
	C391.810242,795.053528 392.510803,799.607666 392.351501,804.099915 
	C392.155823,809.617493 391.084229,810.325684 385.604553,807.820557 
z"/>
<path fill="#000000" opacity="1.000000" stroke="none" 
	d="
M202.671616,803.169983 
	C200.853394,807.407837 197.456207,808.878357 193.716888,809.159729 
	C188.913879,809.521240 184.065125,809.250000 179.236801,809.309937 
	C176.655151,809.341980 175.688126,807.995056 175.691940,805.587646 
	C175.705139,797.260742 175.730057,788.933472 175.662140,780.607056 
	C175.640015,777.893860 176.737579,776.631653 179.504395,776.690491 
	C183.166458,776.768372 186.833664,776.617737 190.495163,776.707581 
	C200.197403,776.945740 203.771072,783.233887 198.909943,792.029419 
	C201.930832,794.875549 204.386093,798.164307 202.671616,803.169983 
M187.251297,803.449707 
	C190.517120,803.170654 195.380859,804.662109 195.543259,799.706726 
	C195.703720,794.811035 190.812256,795.682800 187.535004,795.476257 
	C185.595062,795.354065 182.996582,794.595886 182.734665,798.108582 
	C182.513077,801.080261 182.709305,803.495605 187.251297,803.449707 
M186.116653,783.182068 
	C183.028503,782.970154 182.618118,784.859253 182.769302,787.322021 
	C182.921860,789.807068 184.703812,789.693054 186.353226,789.613220 
	C189.349442,789.468323 193.897446,790.655518 194.154068,786.551697 
	C194.442780,781.934387 189.815491,783.394958 186.116653,783.182068 
z"/>
<path fill="#000000" opacity="1.000000" stroke="none" 
	d="
M489.163361,753.347778 
	C486.183716,753.336060 485.687408,751.721985 485.687805,749.674988 
	C485.689392,741.351440 485.711273,733.027710 485.658936,724.704468 
	C485.641846,721.988464 486.850708,720.725952 489.560455,720.763184 
	C492.722778,720.806580 495.887177,720.719177 499.048920,720.780151 
	C510.067657,720.992554 513.450684,726.277710 508.875610,736.334045 
	C509.485718,738.508362 511.925629,739.519714 512.609253,741.909241 
	C514.221680,747.545471 510.524963,752.912598 504.127777,753.285706 
	C499.316010,753.566406 494.475769,753.358704 489.163361,753.347778 
M502.640503,740.387390 
	C500.497406,740.325195 498.350769,740.320740 496.212006,740.188293 
	C492.154785,739.937134 491.597992,742.715637 492.589508,745.345337 
	C494.214661,749.655762 498.276031,747.302185 501.243530,747.468140 
	C503.789581,747.610535 505.518341,745.877991 505.517181,743.065979 
	C505.516663,741.726501 504.489166,741.088684 502.640503,740.387390 
M502.277496,733.196045 
	C504.760986,730.704102 504.082062,728.653015 501.041779,727.671509 
	C499.244293,727.091187 497.137634,727.421326 495.170258,727.427673 
	C493.060516,727.434509 492.377747,728.708313 492.367249,730.652649 
	C492.356628,732.620789 493.097504,733.880432 495.179626,733.862122 
	C497.307465,733.843384 499.433807,733.650696 502.277496,733.196045 
z"/>
<path fill="#000000" opacity="1.000000" stroke="none" 
	d="
M396.672424,727.995850 
	C396.706818,726.194885 396.699341,724.860046 396.781921,723.530823 
	C396.916687,721.362122 398.366150,720.819641 400.237976,720.833313 
	C401.964264,720.846008 403.223358,721.487671 403.231598,723.394714 
	C403.271210,732.559265 403.268524,741.724060 403.262054,750.888733 
	C403.261108,752.201294 402.683533,753.122192 401.264435,753.296021 
	C399.386444,753.526184 397.655212,753.495300 396.336517,751.733215 
	C393.441925,747.865234 390.484314,744.042908 387.483032,740.256958 
	C386.286926,738.748169 385.416077,736.815735 382.889252,736.258484 
	C381.664429,740.538940 382.458771,744.848022 382.283722,749.079224 
	C382.185425,751.454895 381.927429,753.326904 378.817627,753.387573 
	C375.575439,753.450806 374.885010,751.707397 374.900543,748.985840 
	C374.944275,741.319763 374.874573,733.652832 374.932953,725.986938 
	C374.947632,724.061035 374.579071,721.720825 377.167969,721.010376 
	C379.652466,720.328674 381.694183,721.129639 383.258881,723.298950 
	C385.987793,727.082458 388.783905,730.819763 391.644073,734.504822 
	C392.626862,735.770996 393.317780,737.446472 395.515778,737.872742 
	C397.727112,734.997437 396.185425,731.570374 396.672424,727.995850 
z"/>
<path fill="#000000" opacity="1.000000" stroke="none" 
	d="
M750.572998,793.623901 
	C750.432312,797.951721 750.350342,801.938843 750.335938,805.926270 
	C750.328003,808.133972 749.463257,809.304138 747.093567,809.307190 
	C744.799011,809.310120 743.704468,808.300781 743.701416,806.038086 
	C743.689697,797.396484 743.661743,788.754761 743.679993,780.113281 
	C743.682739,778.798950 743.681641,777.267212 745.387207,776.931580 
	C747.550293,776.505859 749.685181,776.421387 751.252075,778.510986 
	C754.141907,782.364868 757.068848,786.191345 760.017761,790.000305 
	C761.004883,791.275391 761.701050,792.932922 763.694275,793.168091 
	C765.666138,791.941101 764.895264,789.930969 764.983093,788.236389 
	C765.120667,785.584595 765.001709,782.920532 765.067383,780.263550 
	C765.125854,777.901062 766.163391,776.592529 768.776917,776.726074 
	C771.069275,776.843140 772.135559,777.960999 772.140930,780.138855 
	C772.162170,788.780090 772.161316,797.421570 772.123596,806.062744 
	C772.117615,807.434875 771.760986,808.783813 770.147705,809.129150 
	C768.083191,809.571167 766.219543,809.324524 764.802063,807.456848 
	C761.488098,803.090393 758.187622,798.709167 754.713501,794.471802 
	C753.805115,793.363770 752.869385,790.655457 750.572998,793.623901 
z"/>
<path fill="#000000" opacity="1.000000" stroke="none" 
	d="
M646.599731,753.355286 
	C642.779419,753.914062 640.465759,752.489258 638.904175,749.472351 
	C638.221069,748.152771 637.253845,746.975769 636.376465,745.762268 
	C635.212830,744.152771 634.205811,742.305969 631.647766,742.957336 
	C628.880798,743.661865 629.400452,745.916565 629.337646,747.817078 
	C629.242798,750.683594 629.717163,753.735107 625.180969,753.372437 
	C622.913696,753.191162 621.801697,752.272034 621.796448,750.024414 
	C621.776367,741.368591 621.751099,732.712708 621.750183,724.056885 
	C621.749939,722.067566 622.821716,720.850037 624.788757,720.846680 
	C629.766968,720.838196 634.755554,720.335999 639.719238,721.302917 
	C643.784241,722.094849 647.188354,723.910034 648.039917,728.141174 
	C648.944885,732.637512 648.853821,737.195251 644.258118,740.149902 
	C643.723938,740.493347 643.294983,741.000549 642.806885,741.441223 
	C643.510803,744.834961 646.074097,746.961914 647.549133,749.705078 
	C648.214661,750.942932 650.217407,752.591309 646.599731,753.355286 
M633.573120,727.394836 
	C628.405457,727.029297 629.114502,730.782471 629.393677,733.774963 
	C629.821838,738.364624 633.608765,736.539917 635.970093,736.475220 
	C638.934265,736.393860 641.407715,734.798462 641.418518,731.312683 
	C641.423523,729.706055 640.206116,728.557983 638.719299,728.099731 
	C637.333252,727.672546 635.833801,727.613464 633.573120,727.394836 
z"/>
<path fill="#000000" opacity="1.000000" stroke="none" 
	d="
M735.338135,791.230347 
	C735.316284,804.806824 726.477356,812.297791 714.688843,809.466309 
	C705.160522,807.177795 701.317078,799.228088 701.887939,791.277527 
	C702.559692,781.920532 709.642517,775.904724 718.944397,776.006409 
	C727.918701,776.104492 734.084534,781.664307 735.338135,791.230347 
M727.005676,787.670898 
	C724.294800,783.872253 720.949646,781.390076 716.004761,782.897461 
	C711.681580,784.215271 709.530701,787.426270 709.180603,791.797974 
	C708.803162,796.510803 710.436646,800.310730 714.836304,802.537842 
	C718.316467,804.299561 721.660095,803.832092 724.629089,801.412415 
	C728.463257,798.287537 729.318481,793.862976 727.005676,787.670898 
z"/>
<path fill="#000000" opacity="1.000000" stroke="none" 
	d="
M601.651855,793.997253 
	C601.660889,789.174438 601.670471,784.850647 601.679321,780.526917 
	C601.683472,778.538330 602.049744,776.747559 604.562439,776.777100 
	C609.194946,776.831787 613.843384,776.140930 618.451172,777.363220 
	C626.842590,779.589172 631.826538,786.045715 631.139893,794.009827 
	C630.402710,802.561401 624.686218,808.347656 616.066650,809.266968 
	C601.670593,810.802368 601.652893,810.786682 601.651855,796.491943 
	C601.651794,795.826721 601.651978,795.161560 601.651855,793.997253 
M610.239929,783.781006 
	C607.871399,789.350830 609.398254,795.132263 609.372803,800.822266 
	C609.366882,802.141541 610.581360,802.604980 611.809631,802.875977 
	C617.455505,804.121704 622.963684,800.152039 623.618774,794.355652 
	C624.364685,787.756104 619.700928,781.796082 610.239929,783.781006 
z"/>
<path fill="#000000" opacity="1.000000" stroke="none" 
	d="
M718.095215,721.295471 
	C726.991516,724.774719 730.980042,732.274414 729.142090,741.479065 
	C727.574341,749.330872 720.455322,754.609863 711.837402,754.311157 
	C703.565857,754.024536 696.862549,748.037842 695.741150,739.935974 
	C694.571838,731.487549 699.466858,723.545227 707.334290,721.257507 
	C710.758728,720.261719 714.238831,720.416321 718.095215,721.295471 
M704.033630,742.438965 
	C704.401001,742.993469 704.704041,743.606323 705.145752,744.093384 
	C708.707275,748.020508 713.109192,748.920044 717.248596,746.602600 
	C721.150330,744.418213 723.420532,739.283569 722.346924,735.070984 
	C721.094116,730.155090 716.979309,726.912659 712.193848,727.070557 
	C707.512451,727.225037 704.361084,730.313721 703.076050,735.474304 
	C702.505188,737.766785 703.110413,739.728271 704.033630,742.438965 
z"/>
<path fill="#000000" opacity="1.000000" stroke="none" 
	d="
M660.977539,750.092651 
	C654.930725,742.985901 653.857361,734.105286 658.028320,727.791748 
	C661.986511,721.800232 670.259216,718.990784 677.473328,721.187988 
	C687.115417,724.124756 691.607971,733.971375 687.932617,744.112366 
	C684.766907,752.847107 674.278442,756.801270 665.072632,752.668457 
	C663.724854,752.063354 662.527771,751.122437 660.977539,750.092651 
M663.515076,741.828735 
	C667.390198,747.745972 672.341675,749.419373 677.320496,746.494568 
	C681.499634,744.039551 683.254089,737.710754 681.122803,732.778320 
	C679.125122,728.155029 673.839355,725.862793 669.066650,727.549927 
	C663.995117,729.342834 661.520691,735.121887 663.515076,741.828735 
z"/>
<path fill="#000000" opacity="1.000000" stroke="none" 
	d="
M588.718140,781.259521 
	C594.304382,787.181824 594.700378,793.819702 591.825134,800.473572 
	C589.019104,806.967285 583.175232,809.354858 576.379761,809.321350 
	C562.335449,809.252014 564.912170,810.919312 564.670105,797.939514 
	C564.564819,792.298157 564.773987,786.649963 564.622192,781.010742 
	C564.534973,777.768372 565.866333,776.661255 569.023682,776.639648 
	C575.865173,776.592651 582.705017,776.259094 588.718140,781.259521 
M585.585693,797.000977 
	C587.675964,792.427063 586.300903,788.596680 582.845215,785.405884 
	C580.335571,783.088623 577.181274,782.656006 574.022522,783.688782 
	C570.635986,784.796082 571.462219,787.882385 571.362976,790.431091 
	C571.285828,792.410889 571.342041,794.395996 571.347107,796.378784 
	C571.363953,802.946594 572.993591,804.188904 579.376648,802.566895 
	C582.130310,801.867126 584.036987,800.191956 585.585693,797.000977 
z"/>
<path fill="#000000" opacity="1.000000" stroke="none" 
	d="
M298.764404,809.350098 
	C293.130920,809.350647 287.968567,809.263184 282.810364,809.371643 
	C279.867310,809.433472 278.599426,808.309204 278.638275,805.280579 
	C278.742950,797.124878 278.744049,788.965942 278.632050,780.810364 
	C278.590698,777.799438 279.831268,776.603516 282.771454,776.650696 
	C288.263519,776.738831 293.757812,776.683350 299.251190,776.695496 
	C301.258698,776.699951 302.948303,777.142761 302.996185,779.638611 
	C303.046753,782.276062 301.425568,783.068970 299.132141,783.099060 
	C295.803070,783.142761 292.473907,783.220642 289.144928,783.216187 
	C286.742828,783.212952 285.397217,784.128601 285.398376,786.733887 
	C285.399506,789.305176 286.959991,789.711365 289.010925,789.701782 
	C291.840637,789.688660 294.670624,789.748474 297.500458,789.741760 
	C299.864624,789.736145 301.289337,790.583923 301.240234,793.239807 
	C301.194336,795.725525 299.732635,796.307922 297.651154,796.309570 
	C294.821289,796.311890 291.989929,796.402222 289.161957,796.337036 
	C286.358276,796.272461 285.322357,797.634277 285.365875,800.321289 
	C285.410553,803.078796 287.033264,803.665710 289.307526,803.570679 
	C292.464600,803.438721 295.620697,803.196289 298.777863,803.185364 
	C300.773163,803.178467 302.937958,803.239990 303.115326,806.108887 
	C303.292175,808.969299 301.439972,809.357239 298.764404,809.350098 
z"/>
<path fill="#000000" opacity="1.000000" stroke="none" 
	d="
M373.645935,809.259766 
	C367.861725,809.315002 362.537354,809.251831 357.217346,809.375671 
	C354.209076,809.445679 352.568451,808.602173 352.631195,805.181824 
	C352.780609,797.034119 352.761871,788.880737 352.646057,780.731995 
	C352.602386,777.659546 353.954773,776.609497 356.840210,776.660400 
	C361.994934,776.751343 367.152313,776.691284 372.308594,776.691711 
	C374.479431,776.691895 376.278442,777.008423 376.272278,779.872498 
	C376.266174,782.711853 374.438385,783.083435 372.297485,783.133728 
	C369.803589,783.192383 367.303589,783.285278 364.814301,783.177002 
	C360.462311,782.987854 359.138275,784.980164 360.306335,789.213013 
	C363.731720,790.143372 367.228851,789.627991 370.669434,789.679688 
	C373.242035,789.718323 374.891602,790.526917 374.905029,793.316895 
	C374.918671,796.156799 372.910736,796.359253 370.775085,796.351196 
	C368.280151,796.341797 365.783844,796.403564 363.290497,796.340454 
	C360.608429,796.272522 359.325531,797.380432 359.346832,800.184387 
	C359.369110,803.114868 361.102386,803.213867 363.332733,803.194336 
	C366.485260,803.166626 369.641205,803.388428 372.793518,803.546387 
	C374.235992,803.618591 375.997009,803.301453 376.247833,805.456848 
	C376.448181,807.178528 376.415894,808.875427 373.645935,809.259766 
z"/>
<path fill="#000000" opacity="1.000000" stroke="none" 
	d="
M353.405579,740.400024 
	C349.647034,740.154846 349.116150,742.102173 349.304291,744.838379 
	C349.509094,747.818237 351.600342,747.628967 353.623413,747.645203 
	C356.789398,747.670593 359.955536,747.681458 363.121613,747.686218 
	C365.046295,747.689087 366.280029,748.313110 366.299255,750.548889 
	C366.318359,752.769653 365.201324,753.442383 363.198486,753.425049 
	C357.366364,753.374512 351.533508,753.343811 345.701477,753.382629 
	C343.150635,753.399597 342.047485,752.101074 342.038483,749.718384 
	C342.006958,741.387329 341.997223,733.056152 342.009705,724.724976 
	C342.013550,722.153870 343.136932,720.699402 345.942719,720.738037 
	C351.440857,720.813660 356.940704,720.757690 362.439789,720.774536 
	C364.720795,720.781555 366.301971,721.496582 366.258728,724.221313 
	C366.213562,727.066833 364.396729,727.372986 362.220795,727.373840 
	C359.054718,727.375000 355.888397,727.430603 352.722595,727.408630 
	C350.115356,727.390503 349.303406,728.824097 349.229187,731.209045 
	C349.144806,733.922058 350.528442,734.673096 352.943970,734.598328 
	C355.607422,734.515930 358.276093,734.618896 360.942108,734.596191 
	C362.787842,734.580444 364.200195,734.874207 364.268433,737.236145 
	C364.341217,739.754211 362.975189,740.378540 360.844696,740.362915 
	C358.512054,740.345825 356.178955,740.381348 353.405579,740.400024 
z"/>
<path fill="#000000" opacity="1.000000" stroke="none" 
	d="
M536.654297,746.224854 
	C531.336426,745.957825 526.719788,745.583435 524.854187,752.013489 
	C524.107910,754.585632 520.877380,753.296631 518.712280,752.958008 
	C517.672302,751.480957 518.554871,750.301270 519.048401,749.141541 
	C522.555237,740.900635 526.141418,732.693298 529.604126,724.434082 
	C530.585022,722.094360 531.738831,720.555481 534.654297,720.637146 
	C537.418030,720.714661 538.307312,722.397339 539.182007,724.469238 
	C542.472534,732.263184 545.832275,740.027954 549.108337,747.827942 
	C549.734314,749.318665 550.780640,750.760925 550.166626,752.747925 
	C546.582153,754.223633 543.873596,753.543091 542.533325,749.472046 
	C541.655518,746.805786 539.676880,746.012024 536.654297,746.224854 
M535.283142,732.843567 
	C531.102722,733.022522 532.583191,736.582092 531.296753,738.750732 
	C533.700317,739.934265 535.593994,740.166565 537.746887,738.359680 
	C537.010376,736.650391 536.306213,735.016052 535.283142,732.843567 
z"/>
<path fill="#000000" opacity="1.000000" stroke="none" 
	d="
M209.511002,728.485413 
	C203.071198,735.061829 203.145676,735.008972 208.315353,742.292297 
	C210.668365,745.607422 213.863342,748.397034 215.384079,752.711548 
	C204.484802,756.053894 204.497406,744.211975 197.970139,741.159607 
	C194.705780,742.310852 194.234787,745.250549 194.297546,748.569397 
	C194.342087,750.925415 194.520096,753.395020 190.900803,753.330078 
	C187.227600,753.264038 187.692276,750.646912 187.677048,748.392578 
	C187.625275,740.729431 187.645370,733.065613 187.668701,725.402161 
	C187.675339,723.219299 187.479980,720.904785 190.784698,720.862427 
	C194.237747,720.818237 194.346039,723.090393 194.321442,725.582397 
	C194.293549,728.406860 194.315002,731.231689 194.315002,734.761719 
	C198.862228,731.563416 201.437988,727.315247 204.800446,723.865173 
	C207.760941,720.827515 210.907120,719.512878 214.958328,722.025452 
	C213.866013,724.841003 211.366074,726.164612 209.511002,728.485413 
z"/>
<path fill="#000000" opacity="1.000000" stroke="none" 
	d="
M534.272888,784.375366 
	C535.252747,782.208374 535.904175,780.292480 536.912842,778.587952 
	C538.424377,776.033691 543.140869,775.645142 544.445984,778.226135 
	C549.366028,787.956116 553.499329,798.040039 557.438538,808.390442 
	C553.261597,810.063538 550.376221,809.731628 549.158508,805.473511 
	C547.713196,800.419434 543.425903,801.902466 540.072388,801.513489 
	C536.764709,801.129883 533.665955,801.776306 532.495728,805.589783 
	C531.260315,809.615356 528.476440,809.815979 524.217285,808.696411 
	C527.594482,800.506958 530.849365,792.614014 534.272888,784.375366 
M539.887451,795.600403 
	C541.263672,795.422180 542.875183,796.083191 543.971313,794.378967 
	C543.622437,791.858887 542.513184,789.597473 540.690857,786.646240 
	C540.097351,790.148132 535.821594,792.029358 539.887451,795.600403 
z"/>
<path fill="#000000" opacity="1.000000" stroke="none" 
	d="
M215.149445,807.358704 
	C212.988419,810.274963 210.624512,809.152893 207.510101,808.854919 
	C210.069382,802.744446 212.355225,797.271423 214.653885,791.803711 
	C216.395477,787.661072 218.171722,783.532837 219.895813,779.382935 
	C220.693802,777.462097 222.015106,776.586182 224.144257,776.646423 
	C226.097351,776.701721 227.716324,776.949646 228.594406,779.042542 
	C232.520645,788.400940 236.520370,797.728455 240.456192,807.082886 
	C240.626785,807.488342 240.428986,808.048767 240.393265,808.714172 
	C237.332397,809.664490 234.285065,810.202515 233.001892,806.353699 
	C231.023071,800.418518 226.188843,801.757385 221.832458,801.372437 
	C217.509918,800.990540 216.661255,804.168091 215.149445,807.358704 
M225.794174,795.508545 
	C229.358078,792.072021 225.662766,790.450989 224.345139,787.829895 
	C220.180664,793.719971 220.348740,794.824341 225.794174,795.508545 
z"/>
<path fill="#000000" opacity="1.000000" stroke="none" 
	d="
M310.764313,753.004578 
	C307.303802,753.736084 305.578400,752.924011 305.622101,749.396484 
	C305.725342,741.066101 305.645721,732.733032 305.593384,724.401306 
	C305.580383,722.329956 305.931458,720.801086 308.517059,720.782898 
	C310.974762,720.765564 312.311096,721.700684 312.266541,724.271606 
	C312.246399,725.437378 312.289429,726.604126 312.294159,727.770447 
	C312.321991,734.664673 312.321045,734.664612 319.103668,734.638245 
	C325.619476,734.612915 325.617432,734.612976 325.655304,727.923096 
	C325.662842,726.590271 325.685364,725.257324 325.714355,723.924805 
	C325.766541,721.527161 327.262421,720.858093 329.361572,720.821594 
	C331.697723,720.781006 332.753082,722.049316 332.730591,724.207825 
	C332.640381,732.868896 332.466461,741.529114 332.357117,750.190063 
	C332.327301,752.551941 331.126709,753.388062 328.879089,753.332458 
	C326.853363,753.282349 325.755615,752.456726 325.721710,750.378235 
	C325.708099,749.545349 325.672668,748.712769 325.656647,747.879883 
	C325.509430,740.231445 325.507507,740.469788 317.845947,740.389709 
	C313.518188,740.344482 311.765594,741.689087 312.199524,746.123352 
	C312.415802,748.333374 312.943970,750.813843 310.764313,753.004578 
z"/>
<path fill="#000000" opacity="1.000000" stroke="none" 
	d="
M590.779907,753.005066 
	C586.834839,753.882812 585.568237,752.371521 585.619446,748.893616 
	C585.734314,741.083923 585.590454,733.270752 585.603577,725.459045 
	C585.607178,723.305420 585.403442,720.970215 588.684204,720.865967 
	C592.091064,720.757690 592.387390,722.920471 592.307983,725.466553 
	C592.297607,725.798584 592.305481,726.131409 592.309570,726.463745 
	C592.407593,734.453491 595.436890,736.640991 603.261230,734.536316 
	C605.093384,734.043457 605.613098,732.928101 605.631226,731.282227 
	C605.656860,728.955627 605.698486,726.629150 605.703369,724.302490 
	C605.708008,722.122009 606.613220,720.888000 608.947510,720.828125 
	C611.249329,720.769043 612.315674,721.801086 612.310974,724.082764 
	C612.293335,732.725342 612.290466,741.367920 612.297119,750.010498 
	C612.298828,752.237000 611.356873,753.338074 609.000061,753.332275 
	C606.641663,753.326538 605.697205,752.206970 605.712341,749.991638 
	C605.718079,749.161011 605.678162,748.330139 605.665894,747.499329 
	C605.562500,740.505676 605.309387,740.523010 598.351196,740.343567 
	C593.595276,740.221008 591.674866,741.828308 592.224915,746.652832 
	C592.456970,748.688660 592.905457,751.002930 590.779907,753.005066 
z"/>
<path fill="#000000" opacity="1.000000" stroke="none" 
	d="
M471.812042,784.788635 
	C469.105591,784.062378 466.809784,783.030334 464.403290,782.510803 
	C462.428650,782.084473 460.660370,783.143982 460.109070,785.114868 
	C459.509796,787.257080 461.377197,787.939026 462.934174,788.534729 
	C464.640656,789.187622 466.407654,789.680359 468.137878,790.273254 
	C475.259125,792.713135 477.187775,795.462646 476.278595,801.846985 
	C475.602539,806.594360 470.740784,810.269592 464.741669,810.145691 
	C461.239044,810.073364 457.846405,809.000732 454.762665,807.278503 
	C453.229584,806.422363 451.110870,805.480774 452.330597,803.147217 
	C453.421661,801.059937 455.136688,799.883362 457.679230,801.346191 
	C459.545868,802.420166 461.463043,803.464233 463.697693,803.623779 
	C466.265076,803.806885 468.644775,803.115662 469.216675,800.457642 
	C469.766663,797.901489 467.233154,797.317139 465.437683,796.600281 
	C463.902771,795.987488 462.238190,795.708252 460.654510,795.207092 
	C454.314972,793.200806 451.665100,789.355591 452.782806,783.842041 
	C453.783142,778.907349 459.438385,775.340088 465.178986,776.172119 
	C467.139862,776.456299 469.102875,776.966370 470.964691,777.647278 
	C475.946869,779.469299 476.182617,781.049683 471.812042,784.788635 
z"/>
<path fill="#000000" opacity="1.000000" stroke="none" 
	d="
M792.038330,803.599426 
	C794.768555,803.590820 797.057068,802.918823 797.260437,800.341736 
	C797.472351,797.656677 794.909546,797.064758 792.865906,796.388550 
	C791.450684,795.920166 789.978455,795.625061 788.559082,795.167664 
	C782.906128,793.345703 780.375671,790.099182 780.687927,785.135193 
	C780.987427,780.374207 784.217957,777.283875 789.933472,776.352112 
	C793.485352,775.773132 796.898743,776.447327 800.073608,777.988403 
	C801.769958,778.811829 804.062683,779.759766 802.606384,782.424377 
	C801.451233,784.538086 799.822876,785.617188 797.282532,784.236389 
	C795.843384,783.454102 794.246277,782.835815 792.645691,782.509644 
	C790.658203,782.104553 788.875977,782.948425 788.195557,784.876404 
	C787.430664,787.043884 789.390747,787.753418 790.854736,788.398865 
	C792.670288,789.199280 794.609558,789.717468 796.490295,790.371887 
	C803.527100,792.820251 805.377075,795.613037 804.268372,802.097900 
	C803.484131,806.684875 798.129089,810.549988 792.532532,810.173279 
	C788.878784,809.927429 785.351562,808.797913 782.187500,806.865112 
	C780.781067,806.005981 779.161255,804.928284 780.515259,802.918579 
	C781.592102,801.320435 783.049438,800.267151 785.179504,801.108215 
	C787.330566,801.957642 789.499512,802.761963 792.038330,803.599426 
z"/>
<path fill="#000000" opacity="1.000000" stroke="none" 
	d="
M254.116272,809.292969 
	C250.927490,808.188293 248.078827,807.256653 245.951996,804.773926 
	C247.420914,801.280212 249.384171,799.859863 252.904556,801.954224 
	C255.089127,803.253967 257.480927,804.061096 260.067810,803.497620 
	C261.752563,803.130615 263.315460,802.345215 263.521851,800.383789 
	C263.712952,798.567383 262.344421,797.691162 260.904266,797.152832 
	C258.262726,796.165527 255.536575,795.403259 252.900894,794.401978 
	C248.698883,792.805664 246.421326,789.746948 246.754196,785.182495 
	C247.104813,780.374268 250.088409,777.802979 254.582230,776.682800 
	C258.850769,775.618896 262.857513,776.563171 266.692017,778.346558 
	C268.181396,779.039246 269.828491,780.174133 268.677521,782.211426 
	C267.700500,783.940674 266.513367,785.715820 263.934967,784.364929 
	C262.027649,783.365723 260.096771,782.290649 257.812195,782.474670 
	C256.163513,782.607483 254.919907,783.433167 254.457413,785.021118 
	C253.917419,786.875183 255.177780,787.814087 256.659973,788.387634 
	C258.676361,789.167786 260.743958,789.815674 262.790222,790.518494 
	C269.558594,792.843506 271.651459,795.939941 270.441711,801.841309 
	C269.354126,807.146973 263.905151,810.784363 257.921722,810.132324 
	C256.772888,810.007141 255.651901,809.626587 254.116272,809.292969 
z"/>
<path fill="#000000" opacity="1.000000" stroke="none" 
	d="
M791.968262,733.943604 
	C796.062500,735.410339 800.139343,736.293518 801.833191,740.575195 
	C803.680603,745.244812 801.552979,750.584595 797.017334,752.839478 
	C790.920288,755.870483 782.995667,754.216980 777.906006,748.722290 
	C779.301331,745.569641 781.134094,743.860474 784.643127,746.356079 
	C785.304199,746.826233 786.128540,747.184570 786.925171,747.325500 
	C790.031982,747.875305 794.064880,748.934143 795.091553,745.090759 
	C796.079224,741.393372 791.724426,741.426636 789.337891,740.365662 
	C787.074341,739.359314 784.590515,738.799011 782.426514,737.629883 
	C779.075256,735.819397 778.415039,732.598328 778.673523,729.056274 
	C778.930908,725.529419 780.806702,723.113892 783.934937,721.806824 
	C789.019836,719.682129 794.015808,720.305969 798.792664,722.898926 
	C800.280823,723.706787 801.896057,724.639465 800.553711,726.726624 
	C799.530212,728.317932 798.323975,729.690796 796.071960,728.633118 
	C794.265320,727.784668 792.406128,727.003357 790.355835,727.039795 
	C788.464966,727.073425 786.433411,727.346985 785.887451,729.447144 
	C785.339600,731.554260 787.306702,732.177368 788.788086,732.863831 
	C789.683899,733.278992 790.665100,733.510071 791.968262,733.943604 
z"/>
<path fill="#000000" opacity="1.000000" stroke="none" 
	d="
M432.455109,728.571960 
	C429.935516,729.540771 428.389008,727.770752 426.543915,727.222961 
	C423.845795,726.421997 421.125763,726.334290 420.074615,729.016541 
	C418.827942,732.197693 422.222900,732.567871 424.153229,733.448059 
	C426.252136,734.404968 428.573425,734.861145 430.728027,735.712097 
	C434.328278,737.134033 436.269470,739.795227 436.303436,743.748535 
	C436.339752,747.975830 434.626953,751.192322 430.711853,752.937622 
	C424.677032,755.627747 419.027710,754.263855 413.662872,750.960022 
	C412.299988,750.120850 411.236053,749.007935 412.483337,747.308350 
	C413.588257,745.802795 414.725708,744.304871 416.966614,745.649658 
	C419.584686,747.220825 422.374573,748.231140 425.504547,747.684021 
	C427.280609,747.373474 428.738861,746.400940 429.082977,744.640625 
	C429.492737,742.544556 427.769012,741.808716 426.149292,741.274414 
	C423.785522,740.494751 421.350830,739.915039 419.022675,739.045715 
	C413.783722,737.089417 412.011719,734.121277 412.715485,728.646240 
	C413.348206,723.723877 416.757355,721.556458 421.152374,720.811768 
	C424.805511,720.192749 428.396423,720.786316 431.848175,722.350952 
	C435.412689,723.966858 436.187897,725.786560 432.455109,728.571960 
z"/>
<path fill="#000000" opacity="1.000000" stroke="none" 
	d="
M269.033325,732.720093 
	C272.513733,720.151245 285.640656,718.316284 293.788025,722.585144 
	C295.640961,723.556091 298.106995,724.500305 296.610535,727.383850 
	C295.313721,729.882690 293.600128,730.224731 290.898895,728.726074 
	C285.741669,725.864807 280.638428,726.761353 277.776825,730.434265 
	C274.640015,734.460449 274.742889,740.173218 278.026794,744.317078 
	C281.056183,748.139709 285.695496,748.920105 291.060425,746.018433 
	C293.498627,744.699585 295.111938,744.922302 296.509521,747.129883 
	C298.151215,749.722900 295.971954,750.830750 294.334167,751.773010 
	C288.564117,755.092590 282.593140,755.301819 276.710724,752.104858 
	C271.224213,749.123047 268.850037,744.194214 268.681366,738.108887 
	C268.635406,736.450989 268.823700,734.786621 269.033325,732.720093 
z"/>
<path fill="#000000" opacity="1.000000" stroke="none" 
	d="
M239.316498,727.242371 
	C236.680496,726.099304 237.013885,724.269287 237.609787,722.475830 
	C238.223129,720.629822 239.922241,720.820923 241.383865,720.810364 
	C247.537704,720.765808 253.692032,720.794739 259.846008,720.762512 
	C262.399261,720.749207 264.032745,721.660522 263.983948,724.498474 
	C263.932953,727.462341 261.791168,727.545776 259.766235,727.331299 
	C255.240067,726.851868 254.003906,728.923706 254.244339,733.169678 
	C254.554123,738.640442 254.278778,744.143066 254.307831,749.631714 
	C254.320374,751.998474 253.553207,753.371826 250.874252,753.387146 
	C248.198013,753.402405 246.834320,752.451416 246.862335,749.637085 
	C246.912018,744.647888 246.847717,739.657532 246.825546,734.667664 
	C246.793991,727.565430 246.791840,727.565430 239.316498,727.242371 
z"/>
<path fill="#000000" opacity="1.000000" stroke="none" 
	d="
M560.736755,729.649414 
	C559.604126,726.712219 557.335693,727.468872 555.463745,727.407043 
	C553.158325,727.330811 551.634216,726.781555 551.693359,724.026062 
	C551.745300,721.610107 553.014709,720.813477 555.149841,720.812927 
	C561.634888,720.811462 568.119934,720.809631 574.604980,720.828979 
	C576.838074,720.835693 577.915771,722.055664 578.040100,724.233093 
	C578.183533,726.744751 576.599915,727.579468 574.561707,727.302795 
	C568.865173,726.529602 567.792053,729.549377 568.081726,734.357788 
	C568.351196,738.831604 568.196289,743.335510 568.115234,747.824158 
	C568.068665,750.405212 568.607788,753.449219 564.369324,753.357605 
	C560.431946,753.272461 561.018982,750.449463 560.981812,748.029663 
	C560.889832,742.044617 560.866455,736.058472 560.736755,729.649414 
z"/>
<path fill="#000000" opacity="1.000000" stroke="none" 
	d="
M672.049622,783.971191 
	C668.958130,787.575806 670.522278,791.553589 670.255798,795.259033 
	C670.017944,798.567261 670.177917,801.907104 670.229431,805.231995 
	C670.268738,807.771973 669.485962,809.336060 666.561523,809.339722 
	C663.688110,809.343384 662.804077,807.911377 662.836060,805.303955 
	C662.903442,799.817444 662.790710,794.328125 662.905334,788.843140 
	C662.980774,785.227905 661.738220,783.068481 657.788452,783.186096 
	C655.309448,783.259949 653.579590,782.541077 653.712769,779.535095 
	C653.846863,776.508484 656.000061,776.718567 657.973694,776.698120 
	C663.460327,776.641113 668.948792,776.594971 674.434387,776.680542 
	C676.459229,776.712097 678.994507,776.145691 679.276733,779.474792 
	C679.567566,782.905273 677.344971,783.177551 674.827576,783.269531 
	C674.013062,783.299194 673.207947,783.583435 672.049622,783.971191 
z"/>
<path fill="#000000" opacity="1.000000" stroke="none" 
	d="
M437.288361,803.853027 
	C437.330750,806.934082 437.425262,809.417969 433.599457,809.337341 
	C429.831665,809.257935 429.946747,806.744751 429.946228,804.175049 
	C429.945190,798.859314 429.878937,793.542175 429.984131,788.228455 
	C430.051453,784.829590 429.033020,782.826050 425.165527,783.083923 
	C423.046814,783.225159 420.650024,783.343994 420.558258,780.051575 
	C420.458008,776.453552 422.968353,776.688477 425.319855,776.681580 
	C430.967773,776.665100 436.615784,776.676941 442.263763,776.683044 
	C444.390350,776.685303 446.255463,776.886536 446.289459,779.785217 
	C446.321503,782.519714 444.767151,783.334961 442.498016,783.160095 
	C438.174500,782.827026 437.069366,785.067444 437.224884,788.920410 
	C437.418976,793.730286 437.282593,798.553528 437.288361,803.853027 
z"/>
<path fill="#000000" opacity="1.000000" stroke="none" 
	d="
M638.868042,796.979858 
	C638.860657,791.508118 638.887634,786.531555 638.839294,781.555786 
	C638.812439,778.788208 639.224609,776.635864 642.799255,776.647888 
	C646.232422,776.659546 646.364746,778.797180 646.354126,781.303101 
	C646.321228,789.099121 646.323059,796.895325 646.339722,804.691467 
	C646.345032,807.170471 646.266174,809.316772 642.800293,809.350708 
	C639.136108,809.386475 638.859375,807.150879 638.885315,804.442078 
	C638.907532,802.120178 638.877686,799.797668 638.868042,796.979858 
z"/>
<path fill="#000000" opacity="1.000000" stroke="none" 
	d="
M229.958664,726.305115 
	C229.961182,734.061157 229.989822,741.352539 229.933594,748.643372 
	C229.915329,751.012390 229.839493,753.315613 226.378174,753.396667 
	C222.581406,753.485657 222.649124,751.078125 222.656555,748.465088 
	C222.677734,741.008179 222.640594,733.551025 222.668961,726.094177 
	C222.678284,723.642578 222.227005,720.884094 226.088226,720.791382 
	C229.808304,720.702209 229.789917,723.299561 229.958664,726.305115 
z"/>
<path fill="#000000" opacity="1.000000" stroke="none" 
	d="
M693.442749,787.638611 
	C693.434753,793.895630 693.424438,799.715149 693.458313,805.534302 
	C693.471619,807.816040 692.934875,809.386780 690.143005,809.337463 
	C687.500000,809.290710 686.692566,807.949707 686.700562,805.567932 
	C686.728577,797.254517 686.736023,788.940674 686.674988,780.627502 
	C686.655396,777.956970 687.645203,776.675171 690.482727,776.697449 
	C693.493286,776.721069 693.494690,778.649658 693.489746,780.735291 
	C693.484619,782.890503 693.469055,785.045715 693.442749,787.638611 
z"/>
<path fill="#000000" opacity="1.000000" stroke="none" 
	d="
M497.219269,796.707031 
	C494.850739,791.397522 496.462250,787.694885 500.712891,787.797974 
	C502.866364,787.850098 504.467468,788.868896 505.351074,790.871704 
	C506.325073,793.079529 505.927399,795.086670 504.185303,796.714417 
	C502.084869,798.677002 499.811493,798.736816 497.219269,796.707031 
z"/>
<path fill="#000000" opacity="1.000000" stroke="none" 
	d="
M460.081757,732.692566 
	C464.032318,732.854919 465.638916,734.777039 465.217163,738.205139 
	C464.889099,740.871460 463.176941,742.238342 460.472900,742.333008 
	C457.807922,742.426331 455.893402,741.409912 455.482513,738.613586 
	C455.010864,735.403687 455.918915,733.010071 460.081757,732.692566 
z"/>
<path fill="#000000" opacity="1.000000" stroke="none" 
	d="
M480.311707,381.272736 
	C480.486938,363.007660 480.574829,345.180573 480.662811,327.353485 
	C480.696381,320.545471 482.166626,319.124878 488.973297,319.802124 
	C505.260590,321.422699 521.567139,320.684204 537.867615,320.272644 
	C544.019104,320.117310 545.325378,321.105591 545.345581,327.147461 
	C545.377930,336.812714 545.230896,346.480103 545.383179,356.143036 
	C545.527283,365.288971 546.072449,374.428497 546.221741,383.574463 
	C546.311890,389.092224 544.495911,391.019226 539.033569,390.683899 
	C521.900513,389.632172 504.768890,389.976105 487.628906,390.179230 
	C480.761230,390.260620 479.686981,388.829102 480.311707,381.272736 
M495.371124,338.982178 
	C496.603790,342.173645 492.264282,347.604126 498.937378,348.556396 
	C506.014313,349.566315 506.825226,348.568817 506.585571,340.565765 
	C506.521576,338.429596 506.851654,335.595367 503.867615,335.607056 
	C500.964783,335.618378 497.003448,333.350464 495.371124,338.982178 
M506.595795,370.271820 
	C506.635498,363.487976 506.394775,363.547333 500.311981,363.292664 
	C494.164581,363.035278 495.739227,367.197968 495.291046,370.616364 
	C494.537018,376.368134 498.377777,375.934784 502.090546,376.354065 
	C506.498962,376.851868 506.524780,374.084351 506.595795,370.271820 
M524.674316,348.642609 
	C529.401855,349.369110 531.554443,347.483521 530.847473,342.616516 
	C530.729370,341.803528 530.748901,340.949554 530.842712,340.130280 
	C531.333069,335.847565 528.880981,335.311890 525.364075,335.304291 
	C521.906067,335.296814 519.903015,336.102875 520.295837,340.015656 
	C520.477478,341.824463 520.371277,343.665039 520.349182,345.490662 
	C520.320374,347.875397 521.641113,348.718872 524.674316,348.642609 
M526.364807,363.381958 
	C519.707458,363.505493 518.883789,365.379639 520.944153,375.716125 
	C532.750305,376.730225 530.620544,376.755188 530.833191,366.902924 
	C530.886963,364.412964 529.699341,363.245941 526.364807,363.381958 
z"/>
</svg>